<svg xmlns="http://www.w3.org/2000/svg" width="87" height="57"><path fill="#010101" d="M0-1.3h87.5V57H0z"/><path fill="#FCDC02" d="M0 8.4h87.5v9.7H0z"/><path fill="#D81F26" d="M0 18.1h87.5v9.7H0z"/><path fill="#FCDC02" d="M0 37.6h87.5v9.7H0z"/><path fill="#D81F26" d="M0 47.3h87.5V57H0z"/><circle fill="#fff" cx="43.8" cy="27.8" r="9.1"/><path fill="#D81F26" stroke="#010101" stroke-width=".097" d="m42.1 20.9-.6-1.1c.2-.2.6-.4 1.2-.4l-.1 1.2-.5.3z"/><path fill="#FCDC02" stroke="#010101" stroke-width=".097" d="m42.7 20.6.1-1.2s1.2-.1 1.9.7l-.7.9-1.3-.4z"/><path fill="#D81F26" stroke="#010101" stroke-width=".097" d="m44.1 21 .6-.9c.4.4.6.7.6 1.2l-1 .2-.2-.5z"/><path fill="#010101" stroke="#010101" stroke-width=".097" d="M42.4 36.4s1.1-1.3 3.3-1c-.3-.5-1.4-.5-1.4-.5s-.3-2.5-.1-2.6c.3-.1 1.4 0 1.4 0 .1 0 .4-.4.2-.6-.2-.2-.8-1.2-.5-1.4.2-.2 1.5.1 1.5.1l-3.7-4.7s-.4-1.8.4-2.6c.9-.7.8-1.6.8-1.5-.1-.8-1.4-1.4-2.2-.7-.5.6-.2 1.1-.2 1.1s-1.3.4-1.4.6c-.1.2 1.5 0 1.5 0l-.1 1s-3 2.7-.7 5l.1-.1s.8 1 1.6 1.2l.7.7s.2 1.3 0 1.5c-.2-.1-2.2-.1-2.5 0-.3.1-1.3 0-1 1.7.2-.5.4-.9.4-.9s0 .6.2.8c0-.6.2-1.1.2-1.1s.1.7.2.8c.2.1.2-1.1 1-1 .9.1 1.5.1 1.5.1s.3 2.4.2 2.7c-.6-.1-2.1.1-2.2.4.9-.1 1.3.1 1.3.1s-.7.5-.5.9z"/><path fill="#9CA69C" stroke="#9CA69C" stroke-width=".097" d="M42.8 23.1s-2.2 2.4-1.2 4.2c0-.3 0-.4.1-.4l.2.2c0-.1-.1-.4-.1-.4.1 0 .2 0 .3.1l-.2-.3h.4l-.1-.4h.3c-.6-1.1 0-2 .3-3zm.7-2s.1.8-.3 1.1c-.1.1-.4.1-.3.3.1.2.2.2.4.1.4-.1 1-1.1.2-1.5z"/><circle fill="#fff" cx="42.6" cy="21.8" r=".2"/><path fill="#D81F26" stroke="#010101" stroke-width=".097" d="M42.1 22.5c-.1.1-.7.7-.1.9.6-.2.4-.3.6-.4-.1-.3-.4-.3-.5-.5z"/><path fill="#9CA69C" stroke="#9CA69C" stroke-width=".097" d="M43.4 28.3c0 .1-.2.6 0 1 .5-.2.8-.2.9 0-.4-.3-.6-.5-.9-1z"/><path fill="#fff" stroke="#fff" stroke-width=".097" d="M44.2 30.7v1.2s.4.1.6 0c.3-.1.1-.9-.6-1.2z"/><path fill="#9CA69C" stroke="#010101" stroke-width=".097" d="M47.2 30.8s-.7-1.8-2.6-2.3c-1.9-.5-1.7-2.5-1.5-2.6.1-.2.1-.4.7-.2.5.3 3.1 1.5 3.4 1.6.3.1 0 3.6 0 3.5z"/><path fill="#D81F26" stroke="#010101" stroke-width=".097" d="M45.4 28.6s2.5 1.5 1.8 2.8c.7-.5.5-1.3.5-1.3s.6 1.6-.9 2.3c.2.1.3.1.3.1l-.2.2s-.1.2.9-.3c-.3.2-.3.4-.3.4s.1.2.7-.4c-.5.6-.6.8-.6.8 1.4-.1 4.4-4.7-1-6 .3.3.2.3.2.3l-1.4 1.1z"/><path fill="#fff" stroke="#010101" stroke-width=".097" d="M45.5 28.1c.4.2.5.3.5.5-.3-.1-.6-.1-.6-.1s-.7-.7-.8-.7c-.1 0-.6-.3-.6-.3-.3-.1-.5-1.1.5-.8 1 .5 1.2.5 1.2.5l1.2.4.7.8s-1.3-.6-1.4-.6c.3.3.5.7.5.7-.5-.2-.8-.3-1.2-.4z"/><path fill="#010101" stroke="#fff" stroke-width=".097" d="M40.6 22.6s1.2-.3 1.3-.2"/></svg>
