<svg xmlns="http://www.w3.org/2000/svg" viewBox="0 0 841.89 595.28"><path style="fill:#1d1d1b" d="M0 0h841.89v595.28H0z"/><path d="M535.46 315.05c.13-1.24.21-2.5.21-3.78 0-19.28-15.97-34.9-35.69-34.9s-35.69 15.62-35.69 34.9 15.98 34.9 35.69 34.9c14.99 0 27.81-9.04 33.1-21.84l-15.38-2.7c-3.41 6.23-9.85 10.44-17.23 10.44-9.77 0-17.88-7.35-19.51-17.02h54.51Zm-34.99-24.2c8.36 0 15.5 5.38 18.42 13h-36.84c2.91-7.62 10.06-13 18.42-13Zm-64-13.02h18.22v67.08h-18.22zm9.11-27.34c-5.61 0-10.16 4.55-10.16 10.16s4.55 10.16 10.16 10.16 10.17-4.55 10.17-10.16-4.55-10.16-10.17-10.16m-120.67 5.83v36.11h-39.29v-36.11h-19.93v88.54h19.93v-36.11h39.29v36.11h19.93v-88.54h-19.93zm82.26 21.54v3.6c-5.29-3.21-11.5-5.05-18.15-5.05-19.33 0-35 15.61-35 34.88s15.67 34.89 35 34.89c6.48 0 12.54-1.76 17.73-4.81v3.5h17.79v-67h-17.37Zm-17.26 53.61c-11.27 0-20.41-9.03-20.41-20.17s9.14-20.18 20.41-20.18 20.4 9.03 20.4 20.18-9.14 20.17-20.4 20.17Zm183.45-59.88c-16.77 2.94-29.53 17.55-29.73 35.16v38.16h17.45v-38.88c.01-8.91 6.69-16.25 15.31-17.31l-3.02-17.13Z" style="fill:#fff"/></svg>
