<svg xmlns="http://www.w3.org/2000/svg" viewBox="0 0 3906.5 291.4" style="enable-background:new 0 0 3906.5 291.4" xml:space="preserve"><path d="m2182.3 27.9 35.1 168h-50.7l-7.5-36H2098l-21.6 36h-56.1l23.3-36h-56.2l165.6-30-5.2-24.2-4.4-21.7-9.2 15.4 10.6 3.9h-64.6l48.7-75.2 53.4-.2zm317 0h-122.6c.6.7 1 1.3 1.1 1.8.7 1.7.7 2.9.9 4.2.4 2.4.9 2.8.6 4.7-.6 3.6-1.2 3.3-2.3 5.4-1.1 2.2-1.8 4.7-2 5.4 0 .1.1.2.2.2.4 0 1.2.1 1.2 1.3.1 1.6-1.8 4.8-2.4 5.7-.5.9-1.7 2.8-2.7 3.4-1.8 1-2.3.4-2.5.9s-2 3.8-2.3 4.7c-.3 1.1-.5 2.5-.6 3.5 0 .2.1.3.2.4 3.5 1.4 12.7 4.6 14.9 8.4l-31 10c4.3-.5 9.1-1.1 13.3-1.6 5.8-.7 15.1-1.7 18.1-1.7 3 0 6.6.8 7.7.9 3.6.5 6.9.6 10.8 1.4 3.9.8 5 2.2 5.8 2.7.2.1.9.8.9.8 4.8-.3 12.2-.8 13.7-.9.8-.1 2.4-.2 2.8-.2 14.9-1.9 23.1-9 30.2-13.4 7.9-4.8 19.7-8.7 28.2-8.9 10.9-.3 18.8 1.6 24.1 6.3 5.2 4.8 7.3 11.1 5.2 20.6-2 9.2-5 13.4-11.7 17.6-6.8 4.2-14.2 5.6-23.1 4.7-14.7-1.3-27.8-10.5-33-13.5-4.5-2.6-10.6-5.3-17.5-5.9-.7-.1-2.7-.1-4 0-.5 0-6.1.4-9.6.7.4 1.3.5 2.4.5 2.6-.1 1.8-1.1 2.7-2.2 2.5-1-.1-3.5-2-4.3-3.6-.1-.1-.3-.2-.3 0v.8c-.1.5-.3 2-1.4 2.3-.9.2-2.3 0-3.2-.8-.3-.2-.7-.1-.8.2-.4 1.1-.6 1.7-2.7 1.3-1.4-.2-1.1.4-2 .6-2.2.4-3.3-.8-5-1.6-1.8-.8-1.2-2.5-2.9-2.8-.3-.1-.9-.2-1.2-.2.9 3 2 6.7 2.8 12.6 0 .2-.1.3-.3.3l-1.8.2c-.2 0-.3.2-.2.3.4 2.3 1.6 6.6 1.8 9.7.4 5.6.4 7.3 0 10.1 0 .2.1.4.3.3.6-.1 1.5-.4 2.1-.8 0-1.2.5-3.1.6-3.3.2-.2.4-.5.6-.7.2-.2.3-.4.3-.6l.5-1.6c.1-.2.2-.5.3-.7l2.4-4.4s.6-1.2 1.6-.9c0 0 1.6.9 1.6 2.5 0 1.7-1.2 3.7-1.2 3.7l1 1.6s1.9.6 3.7-.7c0 0 .5-.3 1.6-1.2-.4-1.2.6-2.8 3.6-2.2 1 .4 3.9 2.7.3 5.1-.1.1-.1.3.1.3 3.9-.2 3.4 4.5.8 5.9-.2.1-.3.4-.1.6.4.6 1 1.6.9 2.5 0 0 0 1.2-3.8 2.6 0 0-1.2.5-.7 1.3.5.2 1 .4 1.6.5 0 0 3.5.8 2.8 2.7 0 0-.6 1.6-3.9.6 0 0-2 .1-3.2-.1-.6.2-3.2 1-6.3 1.6-.7.1-1.3.5-1.8 1.1-2.1 2.4-8.6 5.8-11.5 5.8-3.2 0-3.6-2.4-6-4.9-4.6-4.8-5.3-10.7-6-16.6-.1-.4-.6-.4-.7 0-.8 6.9-1.2 13.2-5.1 16.6-2.3 2.1-6 3.7-12 5.1-22.6 5.3-46.8 19.2-44.1 22.3 1.1 1.2 3.6-1.2 8.1-3.3 16.8-7.7 38.6-9.3 45.6-8.7.5 0 .9.4 1 1 .1.8.4 2.4 1.1 5 .6 2.2 1.3 6 3.6 8.2 4.2 3.9 3.6 5.4 2.6 10.6-.6 3.4 4.1 6.3 4.2 6.4h48.5l7.5-36h49.2c50.3 0 72.7-23 81.2-67 3.6-19.8 3.5-64.3-62.3-64.3zm-216.3 168c.7-.7 1.5-1.6 2.4-2.5 2.1-2.2.5-7.7.9-9.8.5-2.8 5.3-4.2 6.1-6.9 1-3.7-6.3-3.1-2.8-7 2.2-2.4 5.4-1.6 5.1-4-.3-3.9 3.4-6.5 5.1-7.8 7-5.3 22.6-13.6 32.1-16.4 9.9-2.9-3.8-2.6-15.1 1.5-10.3 3.8 13.3-11 32-15.7 13.3-3.3-9.8-4-31 5.4-6.8 3-10.5 4.8-13.2 6.5-.1.1-.2 0-.2-.2 1.1-2.1 3.3-5.8 2.6-9.6-.4-2.5-.2-5.3.9-7.2.8-1.5.3-5.6 1.2-7.8.1-.2.3-.2.4-.2l11.4 3.6 44.6-15.2-42.5 6.3-14.7-12.6c-2.1-2.2-4.2-10.9-2.1-14.1 3.1-4.6 6.3-8.1 7.7-9.3 2-1.8 8.1-2.5 11.2-4 3.4-1.7 6.1-.5 8.5-.9 2.3-.5 6.5-1.9 7.8-2.4.1 0 .1-.1.1-.1 0-.5-.1-2.2-.2-2.9-.7-3.1-1-6-.8-8.2.2-2.6 2.6-5 2.7-6.7.1-1.8-1.2-3.6-.2-5.3.9-1.6 1.2-2.8 2.2-6.2-.3-2-1.5-2.7-.6-4.8.5-1.1 1.3-2.6 1.7-3.4h-155.2l8.9 42.6h61.2l-6.7 32.7h46.1l-94.1 17 44.5-.1-15.6 75.7h47.6zm163.8-97.3c1 .5 2.3-.3 2.3-1.6.1-4.2.8-6.2 1.7-9.6.4-1.4-.8-2.4-1.9-1.8-6.8 3.7-11.8 5.2-14.8 5.9-.3.1-.9.5-.9 1.1 0 .6.3.9.7 1 2.9.7 7.3 2.1 12.9 5zm95.8 90.2h-2.8l.3-1.6h7.5l-.3 1.6h-2.8l-1.4 7h-2l1.5-7zm16-1.6-1.7 8.7h-1.9l1-5.1-3.3 4.2h-.9l-1.8-4.3-1 5.2h-1.9l1.7-8.7h1.6l2.2 5.4 4.2-5.4h1.8zm63.8-159.3h73.8c43.2 0 65.4 18.6 65.4 48.8 0 21.7-9.4 36.5-29.1 40.1v.5c20.4 3.1 28.1 17.4 28.1 37.5V196h-30.9v-40.6c0-16.9-6.9-26-29.4-26h-47.2V196h-30.6V27.9h-.1zm74.4 81.3c24.8 0 35.5-10.7 35.5-28.6 0-16.9-11.8-27.1-36.3-27.1h-42.9v55.7h43.7zm204.8 49h-78.4l-14.3 37.8h-31.7l68.4-168h37.3l68.2 168h-35.5l-14-37.8zm-7.7-20.4L2862.8 54h-.5l-31.4 83.8h63zm76.6-109.9h46l79.9 127.7h.5l-.5-127.7h28.9v168H3089l-89.6-142.5h-.2l.2 142.5h-28.9v-168zm184.9 0h30.6v93.2h.5l88.9-93.2h38l-74.6 76.9L3318 196h-40.9l-59.8-71.5-31.4 30.6V196h-30.6V27.9zm181.6 0h30.4v168H3337v-168zm61.8 0h46l79.9 127.7h.5l-.5-127.7h28.9v168h-36.3l-89.6-142.5h-.2l.2 142.5h-28.9v-168zm179 85.9c0-53.9 37.3-88.4 86.8-88.4 42.4 0 74.3 22.7 74.3 61 0 2.8-.3 6.9-.5 10h-27.3c.3-3.1.3-5.9.3-8.2 0-23.7-20.4-37.3-46.2-37.3-32.4 0-56.4 24.3-56.4 63.1s24.8 60.8 55.2 60.8c26.8 0 46.7-15.6 46.7-38.3v-3.8h-52.1v-19.4h81.7V196h-25.5c.5-6.6 1.3-18.6 1.5-30.1h-.3c-5.1 19.4-24 32.7-54.6 32.7-48.1-.1-83.6-32.2-83.6-84.8zm185.4 24.7h27.6c0 21.4 10.2 36.3 42.4 36.3 34.2 0 42.9-12.8 42.9-26.6 0-9.2-3.8-14.6-11.7-17.4-8.4-3.3-26.6-5.6-41.1-7.7-16.9-2.3-34.7-6.1-43.9-12-10.2-6.4-16.6-17.9-16.6-33.7 0-30.6 26.3-52.1 70.2-52.1 49.8 0 67.9 22 67.9 60.3h-27.6c0-24.8-13.5-36.5-39.8-36.5-26.3 0-40.3 10.5-40.3 25.8 0 9.4 3.3 15.1 10 18.1 7.4 3.6 26.3 6.6 40.9 8.7 17.6 2.8 34 5.6 44.4 11.2 11.5 5.9 18.1 17.6 18.1 33.2 0 27.1-15.8 52.3-73 52.3s-70.4-29.2-70.4-59.9z"/><path d="M283.3 55.9C230.4 25.5 120.3 1.6 62 .1 3.7-1.5-2.8 19.3.8 66.6 4.4 113.9 18 187.7 48.1 234.8c30.1 47.1 76.6 67.6 125.9 50.7 49.3-16.9 101.4-71.2 129.6-116.8 28.2-45.5 32.6-82.4-20.3-112.8" style="fill:#0063fa"/><path d="M179.8 185.8h-37.1v61.7H105V110.3h37.8V148h37.1v-.1c15.6-.3 28.1-12.9 28.1-28.6S195.5 91 179.9 90.7h-122L71.6 53h108.2c36.7 0 66.5 29.8 66.5 66.5s-29.8 66.3-66.5 66.3" style="fill:#fff"/><path d="M485 161.4c6-3.7 10.8-8.8 14.3-15.3s5.2-13.9 5.2-22.1-1.7-15.5-5.2-22c-3.5-6.4-8.2-11.5-14.3-15.3-6-3.7-12.9-5.6-20.8-5.6-7.5 0-14.3 1.8-20.3 5.5s-10.7 8.7-14.1 15.2c-3.4 6.5-5.1 13.9-5.1 22.2 0 8.4 1.7 15.8 5.1 22.2 3.4 6.5 8.1 11.5 14.1 15.2 6 3.7 12.8 5.5 20.3 5.5 7.8 0 14.8-1.8 20.8-5.5M390.5 52.9h32.2v16.7c5.1-6.3 11.5-11.2 19.4-14.6 7.8-3.5 16.6-5.2 26.4-5.2 13.6 0 25.8 3.3 36.6 9.8 10.8 6.5 19.4 15.4 25.6 26.7 6.3 11.2 9.4 23.8 9.4 37.8s-3.1 26.5-9.4 37.8c-6.3 11.2-14.8 20.1-25.6 26.7-10.8 6.5-23.1 9.8-36.9 9.8-8.7 0-16.8-1.4-24.3-4.3s-13.9-7-19.1-12.4v65.9h-34.3V52.9zm207.8 32.8c-6.2 5.1-10.2 12.4-12.2 21.8H653c-.7-8.7-4.1-15.8-10.1-21.3S629.3 78 620.3 78c-8.4 0-15.8 2.6-22 7.7m-13.7 102.7c-11-6.6-19.5-15.6-25.6-26.9-6.1-11.3-9.2-23.9-9.2-37.7 0-14.3 3.1-27 9.3-38 6.2-11.1 14.6-19.8 25.4-26.3 10.7-6.4 22.7-9.7 36-9.7 14.8 0 27.4 3.2 37.7 9.5 10.3 6.4 18.1 14.8 23.5 25.2 5.4 10.5 8.1 22.1 8.1 34.8 0 2.6-.1 5.2-.4 7.7-.3 2.5-.7 4.7-1.4 6.7H585.4c1 10.5 5.1 18.8 12 25.1 7 6.3 15.6 9.4 25.9 9.4 7.8 0 14.5-1.7 20-5.1 5.5-3.4 9.8-7.8 12.9-13.2l27.7 13.6c-4.4 10.1-12 18.4-22.9 25-10.9 6.5-23.6 9.8-38 9.8-14.6 0-27.4-3.3-38.4-9.9m216.1-27c6-3.7 10.8-8.8 14.3-15.3s5.2-13.9 5.2-22.1-1.7-15.5-5.2-22c-3.5-6.4-8.2-11.5-14.3-15.3-6-3.7-12.9-5.6-20.8-5.6-7.5 0-14.3 1.8-20.3 5.5s-10.7 8.7-14.1 15.2c-3.4 6.5-5.1 13.9-5.1 22.2 0 8.4 1.7 15.8 5.1 22.2 3.4 6.5 8.1 11.5 14.1 15.2 6 3.7 12.8 5.5 20.3 5.5 7.8 0 14.7-1.8 20.8-5.5M706.1 52.9h32.2v16.7c5.1-6.3 11.5-11.2 19.4-14.6 7.8-3.5 16.6-5.2 26.4-5.2 13.6 0 25.8 3.3 36.6 9.8 10.8 6.5 19.4 15.4 25.6 26.7 6.3 11.2 9.4 23.8 9.4 37.8s-3.1 26.5-9.4 37.8c-6.3 11.2-14.8 20.1-25.6 26.7-10.8 6.5-23.1 9.8-36.9 9.8-8.7 0-16.8-1.4-24.3-4.3s-13.9-7-19.1-12.4v65.9h-34.3V52.9zm260.6 108.5c6-3.7 10.8-8.8 14.3-15.3s5.2-13.9 5.2-22.1-1.7-15.5-5.2-22c-3.5-6.4-8.2-11.5-14.3-15.3-6-3.7-12.9-5.6-20.8-5.6-7.5 0-14.3 1.8-20.3 5.5s-10.7 8.7-14.1 15.2c-3.4 6.5-5.1 13.9-5.1 22.2 0 8.4 1.7 15.8 5.1 22.2 3.4 6.5 8.1 11.5 14.1 15.2 6 3.7 12.8 5.5 20.3 5.5 7.9 0 14.8-1.8 20.8-5.5M872.2 52.9h32.2v16.7c5.1-6.3 11.5-11.2 19.4-14.6 7.8-3.5 16.6-5.2 26.4-5.2 13.6 0 25.8 3.3 36.6 9.8 10.8 6.5 19.4 15.4 25.6 26.7 6.3 11.2 9.4 23.8 9.4 37.8s-3.1 26.5-9.4 37.8c-6.3 11.2-14.8 20.1-25.6 26.7-10.8 6.5-23.1 9.8-36.9 9.8-8.7 0-16.8-1.4-24.3-4.3s-13.9-7-19.1-12.4v65.9h-34.3V52.9zm207.9 32.8c-6.2 5.1-10.2 12.4-12.2 21.8h66.9c-.7-8.7-4.1-15.8-10.1-21.3s-13.6-8.2-22.6-8.2c-8.5 0-15.8 2.6-22 7.7m-13.8 102.7c-11-6.6-19.5-15.6-25.6-26.9-6.1-11.3-9.2-23.9-9.2-37.7 0-14.3 3.1-27 9.3-38 6.2-11.1 14.6-19.8 25.4-26.3 10.7-6.4 22.7-9.7 36-9.7 14.8 0 27.4 3.2 37.7 9.5 10.3 6.4 18.1 14.8 23.5 25.2 5.4 10.5 8.1 22.1 8.1 34.8 0 2.6-.1 5.2-.4 7.7-.3 2.5-.7 4.7-1.4 6.7h-102.5c1 10.5 5.1 18.8 12 25.1 7 6.3 15.6 9.4 25.9 9.4 7.8 0 14.5-1.7 20-5.1s9.8-7.8 12.9-13.2l27.7 13.6c-4.4 10.1-12 18.4-22.9 25-10.9 6.5-23.6 9.8-38 9.8-14.7 0-27.5-3.3-38.5-9.9m121.6-135.5h32.2V73c3.7-8.2 8.8-13.9 15.4-17 6.6-3.1 14.3-4.7 23-4.7h8.4v30.3h-12.3c-9.6 0-17.4 3-23.4 9s-9 14.4-9 25.2V195h-34.3V52.9zm102.6 134.4c-11.2-7.3-19-17.1-23.1-29.3l25.6-12.3c3.8 8 9 14.3 15.4 18.8s13.7 6.8 21.7 6.8c6.1 0 11-1.3 14.8-4.1 3.7-2.7 5.6-6.4 5.6-11.1 0-4-1.6-7.2-4.8-9.5-3.2-2.4-7.1-4.1-11.6-5.4l-23.3-6.5c-12-3.5-21.1-8.8-27.3-15.9-6.2-7.1-9.3-15.6-9.3-25.4 0-8.7 2.2-16.3 6.7-22.9 4.4-6.5 10.6-11.6 18.6-15.3 7.9-3.7 17-5.5 27.3-5.5 13.4 0 25.3 3.3 35.6 9.8 10.3 6.5 17.6 15.6 22 27.1l-26.1 12.3c-2.3-6.4-6.3-11.6-12.2-15.4-5.8-3.8-12.3-5.8-19.5-5.8-5.8 0-10.3 1.3-13.6 3.9-3.3 2.6-5 6-5 10.2 0 4 1.6 7.2 4.7 9.4 3.1 2.3 7.1 4.1 12 5.5l22.8 6.8c11.9 3.3 20.9 8.5 27.2 15.7 6.3 7.1 9.4 15.7 9.4 25.6 0 8.5-2.3 16.1-6.8 22.6s-10.8 11.6-18.8 15.3c-8 3.7-17.4 5.5-28.2 5.5-15.4.1-28.6-3.6-39.8-10.9m138.7-3.9c-8.8-8.9-13.2-21.3-13.2-37.1V83.5h-24.6V52.9h2.6c7 0 12.4-1.8 16.2-5.5 3.8-3.7 5.8-9 5.8-16v-21h34.3v42.5h32.7v30.6h-32.7v60.9c0 7.1 1.9 12.6 5.8 16.5 3.8 3.8 9.9 5.8 18.3 5.8 2.8 0 5.8-.3 9.2-.8v29.3c-2.4.3-5.2.7-8.4 1-3.1.3-6 .5-8.6.5-16.2 0-28.6-4.4-37.4-13.3m155-22c5.8-3.7 10.5-8.8 13.9-15.3 3.4-6.5 5.1-13.9 5.1-22.1 0-8.2-1.7-15.5-5.1-22-3.4-6.4-8-11.5-13.9-15.3-5.8-3.7-12.6-5.6-20.3-5.6-7.7 0-14.5 1.9-20.5 5.6-6 3.8-10.7 8.9-14.1 15.3-3.4 6.5-5.1 13.8-5.1 22s1.7 15.6 5.1 22.1c3.4 6.5 8.1 11.6 14.1 15.3 6 3.7 12.9 5.5 20.5 5.5 7.7 0 14.4-1.8 20.3-5.5m-58.4 27.2c-11.4-6.4-20.5-15.3-27.2-26.4s-10.1-23.9-10.1-38.2c0-14.3 3.4-27 10.1-38.2 6.7-11.2 15.7-20 27.1-26.4 11.3-6.4 24.1-9.7 38.2-9.7 13.9 0 26.6 3.2 37.9 9.7 11.3 6.4 20.4 15.3 27.1 26.4 6.7 11.2 10.1 23.9 10.1 38.2 0 14.3-3.4 27.1-10.2 38.3-6.8 11.2-15.9 20-27.2 26.4-11.3 6.4-23.9 9.5-37.7 9.5-14 .1-26.6-3.1-38.1-9.6m129.5-135.7h32.2v17.5c3.8-6.8 9.3-11.9 16.3-15.4 7.1-3.5 15-5.2 23.9-5.2 10.5 0 19.7 2.3 27.9 6.8 8.1 4.5 14.4 10.9 19 19 4.5 8.1 6.8 17.5 6.8 28.1v91.5h-34.3v-83.4c0-9.4-2.7-16.9-8-22.4s-12.2-8.2-20.8-8.2c-8.5 0-15.5 2.8-20.8 8.4-5.3 5.6-8 13-8 22.2v83.4h-34.3V52.9zm189.4 32.8c-6.2 5.1-10.2 12.4-12.2 21.8h66.9c-.7-8.7-4.1-15.8-10.1-21.3s-13.6-8.2-22.6-8.2c-8.4 0-15.8 2.6-22 7.7M1831 188.4c-11-6.6-19.5-15.6-25.6-26.9-6.1-11.3-9.2-23.9-9.2-37.7 0-14.3 3.1-27 9.3-38 6.2-11.1 14.6-19.8 25.4-26.3 10.7-6.4 22.7-9.7 36-9.7 14.8 0 27.4 3.2 37.7 9.5 10.3 6.4 18.1 14.8 23.5 25.2 5.4 10.5 8.1 22.1 8.1 34.8 0 2.6-.1 5.2-.4 7.7-.3 2.5-.7 4.7-1.4 6.7h-102.5c1 10.5 5.1 18.8 12 25.1 7 6.3 15.6 9.4 25.9 9.4 7.8 0 14.5-1.7 20-5.1 5.5-3.4 9.8-7.8 12.9-13.2l27.7 13.6c-4.4 10.1-12 18.4-22.9 25-10.9 6.5-23.6 9.8-38 9.8-14.7 0-27.5-3.3-38.5-9.9"/></svg>
