<svg xmlns="http://www.w3.org/2000/svg" viewBox="0 0 156.3 98.6" style="enable-background:new 0 0 156.3 98.6" xml:space="preserve"><path d="M153.4 55.7V55h.7c.2 0 .4.1.4.3 0 .2-.1.3-.4.3h-.7zM153 57h.4v-1h.5l.6 1h.4l-.6-1c.3 0 .5-.3.5-.6 0-.4-.2-.7-.8-.7h-1V57zm-1.2-1.1c0 1 .7 2 2 2s2-1 2-2-.7-2-2-2-2 1-2 2m2.1 2.4c-1.6 0-2.4-1.2-2.4-2.4s.8-2.4 2.4-2.4c1.6 0 2.4 1.2 2.4 2.4s-.8 2.4-2.4 2.4m-11.4 11.4c0-4.2 2.1-6 5-6 3.5 0 5.2 2.5 5.2 6s-1.8 6-5.2 6c-2.9 0-5-1.8-5-6m-3.3 14.7h3.3v-8.2c1.2 1.7 3.1 2.6 5.7 2.6 5 0 8.1-4 8.1-9.1s-3.1-9.1-8.1-9.1c-2.6 0-4.5.9-5.7 2.7V61h-3.2v23.4zm-16.9-14.7c0-3.2 1.8-5.9 5.4-5.9 3.6 0 5.4 2.7 5.4 5.9s-1.8 5.9-5.4 5.9c-3.6.1-5.4-2.6-5.4-5.9m5.3 9.1c5.8 0 8.9-4.3 8.9-9.1s-3.1-9.1-8.9-9.1c-5.8 0-8.9 4.3-8.9 9.1 0 4.9 3.1 9.1 8.9 9.1m-18.1-.3h3.3v-8.6c0-5.1 3.7-5.8 5.9-5.9v-3.3c-2.8-.2-4.9 1.4-5.9 3.3v-3h-3.2v17.5zm-19-8.8c0-3.5 1.8-6 5.2-6 2.9 0 5 1.8 5 6s-2.1 6-5 6c-3.4 0-5.2-2.5-5.2-6m4.6 9.1c2.7 0 4.6-.9 5.8-2.8.3 1.9 1.7 2.7 3.8 2.7.9 0 1.7-.1 2.6-.5v-2.7c-.5.1-1 .2-1.4.2-1.7 0-1.7-.7-1.7-1.9V54h-3.3v9.3c-1.2-1.7-3.1-2.6-5.7-2.6-5 0-8.1 4-8.1 9.1-.2 5 2.9 9 8 9m-17.4-.3H81v-8.6c0-5.1 3.7-5.8 5.9-5.9v-3.3c-2.8-.2-4.9 1.5-5.9 3.3v-3h-3.2v17.5zM61.1 68.3c.5-2.9 2.4-4.6 5.2-4.6 2.6 0 4.4 1.4 4.6 4.6h-9.8zm11.7 8.9V74c-2 1.1-3.9 1.6-5.7 1.6-3.7 0-5.7-1.7-6.1-4.7h13.4c0-.4.1-.8.1-1.3 0-6.1-3.6-8.9-8-8.9-5.8 0-9 4.3-9 9.1 0 5.6 3.6 9 9.1 9 1.7 0 4.1-.2 6.2-1.6m-19.2 1.6c1.4 0 2.4-.2 3.5-.6v-2.8c-.9.2-1.9.3-2.7.3-1.8 0-2.7-.5-2.7-2.6v-9.3h4.8V61h-4.8v-5.2h-3.3V61h-2.8v2.9h2.8v9.7c0 3.5 1.5 5.2 5.2 5.2m-22.1-5.6c0-2 1.4-3 3.8-3h4.5c-.2 3.8-2.2 5.8-5.1 5.8-2.2 0-3.2-1.2-3.2-2.8m14.8 5.1v-2.7c-.5.1-1 .2-1.4.2-1.7 0-1.7-.7-1.7-1.9v-6.2c0-3.9-1.6-7.1-7-7.1-2.5 0-4.6.6-6.4 1.5v3.1c2.1-1 4.4-1.5 6.1-1.5 3.2 0 3.9 1.9 4 4H35c-4.2 0-7 2-7 5.6 0 3.5 2.5 5.4 6 5.4 2.4 0 4.5-.7 5.9-2.8.4 1.8 1.7 2.7 3.8 2.7.9.1 1.7 0 2.6-.3m-39.4.5c2.4 0 4.6-1.2 5.8-3.5 1.2 2.3 3.4 3.5 5.8 3.5 5 0 6.9-3.3 6.9-6.9V61H22v10.7c0 2.7-1.4 4-3.8 4s-3.8-1.3-3.8-4V61H11v10.7c0 2.7-1.4 4-3.8 4s-3.8-1.3-3.8-4V61H0v10.9c0 3.6 1.9 6.9 6.9 6.9M81 39.3c-.1-1.4-.1-1.8 0-3.1.1-2 .9-2.8 2.9-3 .9-.1 1.5-.1 2.1-.1 1.8 0 3 .1 4 2.1 1.2 2.3 2.1 4.3 2.1 5.5 0 1.2-.7 1.6-2 1.7-2.3.1-4.5.1-6.4 0-1.8-.2-2.6-1.3-2.7-3.1m-2 .1c.1 2.8 1.7 4.8 4.6 4.9 2 .1 4.4.1 6.8 0 2.3-.1 3.6-1.4 3.6-3.4 0-1.9-1-4.1-2.3-6.6-1.5-3-3.6-3.1-5.7-3.1-.7 0-1.5 0-2.4.1-2.8.1-4.5 1.9-4.6 4.7v3.4m0-17.1c0 .7 0 1.5.1 2.4.1 2.8 1.9 4.5 4.7 4.6 1.5.1 2 .1 3.5 0 2.8-.1 4.8-1.7 4.9-4.6.1-2 .1-4.4 0-6.8-.1-2.3-1.4-3.6-3.4-3.6-1.9 0-4.1 1-6.6 2.3-3.1 1.5-3.2 3.6-3.2 5.7m-13 20c-.1-2.3-.1-4.5 0-6.4.1-1.8 1.2-2.7 3.1-2.8 1.4-.1 1.8-.1 3.1 0 2 .1 2.8.9 3 2.9.1.9.1 1.5.1 2.1 0 1.8-.1 3-2.1 4-2.3 1.2-4.3 2.1-5.5 2.1-1.2.1-1.6-.6-1.7-1.9m-2-22.5c0-1.2.7-1.6 2-1.7 2.3-.1 4.5-.1 6.4 0 1.8.1 2.7 1.2 2.8 3.1.1 1.4.1 1.8 0 3.1-.1 2-.9 2.8-2.9 3-.9.1-1.5.1-2.1.1-1.8 0-3-.1-4-2.1C65 23 64 21 64 19.8m0 22.8c.1 2.3 1.4 3.6 3.4 3.6 1.9 0 4.1-1 6.6-2.3 3-1.5 3.1-3.6 3.1-5.7 0-.7 0-1.5-.1-2.4-.1-2.8-1.9-4.5-4.7-4.6-1.5-.1-2-.1-3.5 0-2.8.1-4.8 1.7-4.9 4.6.1 2 .1 4.3.1 6.8m-1.9-23c0 1.9 1 4.1 2.3 6.6 1.5 3 3.6 3.1 5.7 3.1.7 0 1.5 0 2.4-.1 2.8-.1 4.5-1.9 4.6-4.7.1-1.5.1-2 0-3.5-.1-2.8-1.7-4.8-4.6-4.9-2-.1-4.4-.1-6.8 0-2.2.2-3.6 1.5-3.6 3.5M84 27.3c-2-.1-2.8-.9-3-2.9-.1-.9-.1-1.5-.1-2.1 0-1.8.1-3 2.1-4 2.3-1.2 4.3-2.1 5.5-2.1 1.2 0 1.6.7 1.7 2 .1 2.3.1 4.5 0 6.4-.1 1.8-1.2 2.7-3.1 2.8-1.4 0-1.8 0-3.1-.1"/></svg>
