<svg xmlns="http://www.w3.org/2000/svg" width="85" height="57"><path fill="#FFF" d="M-.02.153h85.04v56.693H-.02z"/><path fill="#CE2028" d="M42.5 24.417 79.068.153H5.934M42.5 32.58 5.934 56.848h73.134"/><path fill="#2AB34B" d="M35.006 28.5-.02 5.4v46.406M49.996 28.5 85.02 5.4v46.406"/><circle fill="#FFF" cx="42.5" cy="28.499" r="15.621"/><path fill="#2AB34B" d="m44.81 20.706 1.16-2.014h-2.324l-1.162-2.015-1.164 2.015h-2.324l1.162 2.014-1.162 2.012h2.324l1.164 2.015 1.162-2.015h2.325"/><path fill="#CE2028" d="M41.523 22.362h-1.91l.957-1.656-.957-1.658h1.91l.96-1.658.96 1.658h1.912l-.957 1.658.957 1.656h-1.912l-.96 1.66"/><path fill="#2AB34B" d="m37.64 32.896 1.163-2.012H36.48l-1.166-2.018-1.162 2.018h-2.324l1.16 2.012-1.16 2.01h2.324l1.162 2.02 1.165-2.02h2.323"/><path fill="#CE2028" d="M34.355 34.552h-1.91l.955-1.656-.955-1.657h1.91l.96-1.66.958 1.66h1.913l-.957 1.656.956 1.656h-1.913l-.96 1.658"/><path fill="#2AB34B" d="m52.014 32.896 1.16-2.012H50.85l-1.162-2.018-1.165 2.018H46.2l1.16 2.012-1.16 2.01h2.323l1.165 2.02 1.162-2.02h2.324"/><path fill="#CE2028" d="M48.727 34.552h-1.91l.956-1.656-.957-1.657h1.91l.962-1.66.958 1.66h1.913l-.958 1.656.957 1.656h-1.914l-.958 1.658"/></svg>
