<svg xmlns="http://www.w3.org/2000/svg" width="87" height="57"><path fill="#253D95" d="M-1-.1h89v57H-1z"/><path fill="#DF1F28" d="M-1 14.2h89v28.5H-1z"/><path d="M35.443 26.766h16.2v6.2h-16.2v-6.2zm15.4 3.4h.5v2.3h-.5zm-15.4-1.1h16.2v.7h-16.2zm0-1h16.2v.6h-16.2zm0-1h16.2v.6h-16.2zm4.3 3.1h.5v2.3h-.5zm7 0h.5v2.3h-.5zm-11.1 0h.5v2.3h-.5zm1 0h.5v2.3h-.5zm1 0h.5v2.3h-.5zm1.1 0h.5v2.3h-.5zm8.9 0h.5v2.3h-.5zm1.1 0h.5v2.3h-.5zm1.1 0h.5v2.3h-.5zm-20.7 3.2c.3-.1.5-.4.6-.8h27.5c.1.3.4.6.6.8h-28.7z" fill="#fff" stroke="#010101"/><g stroke="#010101"><path d="M43.143 17.266s0-.6.3-.6l.3.6h-.6zm-1.8 7.8v-.8c0-.4-.4-.4-.4-.7 0 0 0-.4.1-.6.2.6.4.5.4.2 0-.2-.2-.4-.5-.9-.1-.2 0-.7.1-.8.1.4.1.6.3.6.1 0 .2-.1.2-.3 0-.3-.2-.4-.3-.7-.1-.3 0-.6.1-.8.1.4.1.6.2.6.4-.1 0-.7-.1-.8-.1-.2.1-.5.1-.5.1.4.2.4.3.4.2 0 .1-.3-.1-.5-.1-.1-.1-.3 0-.5.1.3.3.3.3.1l-.1-.6h2.5l-.1.6c0 .2.2.2.3-.1.1.2.2.3 0 .5s-.2.4-.1.5c.1 0 .2 0 .3-.4 0 0 .2.2.1.5-.1.1-.5.7-.1.8.2 0 .2-.2.2-.6.2.2.3.5.1.8-.1.3-.3.4-.3.7 0 .2.1.3.2.3.2 0 .3-.2.3-.6.1.2.2.7.1.8-.3.5-.5.7-.5.9 0 .2.3.3.4-.2.1.2.1.6.1.6 0 .3-.4.3-.4.7v.8h-3.7zm1.1-6.6-.1-.4h2.3l-.1.4h-2.1zm.1-.4v-.4h1.9v.4h-1.9zm.3-.4v-.4h1.3v.4h-1.3zm4.7 15.7c-.3-.1-.7-.4-.7-.7v-3.5l.4-.5h-7.5l.4.5v3.5c0 .3-.3.6-.6.7h8zm-6.5-3.2h.5v2.3h-.5zm4.3 0h.5v2.3h-.5zm-5.8-5.4v4h7.7v-3.9c-.3.1-.4.4-.4.4v1.7h-6.9v-1.7c0-.1 0-.4-.4-.5zm6.7 8.6c-.3-.1-.8-.4-.8-.7v-3.9c.1-.2.3-.3.5-.5h-5.1c.2.1.5.2.6.5v3.9c0 .3-.4.6-.7.7h5.5zm.7-5.1v-2.8h-.7v-.3h-5.5v.3h-.7v2.8h6.9zm-1.8 5.1c-.2-.1-.6-.4-.6-.7v-3.3l.2-.3h-2.5l.2.3v3.3c0 .3-.4.6-.6.7h3.3zm-2.3-4.4h1.3v4.3h-1.3v-4.3zm1.9-.9c0-.3.8-.3 1.3-.5h-5.1c.4.2 1.2.3 1.2.5l.2.6 2.1.1.3-.7zm1-3c0-.7 0-1 .2-1v2.2c-.5.2-.9.9-.9.9h-3.3s-.4-.7-.9-.9v-2.2c.3 0 .3.3.3 1h4.6zm.3-.3c0-.8.7-.9.7-.9v.7c-.3 0-.4.2-.4.6 0 .4.2.4.2.4v2h-.5v-2.8zm-5.1 0c0-.8-.7-.9-.7-.9v.7c.3 0 .4.2.4.6 0 .4-.2.4-.2.4v2h.5v-2.8z" fill="#fff"/><path d="M42.243 19.266h2.4m-2.6.7h3m-3.3 1h3.5m-3.8 1.1h4.2m-4.3 1.3h4.3m-5.6 4.2h6.9m-4.7 0h2.6v.9h-2.6z" fill="none"/><path d="M41.843 25.466c.4.5.4 1.4.4 1.9h2.5c0-.5 0-1.4.4-1.9h-3.3zm1.4-5.9-.3-.2v-.5c.1 0 .3.1.3.3 0-.3.1-.3.3-.4.1.1.2.1.3.4 0-.2.2-.2.3-.3v.5l-.3.2h-.6zm0 .8-.6-.4v-.5c.2 0 .4.1.4.3.1-.3.2-.5.4-.7.2.1.3.3.4.7 0-.2.2-.3.4-.3v.5l-.6.4h-.4zm0 1.3-.6-.6v-.7c.2.1.5.1.5.4.1-.5.2-.8.4-1 .2.2.4.5.4 1 0-.4.3-.4.5-.4v.7l-.6.6h-.6zm1.1.8-.6.8h-.6l-.6-.8h1.8zm-2.1 1.3c.3.2.4.5.4 1.1h1.6c0-.6.1-.9.4-1.1h-2.4zm2.5-1.3v-.8c-.3.1-.5.2-.5.5 0-.3-.4-.9-.7-1.2-.4.3-.7.9-.7 1.2-.1-.2-.3-.4-.5-.5v.8h2.4zm.1 1.3v-.8c-.3.1-.5.2-.6.5 0-.3-.4-.9-.8-1.2-.4.3-.8.9-.8 1.2-.1-.2-.3-.4-.6-.5v.8h2.8zm.4 1.7v-.9c-.4.1-.6.4-.7.5 0-.5-.6-1.3-1-1.5-.4.3-1 1.1-1 1.5-.1-.2-.4-.4-.7-.5v.9h3.4zm-.2 2.1v-1c-.3.1-.4.5-.5.7 0-1-.5-2-1-2.3-.5.3-1.1 1.3-1 2.3-.1-.2-.2-.5-.5-.7v1h3zm-.3 1.4v-1c-.4.1-.4.2-.5.4 0-.6-.4-1.2-.8-1.5-.5.3-.9.9-.8 1.5-.1-.2-.1-.3-.5-.4v1h2.6z" fill="#fff"/></g><path d="M29.743 32.566v-2.9c-.1-.4-.4-.7-.6-.8v-2.6l.5.3.6 2.7v3.3h-.5zm0 0v-2.9c-.1-.4-.4-.7-.6-.8v-2.7c.4 0 .5.5.5.5l.6 2.7v3.3l-.5-.1zm-.4.8c.2-.1.6-.4.6-.7v-3.6l-.2-.3h6.2l-.2.3v3.6c0 .3.2.6.5.7h-6.9zm5.7 0c-.2-.1-.6-.4-.6-.7v-3.5l.5-.5h-4.2l.5.5v3.5c0 .3-.4.6-.6.7h4.4zm-.6 0c-.2-.1-.6-.4-.6-.7v-3.1l.3-.5h-2.7l.3.5v3.1c0 .3-.4.6-.6.7h3.3zm-2.3-4.4h1.3v4.3h-1.3v-4.3zm-1.7 1.2h.5v2.3h-.5zm4.4 0h.5v2.3h-.5zm-4.8-3.9h.6v2.4h-.6v-2.4zm0-.5h.6v.4h-.6v-.4zm5 1h.9v1.9h-.9v-1.9zm-4.4 1.9v-4.1c.2 0 .2.6.6.6.2 0 .2-.3.1-.5s-.2-.4-.1-.9c.1.4.4.5.4.2-.1-.4-.4-.4-.2-1 .1.5.4.5.3.2-.1-.3-.3-.5 0-.9.1.5.3.5.3.2 0-.5 0-1 .6-1.2 0 0 0-.4.3-.4.2 0 .3.4.3.4.6.2.6.7.6 1.2 0 .3.2.4.3-.2.2.5 0 .6 0 .9-.1.3.2.3.3-.2.2.6-.1.7-.2 1-.1.2.3.1.4-.2.2.5 0 .7-.1.9-.1.2-.1.5.1.5.4 0 .4-.6.6-.6v4.1h-4.6zm-1-3.1v3.1h.4v-3.2c-.2 0-.3 0-.4.1zm0 2c.4.2.9.5 1 1.1h-1v-1.1zm6.2-.9v2.1h.3v-2.1c-.1-.1-.3-.1-.3 0zm.3.9c-.4.2-.9.5-1 1.1h1v-1.1zm-3-4.8.3-.2v-.3c-.1 0-.1 0-.2.1-.1-.2-.2-.3-.4-.4-.2.1-.3.2-.4.4-.1-.1-.1-.1-.2-.1v.3l.3.2h.6zm.2.7.1-.3v-.4c-.1 0-.1 0-.2.1-.1-.2-.2-.3-.4-.4-.2.1-.3.2-.4.4-.1-.1-.1-.1-.2-.1v.4l.1.3h1zm0 .9.4-.5v-.5c-.1 0-.2.1-.3.2-.1-.3-.3-.4-.5-.5-.3.2-.5.2-.5.5-.1-.2-.2-.2-.3-.2v.5l.4.5h.8zm.1 1s.4-.4.5-.6v-.5c-.2 0-.3.1-.5.3-.1-.4-.3-.5-.6-.7-.3.2-.5.3-.6.7-.1-.2-.3-.2-.5-.3v.5c.1.2.5.6.5.6h1.2zm.2 1.7s.6-.7.6-.9v-.8c-.2 0-.4.2-.6.5-.1-.6-.4-1.1-.8-1.4-.4.3-.6.8-.8 1.4-.2-.3-.4-.5-.6-.5v.8c0 .3.6.9.6.9h1.6zm0 1s.5-.5.6-.8v-.8c-.2 0-.4.2-.6.5-.1-.6-.4-1-.8-1.3-.4.3-.6.7-.8 1.3-.2-.3-.4-.5-.6-.5v.8c.1.2.6.8.6.8h1.6zm.2.6c-.2-.7-.3-1.2-1-1.7-.7.5-.9 1-1 1.7h2zm.4.3v-1c-.3.1-.6.3-.7.5-.1-.5-.4-.8-.7-1.1-.3.3-.5.6-.6 1.1-.1-.2-.4-.4-.7-.5v1h2.7zm533.54 3.6v-2.9c-.1-.4-.4-.7-.6-.8v-2.6l.5.3.6 2.7v3.3h-.5zm0 0v-2.9c-.1-.4-.4-.7-.6-.8v-2.7c.4 0 .5.5.5.5l.6 2.7v3.3l-.5-.1zm-.4.8c.2-.1.6-.4.6-.7v-3.6l-.2-.3h6.2l-.2.3v3.6c0 .3.2.6.5.7h-6.9zm5.7 0c-.2-.1-.6-.4-.6-.7v-3.5l.5-.5h-4.2l.5.5v3.5c0 .3-.4.6-.6.7h4.4zm-.6 0c-.2-.1-.6-.4-.6-.7v-3.1l.3-.5h-2.7l.3.5v3.1c0 .3-.4.6-.6.7h3.3zm-2.3-4.4h1.3v4.3h-1.3v-4.3zm-1.2 1.2h-.5v2.3h.5zm4.4 0h-.5v2.3h.5zm-5.3-3.9h.6v2.4h-.6v-2.4zm0-.5h.6v.4h-.6v-.4zm5 1h.9v1.9h-.9v-1.9zm-4.4 1.9v-4.1c.2 0 .2.6.6.6.2 0 .2-.3.1-.5s-.2-.4-.1-.9c.1.4.4.5.4.2-.1-.4-.4-.4-.2-1 .1.5.4.5.3.2-.1-.3-.3-.5 0-.9.1.5.3.5.3.2 0-.5 0-1 .6-1.2 0 0 0-.4.3-.4.2 0 .3.4.3.4.6.2.6.7.6 1.2 0 .3.2.4.3-.2.2.5 0 .6 0 .9-.1.3.2.3.3-.2.2.6-.1.7-.2 1-.1.2.3.1.4-.2.2.5 0 .7-.1.9-.1.2-.1.5.1.5.4 0 .4-.6.6-.6v4.1h-4.6zm-1-3.1v3.1h.4v-3.2c-.2 0-.3 0-.4.1zm0 2c.4.2.9.5 1 1.1h-1v-1.1zm6.2-.9v2.1h.3v-2.1c-.1-.1-.3-.1-.3 0zm.2.9c-.4.2-.9.5-1 1.1h1v-1.1zm-2.9-4.8.3-.2v-.3c-.1 0-.1 0-.2.1-.1-.2-.2-.3-.4-.4-.2.1-.3.2-.4.4-.1-.1-.1-.1-.2-.1v.3l.3.2h.6zm.1.7.1-.3v-.4c-.1 0-.1 0-.2.1-.1-.2-.2-.3-.4-.4-.2.1-.3.2-.4.4-.1-.1-.1-.1-.2-.1v.4l.1.3h1zm.1.9.4-.5v-.5c-.1 0-.2.1-.3.2-.1-.3-.3-.4-.5-.5-.3.2-.5.2-.5.5-.1-.2-.2-.2-.3-.2v.5l.4.5h.8zm.1 1s.4-.4.5-.6v-.5c-.2 0-.3.1-.5.3-.1-.4-.3-.5-.6-.7-.3.2-.5.3-.6.7-.1-.2-.3-.2-.5-.3v.5c.1.2.5.6.5.6h1.2zm.2 1.7s.6-.7.6-.9v-.8c-.2 0-.4.2-.6.5-.1-.6-.4-1.1-.8-1.4-.4.3-.6.8-.8 1.4-.2-.3-.4-.5-.6-.5v.8c0 .3.6.9.6.9h1.6zm0 1s.5-.5.6-.8v-.8c-.2 0-.4.2-.6.5-.1-.6-.4-1-.8-1.3-.4.3-.6.7-.8 1.3-.2-.3-.4-.5-.6-.5v.8c.1.2.6.8.6.8h1.6zm.2.6c-.2-.7-.3-1.2-1-1.7-.7.5-.9 1-1 1.7h2zm.4.3v-1c-.3.1-.6.3-.7.5-.1-.5-.4-.8-.7-1.1-.3.3-.5.6-.6 1.1-.1-.2-.4-.4-.7-.5v1h2.7z" fill="#fff" stroke="#010101"/><path d="M26.043 36.866h34.9v1.8h-34.9v-1.8zm-.9 1.8h36.8v1.8h-36.8v-1.8zm2.7-4.5h31.3v1.2h-31.3v-1.2zm-.9 1.2h33.1v1.5h-33.1v-1.5zm1.5-2.1h30.2v.9h-30.2v-.9zm3.2 0h2.3v7.1h-2.3v-7.1zm.5 0h1.3v7.1h-1.3v-7.1zm10.2 0h2.3v7.1h-2.3v-7.1zm.5 0h1.3v7.1h-1.3v-7.1zm10.2 0h2.3v7.1h-2.3v-7.1zm.5 0h1.3v7.1h-1.3v-7.1z" fill="#fff" stroke="#010101"/><path d="M29.743 32.566h27.5m-25.1 6.9h1.3m-1.3-.8h1.3m-1.3-.9h1.3m-1.3-.9h1.3m-1.3-.9h1.3m-1.3-.9h1.3m-1.3-.9h1.3m9.4 5.3h1.2m-1.2-.8h1.2m-1.2-.9h1.2m-1.2-.9h1.2m-1.2-.9h1.2m-1.2-.9h1.2m-1.2-.9h1.2m9.5 5.3h1.3m-1.3-.8h1.3m-1.3-.9h1.3m-1.3-.9h1.3m-1.3-.9h1.3m-1.3-.9h1.3m-1.3-.9h1.3" stroke="#010101" stroke-width=".137" fill="none"/></svg>
