<svg id="Layer_2" data-name="Layer 2" xmlns="http://www.w3.org/2000/svg" viewBox="0 0 2528.44 211.01"><defs><style>.cls-2{fill:#fff;fill-rule:evenodd}</style></defs><path style="fill:#007cc2" d="M569.22 211.01H0V0h612.95l-43.73 211.01z"/><path class="cls-2" d="M67.81 45.36V28.33h17.03v139.64H67.81V45.36z"/><path class="cls-2" d="M389 196.05c.42 25.12 16.17 45.55 35.33 45.13s34.06-21.29 33.63-46.41c-.42-25.54-16.17-45.55-35.33-45.12-19.16 0-34.06 20.86-33.63 46.4Zm138.75-30.65c.42.85-.43-1.28-.43-1.28l.43 1.28Zm11.49 104.73c.85-1.28 1.7-3.41 3-6l-3 6Zm.85-113.67a3.26 3.26 0 0 0 .85 1.7l5.54 13.62-6.39-15.32Zm-70.24 69.39c10.21 9.37 19.58 14.48 31.5 14.48 12.35 0 23-6 23-17.46 0-9.79-8.52-15.32-23.84-21.71-12.77-5.53-22.57-9.37-27.67-17.46a91 91 0 0 1 .85 10.65c0 31.08-22.57 56.19-50.24 56.19s-50.24-25.11-50.24-56.19c0-18.73 8.09-35.34 20.86-45.56H360v97.92h-15.32v-97.92h-13.2V139h13.63c1.7-20.43 14.47-31.93 31.93-31.93 11.49 0 17.45 1.28 21.28 3v15.76h-.42c-5.54-5.11-11.07-9-23.42-9-10.22 0-16.6 8.09-14.47 22.57h56.62a40.87 40.87 0 0 1 7.24-.43c20 0 37.46 13.2 45.55 32.36V168c0-20 19.16-28.52 39.59-28.52h2.13c7.24 0 17 2.13 23.42 3.83l5.53 13.62 6.39 15.76 17 41.72 2.13 6.81 2.12-6.81 21.72-53.22c3.83-14.9 19.58-21.29 37-20.86 8.51 0 14.9.85 22.56 3.83v16.18c-9.37-6.81-16.18-10.64-26.82-10.64-9.37 0-20.86 4.25-20.86 17.88 0 10.21 6 12.34 24.26 21.28 14.9 6.39 29 13.63 29 30.66 0 27.67-27.67 32.78-40.87 32.78-11.92 0-23-3-29-8.09v-18.36l.85.85c11.14 10.22 20.51 15.3 32.86 15.3s23-6 23-17.45c0-9.8-8.52-15.33-23.85-21.72-14.47-6.38-24.26-10.64-28.09-20.86-6 14.48-33.64 81.74-40 95.79h-14.9l3.4-6.38 3-6c3.83-7.24 9.37-18.74 14-29.81l-28.52-69c0-.43-.85-1.28-1.71-3.84-2.12-5.1-4.25-9.79-10.21-11.92a30.41 30.41 0 0 0-11.07-1.7c-9.37 0-21.29 4.26-21.29 17.88 0 10.22 6.81 12.35 25.12 21.29 14.9 6.38 28.95 13.62 28.95 30.65 0 27.67-27.67 32.78-40.87 32.78-10.64 0-20.44-2.13-26.82-6.38v-19.48Zm-203.51-86v13.2c0-.42.43-.85.86-1.28 6-6.81 14.05-13.19 32.35-13.19 17.88 0 28.95 14.9 29.38 24.26v83.87H313.6v-77.05c0-11.92-10.22-20.44-23-20.44-10.64 0-23.84 9.37-24.27 19.16v78.33H251V139.85h15.32Z" transform="translate(-150.43 -78.74)"/><path d="M827.37 106.94h32.36c15.27 0 24.63 4.07 30.54 11.19 6.71 8.14 9 19.75 9 37.05v43.15c0 17.3-2.24 28.9-9 37-5.91 7.12-15.27 11.19-30.54 11.19h-32.36Zm31.55 121.92c7.73 0 12.21-1.84 15.06-5.5 3.67-4.48 4.89-10.58 4.89-22.18v-49.06c0-11.6-1.43-17.5-4.89-22-2.85-3.66-7.33-5.49-15.06-5.49h-11.19v104.23ZM912 106.94h20.35v139.62H912Zm110.27 65.13v30.12c0 15.88-2 26.67-7.94 34.4-6.1 7.33-15.47 11.6-28.49 11.6-13.23 0-22.59-4.27-28.5-11.6-6.51-8.14-8.14-19.54-8.14-36.84v-46c0-17.1 1.63-28.7 8.14-36.64 5.91-7.53 15.07-11.8 28.09-11.8 12.82 0 22 4.27 28.09 11.8 6.31 7.94 8.14 18.32 8.14 37.25h-20.56c0-15.06-1-20.35-4.07-24.83q-3.66-5.49-11.6-5.5c-5.29 0-9.36 1.84-11.8 5.5-3.06 4.07-4.07 9.36-4.07 21.58v51.08c0 12.22 1.22 17.3 4.07 21.58 2.64 3.87 6.71 5.7 12.21 5.7 5.9 0 9.77-1.83 12.62-5.7 2.64-3.87 3.66-8.75 3.66-18.12v-16.89H985v-16.69Zm16.32-65.13H1059v139.62h-20.36Zm58.82 17.91h-24.63v-17.91h69.41v17.91h-24.42v121.71h-20.36Zm96.48 89.35H1163c-1.63 11.6-3.26 22.39-4.48 32.36h-20.76c7.33-47.83 16.08-95.25 24.63-139.62h32c8.76 44 17.51 91.39 25.24 139.62h-21.16c-1.73-11.19-3.16-21.98-4.58-32.36Zm-2.65-17.5c-1.22-6.92-2.24-13.84-3.46-20.76-2-13.64-5.49-32.57-8.75-49.67h-1.63c-3.05 16.69-6.51 36.84-8.34 49.67-1.23 6.92-2.24 13.84-3.46 20.76Zm38.47-89.76h20.35v121.92h35.62v17.7h-56Zm105.83 0h20.36v139.62h-20.36Zm38.75 0H1392l25 61.67c4.27 10.58 9.76 25.44 12.82 34.19h.61c-.41-11.39-.82-27.47-.82-38.46v-57.4h18.73v139.62h-17.5l-25-62.28c-4.48-11.19-10-25.44-12.82-34.4h-.61c.4 11.61.61 27.48.61 38.68v58h-18.73Zm92.45 0h17.7l25 61.67c4.27 10.58 9.77 25.44 12.82 34.19h.61c-.4-11.39-.81-27.47-.81-38.46v-57.4h18.72v139.62h-17.5l-25-62.28c-4.47-11.19-10-25.44-12.82-34.4h-.61c.41 11.61.61 27.48.61 38.68v58h-18.72Zm94.84 129.24c-6.51-7.73-8.14-19.13-8.14-36.43v-46c0-17.1 1.63-28.49 8.14-36.43 6.11-7.53 15.67-12 28.7-12s22.59 4.48 28.7 12c6.31 7.94 8.14 19.33 8.14 36.43v46c0 17.3-1.83 28.7-8.14 36.43-6.11 7.54-15.67 12-28.7 12s-22.59-4.46-28.7-12Zm40.91-12.18c3.06-4.27 4.07-9.36 4.07-21.57v-51.32c0-12.22-1-17.31-4.07-21.58-2.64-3.46-6.71-5.5-12.21-5.5-5.7 0-9.77 2-12.41 5.5-3.06 4.27-4.08 9.36-4.08 21.58v51.29c0 12.21 1 17.3 4.08 21.57 2.64 3.46 6.71 5.5 12.41 5.5 5.5 0 9.57-2.04 12.21-5.47Zm30.73-117.06h21c4.88 29.71 9.16 58.82 11.6 72.25 1.83 10.59 5.5 32.16 7.12 43.15h1.23c1.62-10.17 5.29-32.36 7.12-42.94 3-15.88 7.12-47.22 10.79-72.46h20.76c-7.74 48.24-15.88 94.64-25.24 139.62h-28.09c-8.98-44.98-18.14-91.38-26.29-139.62Zm131.69 107.26H1734c-1.63 11.6-3.25 22.39-4.48 32.36h-20.76c7.33-47.83 16.08-95.25 24.63-139.62h32c8.75 44 17.5 91.39 25.24 139.62h-21.17c-1.7-11.19-3.13-21.98-4.55-32.36Zm-2.65-17.5c-1.22-6.92-2.23-13.84-3.46-20.76-2-13.64-5.49-32.57-8.75-49.67h-1.63c-3.05 16.69-6.51 36.84-8.34 49.67-1.22 6.92-2.24 13.84-3.46 20.76Zm48.24-71.85h-24.63v-17.91h69.41v17.91h-24.43v121.71h-20.35Zm58.74-17.91h20.35v139.62h-20.35Zm41.31 129.24c-6.51-7.73-8.14-19.13-8.14-36.43v-46c0-17.1 1.63-28.49 8.14-36.43 6.11-7.53 15.67-12 28.7-12s22.59 4.48 28.7 12c6.31 7.94 8.14 19.33 8.14 36.43v46c0 17.3-1.83 28.7-8.14 36.43-6.11 7.54-15.67 12-28.7 12s-22.59-4.46-28.7-12Zm40.91-12.18c3.06-4.27 4.07-9.36 4.07-21.57v-51.32c0-12.22-1-17.31-4.07-21.58-2.64-3.46-6.71-5.5-12.21-5.5-5.7 0-9.77 2-12.41 5.5-3.06 4.27-4.08 9.36-4.08 21.58v51.29c0 12.21 1 17.3 4.08 21.57 2.64 3.46 6.71 5.5 12.41 5.5 5.5 0 9.57-2.04 12.21-5.47Zm37.25-117.06h17.7l25 61.67c4.27 10.58 9.77 25.44 12.82 34.19h.61c-.4-11.39-.81-27.47-.81-38.46v-57.4h18.73v139.62h-17.51l-25-62.28c-4.48-11.19-10-25.44-12.83-34.4h-.61c.41 11.61.61 27.48.61 38.68v58h-18.72Zm130.87 0h30.12c27.48 0 40.3 10.17 40.3 39.28v11c0 27.68-13.43 39.28-39.28 39.28h-10.79v50.07h-20.35ZM2149.7 179c14.25 0 19.74-5.5 19.74-22.8v-8.95c0-17.3-5.29-22.8-19.53-22.8h-10V179Zm96.88 35.2h-30.93c-1.63 11.6-3.26 22.39-4.48 32.36h-20.76c7.33-47.83 16.08-95.25 24.63-139.62H2247c8.75 44 17.51 91.39 25.24 139.62h-21.17c-1.64-11.19-3.07-21.98-4.49-32.36Zm-2.64-17.5c-1.22-6.92-2.24-13.84-3.46-20.76-2-13.64-5.5-32.57-8.75-49.67h-1.63c-3.06 16.69-6.52 36.84-8.35 49.67-1.22 6.92-2.24 13.84-3.46 20.76Zm90.16 49.86c-5.9-18.11-11.8-36.84-17.91-54.34h-13.43v54.34h-20.36V106.94h30.53c27.07 0 40.3 10 40.3 39.08v7.32c0 19.75-6.1 30.53-18.52 35.62 7.13 18.73 14.25 38.47 20.76 57.6Zm-21-71.64c13.84 0 19.74-5.7 19.74-22.8V147c0-17.09-5.9-22.59-19.74-22.59h-10.38v50.48Zm71.27-50.07h-24.63v-17.91h69.41v17.91h-24.43v121.71h-20.35Zm58.56-17.91h17.7l25 61.67c4.27 10.58 9.77 25.44 12.82 34.19h.61c-.4-11.39-.81-27.47-.81-38.46v-57.4H2517v139.62h-17.5l-25-62.28c-4.47-11.19-10-25.44-12.82-34.4h-.68c.41 11.61.61 27.48.61 38.68v58h-18.72Zm88.33 0h59.84v17.91h-39.49v41.72h35.62v17.92h-35.62v44.37h39.49v17.7h-59.84Zm126.23 139.62c-5.9-18.11-11.8-36.84-17.91-54.34h-13.43v54.34h-20.36V106.94h30.53c27.07 0 40.3 10 40.3 39.08v7.32c0 19.75-6.1 30.53-18.52 35.62 7.13 18.73 14.25 38.47 20.76 57.6Zm-21-71.64c13.84 0 19.74-5.7 19.74-22.8V147c0-17.09-5.9-22.59-19.74-22.59h-10.38v50.48Z" transform="translate(-150.43 -78.74)" style="fill:#fff"/></svg>
