<svg xmlns="http://www.w3.org/2000/svg" width="87" height="57"><path fill="#D0202D" d="M1 0h86v57.3H1z"/><path fill="#fff" d="M1 0h43v57.3H1z"/><path fill="#E51D30" d="M3.1 7.9v4.3h4.3c0 .7.7 1.4 1.4 1.4V18h4.3v-4.3c.7 0 1.4-.7 1.4-1.4H19V7.9h-4.3c0-.7-.7-1.4-1.4-1.4V2.1H8.9v4.3c-.7 0-1.4.7-1.4 1.4 0 .1-4.4.1-4.4.1z"/><path fill="#96877D" d="M3.4 8.2V12h4.3c0 .7.7 1.4 1.4 1.4v4.3H13v-4.3c.7 0 1.4-.7 1.4-1.4h4.3V8.2h-4.3c0-.7-.7-1.4-1.4-1.4V2.4H9.2v4.3c-.7 0-1.4.7-1.4 1.4 0 .1-4.4.1-4.4.1z"/><path fill="#CDCCCC" d="M3.6 8.3v3.5h4.3c0 .7.7 1.4 1.4 1.4v4.3h3.5v-4.3c.7 0 1.4-.7 1.4-1.4h4.3V8.3h-4.3c0-.7-.7-1.4-1.4-1.4V2.6H9.3v4.3c-.7 0-1.4.7-1.4 1.4H3.6z"/><path fill="#96877D" d="M9.1 6.8c.3.3.2.7-.2 1.1-.3.4-.8.4-1.1.2-.2-.3-.1-.8.2-1.1.3-.3.8-.4 1.1-.2z"/><path fill="#D0D1D1" d="m7.8 7.6.1-.1.4.2-.2-.4.1-.1.4.8-.8-.4zm.6-.6.1-.1.6.6-.1.1-.6-.6z"/><path fill="#96877D" d="M-8.1 14.3c-.3-.3-.2-.7.2-1.1.3-.3.8-.4 1.1-.2.3.3.2.7-.2 1.1-.3.4-.8.5-1.1.2z"/><path fill="#D0D1D1" d="m-6.8 13.6-.1.1-.4-.2.2.4-.1.1-.4-.8.8.4zm-.6.6-.1.1-.6-.6.1-.1.6.6z"/><path fill="#96877D" d="M-13.1-13.3c.3.3.2.7-.2 1.1-.3.3-.8.4-1.1.2-.3-.3-.2-.7.2-1.1.4-.4.9-.5 1.1-.2z"/><path fill="#D0D1D1" d="m-14.4-12.6.1-.1.4.2-.2-.4.1-.1.4.8-.8-.4zm.6-.6.1-.1.7.6-.1.1-.7-.6z"/><path fill="#96877D" d="M12.1-7.8c-.3-.3-.2-.7.2-1.1.3-.3.8-.4 1.1-.2.3.3.2.7-.2 1.1-.4.3-.9.4-1.1.2z"/><path fill="#D0D1D1" d="m13.4-8.6-.1.1-.4-.2.2.4-.1.1-.4-.8.8.4zm-.6.6-.1.1-.7-.6.1-.1.7.6z"/><g stroke="#96877D" stroke-width=".049" fill="none"><circle cx="11.1" cy="10.1" r="3"/><circle cx="11.1" cy="10.1" r="2.3"/></g><g fill="#010101"><circle cx="9.9" cy="12.5" r=".1"/><circle cx="12.2" cy="12.5" r=".1"/><path d="M11 12.5v.2h-.2c-.2 0-.2.2 0 .2h.2v.1c0 .2.2.2.2 0v-.2h.2c.2 0 .2-.2 0-.2h-.2v-.2s-.2 0-.2.1zm-2.7-1.7h.2v-.1h-.1.2v.1h.2l.1.2h-.1l-.5-.2v.1l-.1-.4h.1v.3zm-.2-.9c0-.1 0-.1.1-.2l.2-.1c.1 0 .1 0 .2.1l.1.2c0 .1 0 .1-.1.2l-.2.1c-.1 0-.1 0-.2-.1-.1 0-.1-.1-.1-.2zm.1 0v.1s.1.1.2.1h.2l.1-.1s0-.1-.1-.1c0 0-.1-.1-.2-.1h-.2v.1zm.7-.9v.1l-.3.1.1.1h.1l-.1.2v-.1l-.3-.1h-.1l.1-.2c0-.1 0-.1.1-.1h.2s.1 0 .1.1v.1H9c-.2-.1-.2-.1-.1-.2zm-.4.2v-.1s0-.1-.1-.1h-.1l-.1.1v.1h.3zm1.1-1.7.1.1-.1-.1c0 .1-.1.1-.1.1-.1 0-.1.1-.1.1v.2c.1.1.1.1.2.1h.2v-.2l.2-.1v.1l.1.1s0 .1-.1.1l-.1.1c-.1.1-.2.1-.2 0-.2 0-.3 0-.3-.1v-.3l.1-.1s.1 0 .1-.1zm.9.1-.2.1v.1h.1-.2v-.1l.1-.5.3.4.1.1h.1l-.2.1c0-.1 0-.1-.1-.2zm0 0-.1-.2v.2h.1zm.9 0v.1H11v-.5h.2-.1v.4h.1c.1.1.1.1.2 0zm.7.1-.1.2-.4-.1h.1v-.1l.1-.3v-.1h.2-.1v.1l-.1.3h.2c0 .1 0 .1.1 0-.1.1 0 .1 0 0zm.5.3-.2-.1h-.1V8h.1l.4-.2-.1.5v.1l-.2-.1c.1-.1.1-.2.1-.3zm0 0v-.2l-.2.1.2.1zm.7.1.1.1-.1.5.2-.2.1.1h-.1l-.4.3.1-.5-.2.1-.1-.1h.1l.3-.2v-.1zm.6 1.2h-.1.1l-.1-.2-.4.1h-.1l-.1-.2h.1l.4-.1v-.1h-.1.1l.2.5zm-.4 1v-.1l.2-.2h-.3v-.2h.5v.4h-.2s0-.1-.1-.1l-.1.1c.1-.1.1 0 0 .1zm.3-.4v.1h.2v-.2l-.2.1zm.1 1v.2c-.1 0-.1-.1 0-.2-.1.1-.1.1-.1 0l-.2-.2h-.2l.1-.2v.1h.2l.2-.1h.1l-.1.2h-.1l-.2.1.1.1c.1.1.1.1.2 0-.1.1 0 .1 0 0z"/></g><g fill="#96877D" stroke="#010101" stroke-width=".019"><path d="M12.7 10.5h.3-.2v.1s0 .1-.1-.1m-.2 0c0 .1-.2-.1-.2-.1l.2.2"/><path d="M9.9 11.8h2.5l.2-.2-.3-.2-.5-.2-.2-.1h-.4l-.3.2h-.4l-.1.1h-.8l.8.1h-.7l.2.3zm1.3-.7c-.3-.2-.4.2-.5.3.2 0 .3-.1.5-.2.1.3.3.1.3.1s.2.3.4.2c.1.1.1 0 .1 0h.2s.1 0 .1-.1c.2 0 .4-.3.4-.3l.1-.1h.1v-.1s0-.1-.1 0c-.1 0-.1.2-.1.2l-.2.1-.2-.4c0-.1.2.1.3.1.1 0 .2-.2.2-.3 0-.1-.1-.2-.1-.2h-.1l-.1-.2s-.1.1-.1.2l.2.2s-.1.1-.2 0c0 .1.1.1.1.1 0 .1.1.1.1.1s0 .1-.1.1-.2-.2-.3-.1c-.1.1.1.3.1.3l-.2.2c-.3-.4-.5-.3-.9-.2zm-.4-.4.1.4h.5c.1.1.1 0 .1 0 .1.1.2.1.2.1s-.2-.2-.3-.2c-.1 0-.3.1-.4 0v-.1c.1-.1 0-.3 0-.4-.2-.2-.4 0-.2.2zm-.9-.4c-.2 0-.4-.2-.6-.1-.1.1-.1.3 0 .5.1.1-.1.2-.2.2-.1.1 0 .1 0 .1h.1v.2s0 .1.1.1v-.2h.1v-.2l-.1-.1s.2-.1.2-.2l-.2-.3.4.1c.2-.1.1 0 .1 0s.3-.1.1-.1zm.9-1.7-.9-.2c-.1 0-.2.1-.2.1-.1 0-.2.2-.2.2-.2-.1-.3.3-.2.3-.2 0-.1.2-.2.3-.1.1 0 .2.1.1 0 .1 0 .1-.1.1.3.3.5-.2.7-.2.3-.1.5-.3.5-.3h.1l.4-.4z"/><circle cx="11" cy="8.4" r=".3"/><path d="M10.5 10.8c-.2 0-.5-.2-.6-.5.2-.7 1.1-.3 1.2-.9 0-.4 0-.7.2-1 .1-.1.2-.1.2-.1v.1c.2 0 .4.1.5.1v.2c0 .1-.1 0-.1 0s-.1.1-.2.1c-.1.1-.2.1-.2.1s.3.4.3.5c.1 0 .2.2.2.2s.2-.1.3-.2c.1 0 .4.1.5.2.1.1.3.2.3.2s-.2.1-.2 0c-.1 0-.3-.2-.5-.1 0 .2-.3.4-.3.4h.4l.3.3.2.3s-.2 0-.2-.2c-.1.2-.1-.1-.3-.2h-.2l-.6.1-.5.3c-.2.1-.2 0-.2 0h-.1c0 .1 0 .2-.1.2 0 .1 0 .3-.1.3 0 .1.2.2.3.3h.2c.1.1.1.2.1.2h-.2l-.1-.1c-.3-.3-.5-.2-.5-.2-.1-.3 0-.4 0-.6zm-.8-1.3h.1l.2.1.5.3.2.2-.3-.1-.4-.2-.2-.2-.1-.1zm2.7.8c-.2 0-.5.4-.5.4l.3.3c-.1 0-.1-.5.2-.7zM10.5 9c-.1.1-.1.3 0 .4 0 .1.1.4.2.4l.6.1c0 .2.2.4.3.6v.1h.1c0 .1.2.1.3.1 0 0-.3-.2-.4-.3-.1-.1-.2-.4-.2-.5-.2-.2-.4-.2-.4-.2v-.9l.1-.1h.1v-.1c.1-.1 0-.3-.2-.3l-.2.2v.1h-.3c-.1 0-.2.1-.2.2-.1 0-.1.1-.1.1s-.1 0-.2.2c-.2 0-.2.4-.2.4v.2h.2v-.1h.1v-.1s-.1 0-.1-.1v-.1s.2-.1.2-.3c.1.1.2 0 .3 0zm-.4-.6c0-.1.2-.1.2-.1s.1-.1.3-.1c.1-.1.3 0 .3 0s.1-.1.2-.1c.2 0 .2.2.2.2l-.4-.1c-.1 0-.2.1-.2.2-.2.2-.4 0-.6 0zm.4.2s.2-.1.2 0c.1.1.3.2.3.2l.1.1h.1v.6c-.1-.1-.3-.2-.3-.3 0-.1 0-.2-.1-.3-.2-.1-.3-.2-.3-.3zm.4.2h.2v.1-.1H11c-.1.1-.1.1-.1 0zm.6-.4h-.1l-.2.3-.1.1v.3l.1.2v.2l.1-.1v-.2s-.1-.1 0-.3c0-.2.1-.4.2-.5zm.5.3s-.3.4-.8.6c-.2 0-.1-.3-.1-.3s-.1.3.1.4c.4-.2.8-.7.8-.7zm.2 2.5h-.1c0-.1-.1-.1-.1-.1s-.1-.1-.2-.1c0-.1-.1 0-.1 0s0-.1-.1-.1c0-.1-.2-.1-.2-.1s0-.2-.3-.1c.6-.3 1.1.4 1.1.4m.3.2s.1.2.2.2l.1-.2s0 .1.1 0v.1s-.1.3-.5 0m-1-.1v.2s-.1.1 0 .1h.1s.2 0 .2-.1c0 .1.1.1.1.1h.1v-.2c-.1.1-.2.1-.2.1s.1-.1.1-.2"/></g></svg>
