<svg xmlns="http://www.w3.org/2000/svg" viewBox="0 0 841.9 769" style="enable-background:new 0 0 841.9 769" xml:space="preserve"><path d="M0 83h841.9v595.3H0z"/><path d="M260.1 398.1h48v70h-48zm0-65h48v55h-48zm79 65h48v70h-48zm0-109.1h48v99.1h-48zm181.5 111.6c0 8.6-2.7 15.9-8 21.7-5.3 5.8-12.9 8.7-22.7 8.7-9.6 0-17.2-2.9-22.6-8.6-5.4-5.8-8.1-13.1-8.1-21.6 0-.8 0-1.6.1-2.6h-50.4c0 1-.1 1.8-.1 2.6 0 22.9 8.1 40.6 24.4 53 16.3 12.3 35.2 18.5 56.7 18.5 21.7 0 40.6-6.2 56.8-18.6s24.3-30.1 24.3-52.9c0-.8 0-1.6-.1-2.6h-50.4c0 .9.1 1.6.1 2.4zm-53.3-21.3c5.4-6 12.9-9.1 22.6-9.3 9.8 0 17.4 2.9 22.7 9 2.5 2.8 4.4 6.1 5.7 9.1h51.8c-2.5-17-10.2-30.4-23.3-40.6-16.2-12.5-34.7-18.7-56.7-18.9v.3c-22 0-40.7 6.1-56.9 18.6-13.1 10.1-21 23.6-23.5 40.6h52c1.2-3 3.1-6 5.6-8.8zm92.9 88.9 62.8-.1 34.6-39.9 34.7 39.9H755l-64-70h-66.9zm183.3-135.1h-61.7L657.6 361l-24.1-27.9h-60.7l48.9 55h71.9zm-656.6 65h47.9v70H86.9zm48-10c1.1-11.9 11-21.2 23.2-21.2 12.1 0 22.1 9.3 23.2 21.2h48V385c0-16.7-3.9-30.2-11.7-40.5-7.8-10.4-20.8-15.5-39.1-15.5-29.7 0-43.7 16.6-43.7 16.6v-12.4H86.9v55h48v-.1zm46.4 10v70h47.9v-70z" style="fill:#fff"/></svg>
