<svg version="1.1" id="Layer_1" xmlns="http://www.w3.org/2000/svg" x="0" y="0" viewBox="0 0 353 250" style="enable-background:new 0 0 353 250" xml:space="preserve"><style>.st430{fill:#010101}</style><g id="black-rgb_00000141437005496037045660000012172293762205175193_"><path id="fullLogo_00000031903452403408554480000017751297866041804939_" class="st430" d="M176.5 25.5c-22 0-39.9 17.8-39.9 39.9s17.8 39.9 39.9 39.9 39.9-17.8 39.9-39.9c-.1-22-17.9-39.9-39.9-39.9zm34 39.9c0 6-1.6 11.9-4.7 17.1l-23.2-28.9h25.7c1.4 3.7 2.2 7.7 2.2 11.8zm-34-34c11.8 0 22.8 6.2 29 16.2h-57.9c6.1-10 17.1-16.2 28.9-16.2zm-31.8 22.1h25.7l-23.2 28.9c-5.1-8.7-6.1-19.3-2.5-28.9zm6.1 34L173.5 59v40.2c-8.8-.8-17-5-22.7-11.7zm28.7 11.7V59l22.8 28.5c-5.8 6.7-14 10.9-22.8 11.7z"/><path id="fullLogo-2_00000167384274123119884030000011809420976919553947_" class="st430" d="M69 163.1c-4.3 0-8.3 2.2-10.6 5.9h5.5c4.9 0 8.9 4 8.9 8.9v25.4h8.9v-27.6c-.1-7-5.7-12.6-12.7-12.6z"/><path id="fullLogo-3_00000168837640729730410640000013358923649646370972_" class="st430" d="M48.1 143H57v60.2h-8.9z"/><path id="fullLogo-4_00000083086419725235274900000007421550024143016627_" class="st430" d="M.8 150.1h17.7v53.1h8.9v-53.1h15.3l2.4-5.9H3.3z"/><path id="fullLogo-5_00000142146282486927819580000009098389778721429120_" class="st430" d="M284.2 189.7v-19.9c-5.3 1.9-8.9 6.9-8.9 12.5v8.9c0 7.3 5.9 13.3 13.3 13.3 4.4 0 8.6-2.2 11-5.9H293c-4.9-.1-8.8-4-8.8-8.9z"/><path id="fullLogo-6_00000121989813609171007150000015017777025616316839_" class="st430" d="M301.1 163.8c-5.7-2-12.1.1-15.5 5.1h6.6c4.9 0 8.9 4 8.9 8.9v25.4h8.9V143h-8.9v20.8z"/><path id="fullLogo-7_00000051341290756178215920000002770727860362415000_" class="st430" d="M127.2 164.3h8.9v39h-8.9z"/><path id="fullLogo-8_00000179642095551659311320000003215429994562939299_" class="st430" d="M203.1 189.7V143h-8.9v48.1c0 7.3 5.9 13.3 13.3 13.3 4.4 0 8.6-2.2 11-5.9h-6.6c-4.9 0-8.8-3.9-8.8-8.8z"/><path id="fullLogo-9_00000158732018290891992810000008403560301070998413_" class="st430" d="M215.6 163.1c-4.4 0-8.6 2.2-11 5.9h6.6c4.9 0 8.9 4 8.9 8.9v19.9c5.3-1.9 8.9-6.9 8.9-12.5v-8.9c-.1-7.4-6.1-13.3-13.4-13.3z"/><path id="fullLogo-10_00000014609029850015752670000009958074699314293382_" class="st430" d="M170.6 163.1c-4.6 0-9 2.2-11.8 5.9h8.9c4.9 0 8.9 4 8.9 8.9v3h-11.8c-6.5 0-11.8 5.3-11.8 11.8 0 6.5 5.3 11.8 11.8 11.8 4.2 0 8.1-2.2 10.2-5.9h-4.3c-4.9 0-8.8-3.9-8.9-8.8 0-1.5.4-2.9 1-4.2h13.7v17.7h8.9v-25.4c-.1-8.2-6.7-14.8-14.8-14.8z"/><path id="fullLogo-11_00000091723489458872595860000011359629545870205601_" class="st430" d="M256.1 163.1c-4.4 0-8.6 2.2-11 5.9h6.6c4.9 0 8.9 4 8.9 8.9v19.9c5.3-1.9 8.9-6.9 8.9-12.5v-8.9c-.1-7.4-6-13.3-13.4-13.3z"/><path id="fullLogo-12_00000026844249401427393290000012605166377887678381_" class="st430" d="M243.6 189.7v-19.9c-5.3 1.9-8.9 6.9-8.9 12.5v8.9c0 7.3 5.9 13.3 13.3 13.3 4.4 0 8.6-2.2 11-5.9h-6.6c-4.8-.1-8.8-4-8.8-8.9z"/><path id="fullLogo-13_00000173146523923858118290000018183764628227621034_" class="st430" d="M109.5 163.1c-4.2 0-8.1 2.3-10.2 5.9h5.8c4.1 0 7.4 3.3 7.4 7.4v2.4H97.9v-9.3c-5.2 1.3-8.9 6-8.9 11.4v7.4c0 9 7.3 16.2 16.2 16.2 4.8 0 9.4-2.2 12.5-5.9h-6.6c-7.3 0-13.3-5.9-13.3-13.3v-1.8h23.5v-8.6c0-6.5-5.3-11.8-11.8-11.8z"/><path id="fullLogo-14_00000157277730882212062950000010684253761189011087_" class="st430" d="M154.7 172.3c0-5.1-4.1-9.2-9.2-9.2-3.8 0-7.2 2.3-8.6 5.9h3.8c2.9 0 5.2 2.3 5.2 5.2v4.1l8.8-6z"/><path id="fullLogo-15_00000170997303821006971230000006828287046862150310_" class="st430" d="M345.8 164.3 335 190.2l-10.7-25.9h-9.6l15.5 37.5-9.4 22.7h6.4l25-60.2z"/></g></svg>
