<svg id="Layer_1" data-name="Layer 1" xmlns="http://www.w3.org/2000/svg" viewBox="0 0 96 56"><defs><clipPath id="clip-path"><path class="cls-1" d="m22.14 12.6 4 19.19h-5.78l-.85-4.12h-7l-2.46 4.12h-6.4l2.66-4.12H-.11l18.92-3.43-.6-2.76-.5-2.48-1.05 1.76 1.21.44H10.5l5.56-8.6Zm36.21 0h-14a.91.91 0 0 1 .13.2 2.17 2.17 0 0 1 .1.48c.05.29.11.33.07.54-.06.42-.14.38-.26.62a3.39 3.39 0 0 0-.24.61s.14 0 .14.15a1.8 1.8 0 0 1-.27.66 1.24 1.24 0 0 1-.31.38c-.2.12-.26 0-.29.11a5.51 5.51 0 0 0-.26.54 1.84 1.84 0 0 0-.06.4c.4.16 1.45.53 1.7 1l-3.53 1.14 1.52-.18c.65-.07 1.72-.19 2.06-.19a6.82 6.82 0 0 1 .88.11c.42.06.79.07 1.24.16a1.21 1.21 0 0 1 .65.31l.11.08 1.57-.1h.31a7.62 7.62 0 0 0 3.45-1.52 7.32 7.32 0 0 1 3.22-1 3.79 3.79 0 0 1 2.75.72 2.24 2.24 0 0 1 .59 2.35 2.68 2.68 0 0 1-1.34 2 4.06 4.06 0 0 1-2.64.55 9.36 9.36 0 0 1-3.77-1.55 5 5 0 0 0-2-.67 2.33 2.33 0 0 0-.46 0l-1.1.08a1.42 1.42 0 0 1 0 .3c0 .2-.13.3-.25.29a.94.94 0 0 1-.49-.41v.1c0 .05 0 .22-.16.26a.46.46 0 0 1-.38-.09A.05.05 0 0 0 47 21c0 .12-.07.2-.31.15s-.13 0-.23.07-.37-.09-.57-.18-.13-.28-.33-.32h-.14a9.83 9.83 0 0 1 .31 1.44h-.2a9 9 0 0 1 .2 1.11 4.24 4.24 0 0 1 0 1.15.59.59 0 0 0 .24-.09 1.4 1.4 0 0 1 .07-.37l.06-.08a.16.16 0 0 0 0-.07l.05-.18a.2.2 0 0 1 0-.08l.27-.5s.07-.14.18-.11a.36.36 0 0 1 .18.29 1.06 1.06 0 0 1-.13.43l.12.19a.48.48 0 0 0 .42-.09l.17-.13c-.05-.14.07-.31.41-.25.12 0 .45.31 0 .58.44 0 .39.51.08.67a.06.06 0 0 0 0 .08.5.5 0 0 1 .1.29s0 .14-.43.29c0 0-.14.06-.08.15l.17.07s.4.09.32.3c0 0-.06.19-.44.07a2.6 2.6 0 0 1-.37 0 5.66 5.66 0 0 1-.71.17.37.37 0 0 0-.2.12A2.52 2.52 0 0 1 45 27c-.37 0-.42-.28-.68-.56a3 3 0 0 1-.69-1.9h-.08a3 3 0 0 1-.58 1.9 3 3 0 0 1-1.37.56c-2.58.61-5.35 2.2-5 2.56.13.14.42-.15.93-.38a12.89 12.89 0 0 1 5.21-1 .14.14 0 0 1 .11.11 3.85 3.85 0 0 0 .12.57 2 2 0 0 0 .41.94c.48.44.41.61.3 1.21-.07.39.47.72.48.74h5.54l.85-4.12h5.63c5.75 0 8.3-2.62 9.28-7.65.41-2.29.4-7.38-7.11-7.38ZM33.64 31.79l.27-.29c.24-.25.05-.88.1-1.12s.61-.49.69-.8-.71-.35-.31-.79c.24-.28.61-.18.58-.46 0-.44.4-.74.58-.88a14.69 14.69 0 0 1 3.66-1.88c1.14-.33-.43-.29-1.72.18S39 24.49 41.14 24c1.52-.38-1.11-.46-3.54.61a11.44 11.44 0 0 0-1.51.75 1.91 1.91 0 0 0 .3-1.1 1.31 1.31 0 0 1 .1-.82c.09-.18 0-.65.13-.89l1.31.41 5.09-1.74-4.85.72-1.68-1.44a1.85 1.85 0 0 1-.24-1.61 6.62 6.62 0 0 1 .87-1.07 9 9 0 0 1 1.28-.46c.38-.2.69-.06 1-.11a7.34 7.34 0 0 0 .88-.27 2.18 2.18 0 0 0 0-.34 3.31 3.31 0 0 1-.1-.93c0-.3.29-.57.31-.77s-.14-.4 0-.6a3.12 3.12 0 0 0 .24-.71c0-.23-.17-.31-.07-.54s.15-.3.2-.39H23.1l1 4.87h7l-.77 3.73h5.26l-10.75 1.85h5.09l-1.78 8.65Zm18.71-11.11a.19.19 0 0 0 .26-.19 3.92 3.92 0 0 1 .2-1.09c0-.16-.09-.28-.22-.21a7 7 0 0 1-1.7.68.11.11 0 0 0-.09.12c0 .07 0 .11.07.12a6.21 6.21 0 0 1 1.48.57Z"/></clipPath><clipPath id="clip-path-2"><path class="cls-1" d="M63.29 31H63v-.18h.87V31h-.32l-.16.8h-.23Zm1.82-.18-.19 1h-.22l.12-.58-.38.48h-.1l-.2-.49-.12.59h-.22l.2-1h.19l.24.61.49-.61Z"/></clipPath><style>.cls-1{fill:#fff}.cls-4{fill:#ffd500}.cls-5{fill:#005bbb}</style></defs><path class="cls-1" d="m22.14 12.6 4 19.19h-5.78l-.85-4.12h-7l-2.46 4.12h-6.4l2.66-4.12H-.11l18.92-3.43-.6-2.76-.5-2.48-1.05 1.76 1.21.44H10.5l5.56-8.6Zm36.21 0h-14a.91.91 0 0 1 .13.2 2.17 2.17 0 0 1 .1.48c.05.29.11.33.07.54-.06.42-.14.38-.26.62a3.39 3.39 0 0 0-.24.61s.14 0 .14.15a1.8 1.8 0 0 1-.27.66 1.24 1.24 0 0 1-.31.38c-.2.12-.26 0-.29.11a5.51 5.51 0 0 0-.26.54 1.84 1.84 0 0 0-.06.4c.4.16 1.45.53 1.7 1l-3.53 1.14 1.52-.18c.65-.07 1.72-.19 2.06-.19a6.82 6.82 0 0 1 .88.11c.42.06.79.07 1.24.16a1.21 1.21 0 0 1 .65.31l.11.08 1.57-.1h.31a7.62 7.62 0 0 0 3.45-1.52 7.32 7.32 0 0 1 3.22-1 3.79 3.79 0 0 1 2.75.72 2.24 2.24 0 0 1 .59 2.35 2.68 2.68 0 0 1-1.34 2 4.06 4.06 0 0 1-2.64.55 9.36 9.36 0 0 1-3.77-1.55 5 5 0 0 0-2-.67 2.33 2.33 0 0 0-.46 0l-1.1.08a1.42 1.42 0 0 1 0 .3c0 .2-.13.3-.25.29a.94.94 0 0 1-.49-.41v.1c0 .05 0 .22-.16.26a.46.46 0 0 1-.38-.09A.05.05 0 0 0 47 21c0 .12-.07.2-.31.15s-.13 0-.23.07-.37-.09-.57-.18-.13-.28-.33-.32h-.14a9.83 9.83 0 0 1 .31 1.44h-.2a9 9 0 0 1 .2 1.11 4.24 4.24 0 0 1 0 1.15.59.59 0 0 0 .24-.09 1.4 1.4 0 0 1 .07-.37l.06-.08a.16.16 0 0 0 0-.07l.05-.18a.2.2 0 0 1 0-.08l.27-.5s.07-.14.18-.11a.36.36 0 0 1 .18.29 1.06 1.06 0 0 1-.13.43l.12.19a.48.48 0 0 0 .42-.09l.17-.13c-.05-.14.07-.31.41-.25.12 0 .45.31 0 .58.44 0 .39.51.08.67a.06.06 0 0 0 0 .08.5.5 0 0 1 .1.29s0 .14-.43.29c0 0-.14.06-.08.15l.17.07s.4.09.32.3c0 0-.06.19-.44.07a2.6 2.6 0 0 1-.37 0 5.66 5.66 0 0 1-.71.17.37.37 0 0 0-.2.12A2.52 2.52 0 0 1 45 27c-.37 0-.42-.28-.68-.56a3 3 0 0 1-.69-1.9h-.08a3 3 0 0 1-.58 1.9 3 3 0 0 1-1.37.56c-2.58.61-5.35 2.2-5 2.56.13.14.42-.15.93-.38a12.89 12.89 0 0 1 5.21-1 .14.14 0 0 1 .11.11 3.85 3.85 0 0 0 .12.57 2 2 0 0 0 .41.94c.48.44.41.61.3 1.21-.07.39.47.72.48.74h5.54l.85-4.12h5.63c5.75 0 8.3-2.62 9.28-7.65.41-2.29.4-7.38-7.11-7.38ZM33.64 31.79l.27-.29c.24-.25.05-.88.1-1.12s.61-.49.69-.8-.71-.35-.31-.79c.24-.28.61-.18.58-.46 0-.44.4-.74.58-.88a14.69 14.69 0 0 1 3.66-1.88c1.14-.33-.43-.29-1.72.18S39 24.49 41.14 24c1.52-.38-1.11-.46-3.54.61a11.44 11.44 0 0 0-1.51.75 1.91 1.91 0 0 0 .3-1.1 1.31 1.31 0 0 1 .1-.82c.09-.18 0-.65.13-.89l1.31.41 5.09-1.74-4.85.72-1.68-1.44a1.85 1.85 0 0 1-.24-1.61 6.62 6.62 0 0 1 .87-1.07 9 9 0 0 1 1.28-.46c.38-.2.69-.06 1-.11a7.34 7.34 0 0 0 .88-.27 2.18 2.18 0 0 0 0-.34 3.31 3.31 0 0 1-.1-.93c0-.3.29-.57.31-.77s-.14-.4 0-.6a3.12 3.12 0 0 0 .24-.71c0-.23-.17-.31-.07-.54s.15-.3.2-.39H23.1l1 4.87h7l-.77 3.73h5.26l-10.75 1.85h5.09l-1.78 8.65Zm18.71-11.11a.19.19 0 0 0 .26-.19 3.92 3.92 0 0 1 .2-1.09c0-.16-.09-.28-.22-.21a7 7 0 0 1-1.7.68.11.11 0 0 0-.09.12c0 .07 0 .11.07.12a6.21 6.21 0 0 1 1.48.57Z"/><path class="cls-1" d="M-.88 10.68h68v21.11h-68z" style="clip-path:url(#clip-path)"/><path class="cls-1" d="M30.69 35h-3.22l.32-1.53h8.26L35.71 35h-3.22l-1.71 8.2H29Zm15.58 5a5.54 5.54 0 0 1 .12-1l1.15-5.49h1.81L48.2 39a5 5 0 0 0-.11.87c0 1.32.89 2 2.26 2 1.55 0 2.61-.85 3-2.84l1.14-5.45h1.81l-1.17 5.58c-.59 2.86-2.36 4.29-5 4.29-2.36-.08-3.88-1.36-3.86-3.45Zm16.42.15 1.7 3.08h-1.92l-1.57-2.85h-2.66l-.58 2.85h-1.82l2-9.73h4c2.35 0 3.69 1.08 3.67 2.93a3.7 3.7 0 0 1-2.82 3.72Zm1.06-3.55c0-1.06-.74-1.57-2.06-1.57h-2.31l-.82 3.86H61c1.71 0 2.73-.79 2.75-2.29Zm-18.46 1.76a6.88 6.88 0 0 1-.57 1.9 5.79 5.79 0 0 1-1.3 1.74 5.42 5.42 0 0 1-1.85 1.07 6.15 6.15 0 0 1-2 .31 5.29 5.29 0 0 1-1.85-.31A3.67 3.67 0 0 1 36.23 42a3.83 3.83 0 0 1-.8-1.72 5.77 5.77 0 0 1 0-1.9 6.68 6.68 0 0 1 .58-1.9 5.44 5.44 0 0 1 1.29-1.71 5.37 5.37 0 0 1 1.86-1.07 5.78 5.78 0 0 1 1.94-.31 5.07 5.07 0 0 1 1.85.31 3.67 3.67 0 0 1 1.54 1.07 3.91 3.91 0 0 1 .8 1.71 6.06 6.06 0 0 1 0 1.88Zm-1.79 0a3.36 3.36 0 0 0-.42-2.46 2.27 2.27 0 0 0-.93-.73 3.21 3.21 0 0 0-1.3-.24 4 4 0 0 0-1.37.24 3.48 3.48 0 0 0-1.14.73 4.23 4.23 0 0 0-1.13 2.46 3.32 3.32 0 0 0 .42 2.46 2.14 2.14 0 0 0 .92.72 3.24 3.24 0 0 0 1.3.25 4 4 0 0 0 1.37-.24 3.38 3.38 0 0 0 1.14-.73 4.25 4.25 0 0 0 1.14-2.46ZM63.29 31H63v-.18h.87V31h-.32l-.16.8h-.23Zm1.82-.18-.19 1h-.22l.12-.58-.38.48h-.1l-.2-.49-.12.59h-.22l.2-1h.19l.24.61.49-.61Z"/><path class="cls-1" d="M62.28 30.14h2.91v1.95h-2.91z" style="clip-path:url(#clip-path-2)"/><path class="cls-4" d="m93.78 41.49-2.33 2.25a94.44 94.44 0 0 1-5.83-7.81c-.07-.09-.77-1-1.68-2.49-.48-.77-1-1.69-1.53-2.71a30.19 30.19 0 0 1-2.52-6.62c-1-4.36.23-8 2.16-10.06 0 0-1.65 5.22-.68 8.53a28.33 28.33 0 0 0 2.28 5.36c.44.81.9 1.56 1.36 2.26.94 1.43 1.76 2.55 2.22 3.13 2.14 2.92 4.35 5.72 6.55 8.16Z"/><path class="cls-4" d="M89.18 14c1.94 2.05 3.19 5.7 2.16 10.06a29.69 29.69 0 0 1-2.52 6.62c-.55-.71-1.09-1.42-1.62-2.14a26 26 0 0 0 3.18-8.08 8.87 8.87 0 0 0-1.2-6.46Z"/><path class="cls-5" d="M89.18 14a8.87 8.87 0 0 1 1.2 6.46 26 26 0 0 1-3.18 8.08l-.8-1.09c-.27-.37-.53-.75-.78-1.13 1.91-3.18 3.58-6.32 3.8-9.46a8.54 8.54 0 0 0 0-1.43 9.09 9.09 0 0 0-.24-1.43Z"/><path class="cls-4" d="M89.42 15.47a8.54 8.54 0 0 1 0 1.43 6.48 6.48 0 0 0-7.62 0 9.74 9.74 0 0 1 0-1.43 6.87 6.87 0 0 1 2.8-1.41h.23L85 14h1.04a6.42 6.42 0 0 1 3.38 1.47Zm-3.81 20.46a96.68 96.68 0 0 1-5.84 7.81l-2.32-2.25c2.19-2.44 4.33-5.14 6.48-8.06.91 1.47 1.61 2.4 1.68 2.49Z"/><path class="cls-5" d="M82.4 30.72c.53 1 1 1.94 1.53 2.71-2.15 2.92-4.29 5.62-6.48 8.06l-2.33-2.24c2.57-2.79 5.01-5.63 7.28-8.53Zm-.59-15.23a9.74 9.74 0 0 0 0 1.43c.2 2.73 1.5 5.48 3.08 8.23.24.41.49.82.74 1.21s.51.76.78 1.13l.8 1.09c.53.72 1.07 1.43 1.62 2.14q3.4 4.35 7.28 8.53l-2.33 2.24c-2.2-2.44-4.41-5.24-6.56-8.17-.46-.58-1.28-1.7-2.22-3.13-.46-.7-.92-1.45-1.36-2.26a28.33 28.33 0 0 1-2.28-5.36A11.12 11.12 0 0 1 82 14v.15a8.17 8.17 0 0 0-.2 1.3Z"/><path class="cls-5" d="M89.18 14a5 5 0 0 1 .24 1.43A6.42 6.42 0 0 0 86.07 14h-1.45a6.87 6.87 0 0 0-2.8 1.41 8.17 8.17 0 0 1 .2-1.3L82 14a5.77 5.77 0 0 1 2.57-1.64l.23-.05H86A5.41 5.41 0 0 1 89.18 14Z"/></svg>
