<svg xmlns="http://www.w3.org/2000/svg" xmlns:xlink="http://www.w3.org/1999/xlink" width="87" height="57"><path fill="#273476" d="M0 0h90.7v57.7H0z"/><path fill="#010101" stroke="#fff" stroke-width="4.533" d="m0 0 45.3 22.7m0-22.7L0 22.7"/><defs><path id="a" d="M0 0v11.3h52.9v11.3h-7.6L0 0zm45.3 0H22.7v26.4H0v-3.8L45.3 0z"/></defs><clipPath id="b"><use xlink:href="#a" overflow="visible"/></clipPath><path clip-path="url(#b)" fill="#010101" stroke="#D0202D" stroke-width="3.022" d="m0 0 45.3 22.7m0-22.7L0 22.7"/><path fill="#010101" stroke="#fff" stroke-width="7.556" d="M22.7 0v26.4M0 11.3h52.9"/><path fill="#010101" stroke="#D0202D" stroke-width="4.533" d="M22.7 0v26.4M0 11.3h52.9"/><path fill="#273476" d="M0 22.7h45.3V0h45.3v57.7H0v-35z"/><path fill="#fff" stroke="#fff" stroke-width=".725" stroke-linejoin="round" d="M74.8 17.6v7.1c0 6.1-2.9 8.2-6.8 9.9-3.9-1.7-6.8-3.8-6.8-9.9v-7.1h13.6z"/><path d="M57 34c.2.6 1.8 1.3 3.6.4 1.2-.7 2-1.7 2.8-3.4.2-.4.3-1-.2-1.3-.4-.3-1.1-.6-1.3-.9l-.4-.4c.1.1.1.1.2.3.7.9 0 2.1-.8 2.9-.6.5-1.6 1.9-3.2.6-.3-.4-1.1.8-.7 1.8zm22 0c-.3.6-1.8 1.3-3.6.4-1.2-.7-2-1.7-2.8-3.4-.2-.4-.3-1 .2-1.3.4-.3 1.1-.6 1.3-.9l.4-.4c-.1.1-.1.1-.2.3-.7.9 0 2.1.8 2.9.6.5 1.7 1.9 3.2.6.4-.4 1.1.8.7 1.8zm-11 3.1c2.9 0 7.4-1.3 9.7-5.9.4-.8 0-1.2-.5-1.4-.5-.2-1.1-.7-1.4-1.1.6.6.5 1 .1 1.6-1.8 3.2-4.4 4.7-7.9 4.7s-6-1.6-7.9-4.6c-.4-.7-.5-1.1 0-1.6-.3.3-.9.8-1.4 1.1-.5.3-.9.7-.5 1.4 2.4 4.5 6.9 5.8 9.8 5.8z" fill="#FBEA84" stroke="#fff" stroke-width=".725" stroke-linejoin="round"/><path d="M61.3 31c-.1-.4-.5-.2-.7.2-.2-.3-.4-.5-.5-.8-.4-.7-.5-1.1.1-1.7.3-.3.9-.6 1.3-.3.8.7.4 1.8-.2 2.6zm13.4 0c.1-.4.6-.2.7.2.2-.3.4-.5.5-.8.4-.7.5-1.1-.1-1.7-.3-.3-.8-.6-1.3-.3-.8.7-.4 1.8.2 2.6zM57 34c-.4-.5-.7-2-.7-2.3-.1-.3-.1-.6.3-.8.4-.1.8.4.9.8.2.4.5 1.1.8 1.9-.8-.5-1.5-.2-1.3.4zm22 0c.3-.5.6-2 .7-2.3.1-.3.1-.6-.3-.8-.4-.1-.8.4-.9.8-.2.4-.5 1.1-.8 1.9.8-.5 1.5-.2 1.3.4z" fill="#DA1F26" stroke="#fff" stroke-width=".725" stroke-linejoin="round"/><g stroke="#fff" stroke-width=".725" stroke-linejoin="round"><path fill="#fff" d="M65.2 17.6c-.5.1-.8.1-1.2-.3-.3-.3-.2-.8.1-1 .3-.2.6-.4 1-.3.4.1 1.4 1.1 1.2 1.1-.3.1-.7.4-1.1.5zm1.1-1.8c.1-.1.3-.2.8-.2.4 0 .8 0 .9.3.1.4.3.9.5 1.1-.2.1-1.1.2-1.4 0-.4-.2-.5-1-.8-1.2zm3.2.1c.1-.1.3-.1.8-.1s.7.1.8.4c.1.4 0 .8.2 1.2-.2.1-.9.1-1.2-.2-.5-.3-.4-1.2-.6-1.3z"/><path fill="#1C3462" d="M71.6 16.1c-.3-.1-.5-.1-.7 0 .2.2 0 1.1.4 1.4.3.2.9.2 1.1-.2.2-.4.2-.9-.8-1.2zm-3.7-.4c.1-.1.3-.1.8-.1s.8.1.9.4c.1.4.1.8.4 1.1-.1.1-1.1.1-1.4-.1-.4-.3-.5-1.1-.7-1.3zm-3.1.3c0-.2.3-.2.9-.3.7-.1.7 0 .9.4.1.3.3.7.5.8-.8.2-1.1.3-1.5 0-.3-.2-.7-.6-.8-.8.1.1.1 0 0-.1z"/></g><path fill="#119447" stroke="#fff" stroke-width=".725" stroke-linejoin="round" d="M64.9 12.8c-.3 0-.5-.1-.6-.3-.3-.3-.9-.5-1.2-.2-.1.1-.3.1-.4.1-.2 0-.4.2-.3.5.1-.1.2 0 .3 0v.1c0 .2.4.5.8.5s.6.1.7.2l.1.3c.1.1.1.1 0 .3-.3.2-.4.7 0 1.1.5.4 1.7.9 3-.1s3.3-.4 3.5-.1c.2.4.3.6.3.8 0 .1.2.3.5.3s.5.1.7.2c.2.1.4.1.4-.3-.1-1-.8-1.2-.8-1.6.4 0 .6 0 .8-.1l.4-.5c.1-.1.1-.1 0-.1-.2 0-.3.1-.6.1-2-.2-6.7-1.4-7.6-1.2z"/><path fill="#010101" stroke="#fff" stroke-width=".725" stroke-linejoin="round" d="M72.3 14.1c-.2.1-.4.3-.7.7-.4.5-1.4.9-2.8.9-1.3 0-2.1-.2-2.7-.7-.3-.3-.6-.4-.8-.5-.4-.2-.5-.6-.4-.9-.1.2-.2.4-.4.3-.1 0-.4 0-.4.1 0-.1 0-.2-.1-.2l-.1-.1c.1.1.4-.1.5-.1.1 0 .3-.1.3-.4l-.1-.5c.3-.1 4.1.5 4.9.6.9.2 3.1.5 2.8.8z"/><path fill="#119447" stroke="#fff" stroke-width=".725" stroke-linejoin="round" d="M65.4 12.7c.4-.4.8-.5 1.2-.4h.1c.2-.2.7-.2 1-.1h.1c.4-.1 1.3 0 1.6.3l.1.1c1-.1 1.6.4 2.2 1.1.1.1.2.2.4.3.2 0 .3.1.1.3-.2.1-.4.3-.8.7-.3.4-1.4.9-2.7.9-1.3 0-2-.2-2.6-.7-.3-.3-.6-.4-.8-.5-.2-.1-.5-.4-.4-.7.1-.3-.1-.7-.3-1 .3-.3.6-.4.8-.3z"/><path d="M71.8 13.6c-.7-.7-1.3-1.1-2.2-1.1v.2c.6.2 1.4.9 1.8 1.3 0-.1.3-.2.4-.4zm-2.3-1.1c-.3-.3-1.1-.4-1.6-.3 0 .1 0 .4-.1.5.3.1.5.4.7.6.1 0 .5-.1.7-.2l.3-.6zm-1.7-.3c-.3-.1-.8-.1-1 .1-.1.1-.1.4-.1.6.1 0 .4.1.4.2.2-.1.5-.2.6-.3 0-.3.1-.5.1-.6zm-2.4.5c.4-.4.8-.5 1.2-.4-.1.1-.1.3-.1.5-.4 0-.9.1-1.1.2v-.3zm5.8 1.5c-.3-.5-1.1-1-1.7-1.3 0 0-.1.2-.1.3.2.3.7 1.1.8 1.4.2 0 .7-.3 1-.4zm-2.8.8c.1-.5.1-1.2.1-1.5.2 0 .5-.1.7-.2l.8 1.4c-.4.1-1.2.3-1.6.3zm-1.3-1.8c.2-.1.4-.2.6-.4l.5.5-.1 1.6c-.3 0-.8-.1-1-.2.1-.5.1-1.1 0-1.5zm-1.8.5.1-.4c.3-.2 1-.4 1.6-.1v1.5c-.5-.4-1.3-.9-1.7-1z" fill="#024A3E" stroke="#fff" stroke-width=".725" stroke-linejoin="round"/><path fill="#010101" d="M63.5 13c-.1 0-.1-.2-.3-.2H63c0 .1 0 .1.1.2h.4z"/><path stroke="#fff" stroke-width=".725" stroke-linejoin="round" d="M63.5 13.6c.4 0 .5-.5.7-.6m-.4.7c.3.1.6-.6.8-.6m-1.5-.4c.1 0 .2-.1.4 0 .1.1.2.1.3.1m-.1.5c-.1.2-.4.4-.5.3m-.2-1.2-.3.3m0 .2v.2" fill="none"/><g stroke="#fff" stroke-width=".725" stroke-linejoin="round"><path fill="#010101" d="M66.6 12.4c-.8-.6-1.7-1.1-2.5-1.2.5.3 2.1 1.5 2.5 1.9m.4-1.3c-.9-.6-2-1.3-3-1.4.8.4 1.9 1.3 2.5 2.1m1.7-1.7c.5-1.1 1.1-1.7 1.8-2.4-.4.8-.8 2.3-.9 2.9m-.2-.7c.4-.8.9-1.5 1.8-1.9-.5.5-1.2 1.9-1.4 2.6m0 0c.4-.6 1.3-1.8 2.9-2.4-.9.9-2.2 2.6-2.6 3.2m.2 0c.7-.4 2-.9 2.9-.8-.6.2-2.3 1-3.1 1.7m0-1.1c.6-.7 1.7-1.6 2.9-2-.9.8-2.7 2.7-3 3m-1.6-1.4c-.4-1.3-1.1-2.6-2.1-3 .5.8 1.2 2 1.6 3.7m-.3-.8c-.7-.9-1.7-1.7-2.8-1.9.8.4 2 1.7 2.5 2.9m.7-1c-.9-1.6-1.6-1.9-2-2.2.3.6 1.1 2.2 1.6 2.9"/><path d="M65.7 11.3c.4.3 1.1.9 1.3 1.3" fill="none"/><path fill="#010101" d="M65.7 12.1c.2.2.6.4 1 .7m3.3-.2c.4-.3 1.2-.8 1.6-.9m-1.9.7c.4-.5 1.1-1.1 1.3-1.3m-.3-1-1.4 1.7m.5-2c-.3.3-.8 1.3-.9 1.6m-2-1.5c.2.6.6 1.6.8 2m-1.1-1.4c.1.2.4.7.5 1.1"/></g><g stroke="#fff" stroke-width=".725" stroke-linejoin="round"><path fill="#010101" d="M67.8 10.3c0-.3.2-.7.4-.7.3 0 .4.4.4.7 0 .3-.2.5-.4.5s-.4-.2-.4-.5zm-.4.3c0-.4.3-.7.5-.6.2 0 .3.5.3.7 0 .3-.3.5-.5.5s-.4-.3-.3-.6zm.9.1c-.1-.3.1-.7.3-.7.2 0 .4.3.5.6.1.3-.1.6-.3.6-.2 0-.4-.2-.5-.5zm-.5.3c0-.4.2-.7.4-.7.3 0 .4.4.4.7 0 .3-.2.5-.4.5s-.4-.2-.4-.5zm-.7.2c0-.3.3-.7.5-.7s.4.4.4.7c0 .3-.3.5-.4.5-.2 0-.5-.2-.5-.5zm1.4-.2c0-.3.2-.7.4-.7.3 0 .4.4.4.7 0 .3-.2.5-.4.5s-.4-.2-.4-.5zm-.2.3c0-.4.3-.7.5-.7s.4.4.4.7c0 .3-.2.5-.4.5s-.5-.2-.5-.5zm-.5.3c0-.4.2-.7.4-.7.3 0 .4.4.4.7 0 .3-.2.5-.4.5s-.4-.1-.4-.5zm-1 0c0-.4.2-.7.4-.7s.3.4.3.7c0 .3-.2.5-.3.5-.2.1-.4-.1-.4-.5zm2.1 0c0-.3.2-.7.4-.7s.4.4.4.7c0 .3-.2.5-.4.5s-.4-.2-.4-.5zm.2.6c.1-.4.3-.7.4-.6.1 0 .2.5.1.7 0 .3-.3.5-.4.5-.1-.1-.2-.3-.1-.6zm-.7-.1c0-.3.3-.7.4-.6.2 0 .3.4.3.7 0 .3-.2.5-.4.5-.1-.1-.3-.3-.3-.6zm-1 .1c-.1-.4-.3-.6-.5-.6-.1 0-.2.5-.1.7.1.3.3.5.4.4.2 0 .3-.2.2-.5zm-.3-.1c0-.3.2-.7.4-.7s.4.4.4.7c0 .3-.2.5-.4.5-.1 0-.4-.2-.4-.5zm.6.1c0-.4.2-.7.4-.7.3 0 .4.4.4.7 0 .3-.2.5-.4.5-.2.1-.4-.1-.4-.5zm.2-3.9c-.1.3-.3.5-.1.9-.3-.1-.6-.1-.9.1.3 0 .6.1.8.3-.3 0-.4.1-.5.3.3-.1.5-.1.6-.1-.1.1-.3.3-.3.4.2-.2.5-.1.6-.3-.1.3.1.5.3.8 0-.4.2-.6.1-.8.3.1.4.4.8.4-.2-.1-.3-.5-.5-.5.1 0 .5-.1.6 0-.1-.1-.3-.3-.5-.3.1-.1.4-.4.6-.5-.3 0-.7.1-.8.3.4-.3.3-.8.7-.9-.2 0-.5.1-.8.4.1-.2.1-.5.3-.6-.3.1-.6.4-.7.6-.2-.1-.3-.4-.3-.5zm.1.5v.4m.5-.4c-.1.1-.2.3-.2.5"/><path d="m68.7 9.2-.3.3" fill="none"/></g><path d="M57 34c.2.6 1.8 1.3 3.6.4 1.2-.7 2-1.7 2.8-3.4.2-.4.3-1-.2-1.3-.4-.3-1.1-.6-1.3-.9l-.4-.4c.1.1.1.1.2.3.7.9 0 2.1-.8 2.9-.6.5-1.6 1.9-3.2.6-.3-.4-1.1.8-.7 1.8zm22 0c-.3.6-1.8 1.3-3.6.4-1.2-.7-2-1.7-2.8-3.4-.2-.4-.3-1 .2-1.3.4-.3 1.1-.6 1.3-.9l.4-.4c-.1.1-.1.1-.2.3-.7.9 0 2.1.8 2.9.6.5 1.7 1.9 3.2.6.4-.4 1.1.8.7 1.8zm-11 3.1c2.9 0 7.4-1.3 9.7-5.9.4-.8 0-1.2-.5-1.4-.5-.2-1.1-.7-1.4-1.1.6.6.5 1 .1 1.6-1.8 3.2-4.4 4.7-7.9 4.7s-6-1.6-7.9-4.6c-.4-.7-.5-1.1 0-1.6-.3.3-.9.8-1.4 1.1-.5.3-.9.7-.5 1.4 2.4 4.5 6.9 5.8 9.8 5.8z" fill="#FBEA84" stroke="#010101" stroke-width=".109"/><path d="M61.3 31c-.1-.4-.5-.2-.7.2-.2-.3-.4-.5-.5-.8-.4-.7-.5-1.1.1-1.7.3-.3.9-.6 1.3-.3.8.7.4 1.8-.2 2.6zm13.4 0c.1-.4.6-.2.7.2.2-.3.4-.5.5-.8.4-.7.5-1.1-.1-1.7-.3-.3-.8-.6-1.3-.3-.8.7-.4 1.8.2 2.6zM57 34c-.4-.5-.7-2-.7-2.3-.1-.3-.1-.6.3-.8.4-.1.8.4.9.8.2.4.5 1.1.8 1.9-.8-.5-1.5-.2-1.3.4zm22 0c.3-.5.6-2 .7-2.3.1-.3.1-.6-.3-.8-.4-.1-.8.4-.9.8-.2.4-.5 1.1-.8 1.9.8-.5 1.5-.2 1.3.4z" fill="#DA1F26" stroke="#010101" stroke-width=".109"/><path d="m59.1 30.7-.3.1c-.1 0-.1.1-.1.1l-.1-.3s0 .1.1 0l.6-.3c.1 0 .1-.1 0-.1l.2.4s-.1-.1-.1 0l-.3.1.1.2.3-.1c.1 0 0-.1 0-.1l.1.3s-.1-.1-.1 0l-.5.3c-.1 0-.1.1 0 .1l-.2-.3s.1.1.1 0l.3-.1-.1-.3zm.6.5c.1 0 .1-.1 0-.1l.4.5-.3.2c.1-.1.1-.3.1-.3l-.1-.1h-.1l-.3.2s.1.1.3 0l-.4.3c.2-.1.1-.3.1-.3l-.3.2c-.1 0-.1.1-.1.1l.1.1c0 .1.1.1.3.1l-.3.1-.1-.7s.1.1.1 0l.6-.3zm.6 1.4-.3.2v.1l-.3-.3s.1.1.1 0l.5-.5c.1 0 .1-.1 0-.1l.3.3h-.1l-.2.3.2.1.2-.2c.1-.1 0-.1 0-.1l.3.3h-.1l-.5.4c-.1.1-.1.1 0 .1l-.3-.2h.1l.3-.3-.2-.1zm.5.7.1.1.1-.3-.2.2h-.1s-.1 0-.1.1c-.1.1-.1.1 0 .1l-.2-.2h.1l.7-.4-.4.8v.2l-.3-.3c0 .1.1.1.1 0v-.1l.2-.2zm.3.7h.2l.5-.6c-.1 0-.2 0-.3.1l.1-.2.5.4-.1.1c.1-.1.1-.3 0-.3l-.5.6c-.1 0 0 .1 0 .1l-.4-.2zm1 .2-.2.3v.1l-.3-.2h.1l.4-.5v-.1l.3.2h-.1l-.2.2.3.1.2-.3v-.1l.3.2h-.1l-.4.6c-.1 0 0 .1 0 .1l-.4-.1h.1l.2-.3-.2-.2zm.7 1c.1 0 .1 0 .2-.1l.3-.6v-.1l.6.3-.1.3c.1-.1 0-.3 0-.3h-.1l-.1.1-.1.3s.1.1.3-.1l-.2.4c.1-.2 0-.3-.1-.3l-.1.3v.1l-.6-.3zm1 .5c-.1-.1-.1-.3 0-.5s.2-.4.4-.3c.1 0 .1.3 0 .5s-.2.3-.4.3c.2.1.4 0 .5-.3.1-.2.1-.5-.1-.6-.2-.1-.4 0-.5.3-.1.3-.1.5.1.6zm1.2.1.1-.4v-.1h.2s-.1 0-.1.1l-.2.4c0 .2-.1.3-.4.3-.1 0-.3-.2-.2-.4l.2-.5v-.1l.3.1h-.1l-.2.5c0 .1 0 .3.1.3s.2 0 .3-.2zm.3-.5h.2l.2.7.1-.4v-.1h.2s-.1 0-.1.1l-.2.8-.3-.9-.2.6c0 .1 0 .1.1.1H65s.1 0 .1-.1l.2-.7v-.1zm1.2.7c-.1.3-.2.4-.3.4h-.1v-.1l.1-.7s0-.1.1 0h.1c.1 0 .2.1.1.4h.1c.1-.4-.1-.5-.3-.5-.1 0-.4-.1-.4-.1s.1 0 .1.1v.8c0 .1-.1.1-.1.1l.4.1c.2 0 .4 0 .4-.4l-.2-.1zm.3-.3c0-.1-.1-.1-.1-.1l.7.1v.3c0-.2-.1-.3-.2-.3h-.1v.4s.1 0 .2-.2v.5c0-.2-.1-.2-.1-.2v.4h.1c.1 0 .2 0 .3-.3l-.1.3-.7-.1c.1 0 .1 0 .1-.1l-.1-.7zm1.2.5c0 .3-.1.4-.2.4h-.1v-.8h.1c.1-.1.2 0 .2.4h.1c0-.4-.2-.5-.4-.5h-.4s.1 0 .1.1v.7c0 .1 0 .1-.1.1h.3c.2 0 .4-.1.4-.5v.1zm1.1.3c0 .1 0 .1.1.1h-.4l.1-.1-.1-.7c0-.1-.1-.1-.1-.1h.4l-.1.1.1.7zm.4 0 .1-.1-.1-.8c-.1 0-.1.1-.1.3v-.3l.7-.1v.3c0-.1-.1-.2-.2-.2l.1.8c0 .1 0 .1.1.1h-.6zm1.5-.7-.1-.4c0-.1-.1-.1-.1-.1l.2-.1v.6c.1.1.1.4-.1.4-.1 0-.3 0-.4-.3l-.1-.5c0-.1-.1-.1-.1-.1l.4-.1s-.1.1 0 .1l.1.5c0 .1.1.2.3.2-.1.1-.1 0-.1-.2zm.4-.2c.2-.1.1-.2.1-.3s-.1-.2-.2-.1c0 0-.1 0 0 .1l.1.3.1.3c0 .1.1.1.1 0l-.3.1c.1 0 .1-.1.1-.1l-.3-.6c0-.1-.1-.1-.1-.1l.4-.1c.1 0 .3 0 .4.1 0 .2 0 .3-.2.4h-.2zm.9.1c-.1 0-.3-.1-.4-.4-.1-.2-.1-.4 0-.5.1 0 .3.1.4.3s.1.5 0 .6c.2-.1.3-.3.2-.6-.1-.2-.3-.4-.5-.3-.2.1-.3.4-.2.6.1.2.3.4.5.3zm.1-1 .1-.1.7.4-.2-.4c0-.1-.1-.1-.1-.1l.2-.1s-.1.1 0 .1l.4.7-.8-.4.3.5c0 .1.1.1.1 0l-.2.1v-.1l-.3-.6h-.2zm1.6.1v-.2l-.5-.6c-.1 0-.1.2 0 .3l-.2-.3.5-.4.1.2c-.1-.1-.2-.1-.3-.1l.4.6c0 .1.1.1.1 0l-.1.5zm.4-.9.2.3h.1l-.3.3v-.1l-.4-.7c0-.1-.1 0-.1 0l.3-.3v.1l.2.4.2-.2-.2-.3c0-.1-.1 0-.1 0l.3-.3v.1l.4.5h.1l-.3.3s.1-.1 0-.1l-.2-.3-.2.3zm.3-.8h-.1l.5-.4.2.2c-.1-.1-.3-.1-.3 0l-.1.1v.1l.2.2s.1-.1 0-.3l.3.3c-.2-.2-.3-.1-.3 0l.2.2c0 .1.1.1.1.1l.1-.1s.1-.1 0-.4l.1.3-.5.5s.1-.1 0-.1l-.4-.7zm.9-1v.1c.1.1.1.1.3 0 .1 0 .2-.1.3 0 .2.2.1.3.1.4l-.1.1-.3-.2c.1.1.3.1.4 0 .1-.1 0-.1 0-.2-.1-.1-.1-.1-.3 0h-.4c-.1 0-.1-.1 0-.2 0-.1.1-.1.1-.1v-.1l.3.2c-.3-.1-.4-.1-.4 0zm.3-.3h-.1l.4-.6.3.2c-.1-.1-.3 0-.3 0v.2l.3.2s.1-.1 0-.3l.4.3c-.2-.1-.3 0-.3 0l.3.2h.1s0-.1.1-.1c0-.1.1-.2-.1-.3l.2.2-.4.5v-.2l-.9-.3zm1-.6-.1.2c-.1-.1-.2-.3-.2-.3l.3.1h.2c.1 0 .1.1 0 .1l.2-.3c-.1.1-.1 0-.2 0-.8-.1-.8-.2-.8-.2l.6.7v.1l.1-.2c0 .1-.1.1-.1 0l-.1-.1.1-.1zm-.2-.8s0 .1.1.1.1 0 .3-.1c.1-.1.2-.1.4-.1.2.1.2.3.1.4l-.1.1-.3-.1c.2 0 .3 0 .4-.1 0-.1 0-.1-.1-.2-.1 0-.1 0-.3.1-.1.1-.2.1-.4.1s-.2-.1-.1-.2c0-.1 0-.1.1-.1v-.1l.3.1c-.3-.1-.4 0-.4.1z" fill="#024A3E"/><g stroke="#010101" stroke-width=".109"><path fill="#fff" d="M65.2 17.6c-.5.1-.8.1-1.2-.3-.3-.3-.2-.8.1-1 .3-.2.6-.4 1-.3.4.1 1.4 1.1 1.2 1.1-.3.1-.7.4-1.1.5zm1.1-1.8c.1-.1.3-.2.8-.2.4 0 .8 0 .9.3.1.4.3.9.5 1.1-.2.1-1.1.2-1.4 0-.4-.2-.5-1-.8-1.2zm3.2.1c.1-.1.3-.1.8-.1s.7.1.8.4c.1.4 0 .8.2 1.2-.2.1-.9.1-1.2-.2-.5-.3-.4-1.2-.6-1.3z"/><path fill="#1C3462" d="M71.6 16.1c-.3-.1-.5-.1-.7 0 .2.2 0 1.1.4 1.4.3.2.9.2 1.1-.2.2-.4.2-.9-.8-1.2zm-3.7-.4c.1-.1.3-.1.8-.1s.8.1.9.4c.1.4.1.8.4 1.1-.1.1-1.1.1-1.4-.1-.4-.3-.5-1.1-.7-1.3zm-3.1.3c0-.2.3-.2.9-.3.7-.1.7 0 .9.4.1.3.3.7.5.8-.8.2-1.1.3-1.5 0-.3-.2-.7-.6-.8-.8.1.1.1 0 0-.1z"/></g><g stroke="#010101" stroke-width=".049"><path fill="#FAD051" d="M66.6 12.4c-.8-.6-1.7-1.1-2.5-1.2.5.3 2.1 1.5 2.5 1.9m.4-1.3c-.9-.6-2-1.3-3-1.4.8.4 1.9 1.3 2.5 2.1m1.7-1.7c.5-1.1 1.1-1.7 1.8-2.4-.4.8-.8 2.3-.9 2.9m-.2-.7c.4-.8.9-1.5 1.8-1.9-.5.5-1.2 1.9-1.4 2.6m0 0c.4-.6 1.3-1.8 2.9-2.4-.9.9-2.2 2.6-2.6 3.2m.2 0c.7-.4 2-.9 2.9-.8-.6.2-2.3 1-3.1 1.7m0-1.1c.6-.7 1.7-1.6 2.9-2-.9.8-2.7 2.7-3 3m-1.6-1.4c-.4-1.3-1.1-2.6-2.1-3 .5.8 1.2 2 1.6 3.7m-.3-.8c-.7-.9-1.7-1.7-2.8-1.9.8.4 2 1.7 2.5 2.9m.7-1c-.9-1.6-1.6-1.9-2-2.2.3.6 1.1 2.2 1.6 2.9"/><path d="M65.7 11.3c.4.3 1.1.9 1.3 1.3" fill="none"/><path fill="#FAD051" d="M65.7 12.1c.2.2.6.4 1 .7m3.3-.2c.4-.3 1.2-.8 1.6-.9m-1.9.7c.4-.5 1.1-1.1 1.3-1.3m-.3-1-1.4 1.7m.5-2c-.3.3-.8 1.3-.9 1.6m-2-1.5c.2.6.6 1.6.8 2m-1.1-1.4c.1.2.4.7.5 1.1m.7-1.3c0-.3.2-.7.4-.7.3 0 .4.4.4.7 0 .3-.2.5-.4.5s-.4-.2-.4-.5zm-.4.3c0-.4.3-.7.5-.6.2 0 .3.5.3.7 0 .3-.3.5-.5.5s-.4-.3-.3-.6zm.9.1c-.1-.3.1-.7.3-.7.2 0 .4.3.5.6.1.3-.1.6-.3.6-.2 0-.4-.2-.5-.5zm-.5.3c0-.4.2-.7.4-.7.3 0 .4.4.4.7 0 .3-.2.5-.4.5s-.4-.2-.4-.5zm-.7.2c0-.3.3-.7.5-.7s.4.4.4.7c0 .3-.3.5-.4.5-.2 0-.5-.2-.5-.5zm1.4-.2c0-.3.2-.7.4-.7.3 0 .4.4.4.7 0 .3-.2.5-.4.5s-.4-.2-.4-.5zm-.2.3c0-.4.3-.7.5-.7s.4.4.4.7c0 .3-.2.5-.4.5s-.5-.2-.5-.5zm-.5.3c0-.4.2-.7.4-.7.3 0 .4.4.4.7 0 .3-.2.5-.4.5s-.4-.1-.4-.5zm-1 0c0-.4.2-.7.4-.7s.3.4.3.7c0 .3-.2.5-.3.5-.2.1-.4-.1-.4-.5zm2.1 0c0-.3.2-.7.4-.7s.4.4.4.7c0 .3-.2.5-.4.5s-.4-.2-.4-.5zm.2.6c.1-.4.3-.7.4-.6.1 0 .2.5.1.7 0 .3-.3.5-.4.5-.1-.1-.2-.3-.1-.6zm-.7-.1c0-.3.3-.7.4-.6.2 0 .3.4.3.7 0 .3-.2.5-.4.5-.1-.1-.3-.3-.3-.6zm-1 .1c-.1-.4-.3-.6-.5-.6-.1 0-.2.5-.1.7.1.3.3.5.4.4.2 0 .3-.2.2-.5zm-.3-.1c0-.3.2-.7.4-.7s.4.4.4.7c0 .3-.2.5-.4.5-.1 0-.4-.2-.4-.5zm.6.1c0-.4.2-.7.4-.7.3 0 .4.4.4.7 0 .3-.2.5-.4.5-.2.1-.4-.1-.4-.5zm.2-3.9c-.1.3-.3.5-.1.9-.3-.1-.6-.1-.9.1.3 0 .6.1.8.3-.3 0-.4.1-.5.3.3-.1.5-.1.6-.1-.1.1-.3.3-.3.4.2-.2.5-.1.6-.3-.1.3.1.5.3.8 0-.4.2-.6.1-.8.3.1.4.4.8.4-.2-.1-.3-.5-.5-.5.1 0 .5-.1.6 0-.1-.1-.3-.3-.5-.3.1-.1.4-.4.6-.5-.3 0-.7.1-.8.3.4-.3.3-.8.7-.9-.2 0-.5.1-.8.4.1-.2.1-.5.3-.6-.3.1-.6.4-.7.6-.2-.1-.3-.4-.3-.5zm.1.5v.4m.5-.4c-.1.1-.2.3-.2.5"/><path d="m68.7 9.2-.3.3" fill="none"/></g><path fill="#119447" stroke="#010101" stroke-width=".109" d="M64.9 12.8c-.3 0-.5-.1-.6-.3-.3-.3-.9-.5-1.2-.2-.1.1-.3.1-.4.1-.2 0-.4.2-.3.5.1-.1.2 0 .3 0v.1c0 .2.4.5.8.5s.6.1.7.2l.1.3c.1.1.1.1 0 .3-.3.2-.4.7 0 1.1.5.4 1.7.9 3-.1s3.3-.4 3.5-.1c.2.4.3.6.3.8 0 .1.2.3.5.3s.5.1.7.2c.2.1.4.1.4-.3-.1-1-.8-1.2-.8-1.6.4 0 .6 0 .8-.1l.4-.5c.1-.1.1-.1 0-.1-.2 0-.3.1-.6.1-2-.2-6.7-1.4-7.6-1.2z"/><path fill="#010101" stroke="#010101" stroke-width=".109" d="M72.3 14.1c-.2.1-.4.3-.7.7-.4.5-1.4.9-2.8.9-1.3 0-2.1-.2-2.7-.7-.3-.3-.6-.4-.8-.5-.4-.2-.5-.6-.4-.9-.1.2-.2.4-.4.3-.1 0-.4 0-.4.1 0-.1 0-.2-.1-.2l-.1-.1c.1.1.4-.1.5-.1.1 0 .3-.1.3-.4l-.1-.5c.3-.1 4.1.5 4.9.6.9.2 3.1.5 2.8.8z"/><path fill="#119447" stroke="#010101" stroke-width=".109" d="M65.4 12.7c.4-.4.8-.5 1.2-.4h.1c.2-.2.7-.2 1-.1h.1c.4-.1 1.3 0 1.6.3l.1.1c1-.1 1.6.4 2.2 1.1.1.1.2.2.4.3.2 0 .3.1.1.3-.2.1-.4.3-.8.7-.3.4-1.4.9-2.7.9-1.3 0-2-.2-2.6-.7-.3-.3-.6-.4-.8-.5-.2-.1-.5-.4-.4-.7.1-.3-.1-.7-.3-1 .3-.3.6-.4.8-.3z"/><path d="M71.8 13.6c-.7-.7-1.3-1.1-2.2-1.1v.2c.6.2 1.4.9 1.8 1.3 0-.1.3-.2.4-.4zm-2.3-1.1c-.3-.3-1.1-.4-1.6-.3 0 .1 0 .4-.1.5.3.1.5.4.7.6.1 0 .5-.1.7-.2l.3-.6zm-1.7-.3c-.3-.1-.8-.1-1 .1-.1.1-.1.4-.1.6.1 0 .4.1.4.2.2-.1.5-.2.6-.3 0-.3.1-.5.1-.6zm-2.4.5c.4-.4.8-.5 1.2-.4-.1.1-.1.3-.1.5-.4 0-.9.1-1.1.2v-.3zm5.8 1.5c-.3-.5-1.1-1-1.7-1.3 0 0-.1.2-.1.3.2.3.7 1.1.8 1.4.2 0 .7-.3 1-.4zm-2.8.8c.1-.5.1-1.2.1-1.5.2 0 .5-.1.7-.2l.8 1.4c-.4.1-1.2.3-1.6.3zm-1.3-1.8c.2-.1.4-.2.6-.4l.5.5-.1 1.6c-.3 0-.8-.1-1-.2.1-.5.1-1.1 0-1.5zm-1.8.5.1-.4c.3-.2 1-.4 1.6-.1v1.5c-.5-.4-1.3-.9-1.7-1z" fill="#024A3E" stroke="#010101" stroke-width=".109"/><path fill="#010101" d="M63.5 13c-.1 0-.1-.2-.3-.2H63c0 .1 0 .1.1.2h.4z"/><path stroke="#010101" stroke-width=".109" d="M63.5 13.6c.4 0 .5-.5.7-.6m-.4.7c.3.1.6-.6.8-.6m-1.5-.4c.1 0 .2-.1.4 0 .1.1.2.1.3.1m-.1.5c-.1.2-.4.4-.5.3m-.2-1.2-.3.3m0 .2v.2" fill="none"/><path fill="#fff" d="M74.8 17.6v7.1c0 6.1-2.9 8.2-6.8 9.9-3.9-1.7-6.8-3.8-6.8-9.9v-7.1h13.6z"/><path fill="#D0202D" d="M68 23.6c.3 0 .8-.3 1.3-.7.5-.5 1.3-.7 2.1 0s1.3.4 1.8 0c.4-.4.8-.5 1.6-.5v-4.7H61.2v4.7c.8 0 1.2.1 1.6.5.4.4.9.7 1.8 0s1.6-.5 2.1 0c.4.4.9.7 1.3.7z"/><path d="M68 27.2c.4 0 1.3-.5 1.5-.6.8-.5 1.4 0 1.8.2.5.2 1.4.5 2 0 .6-.5.9-.4 1.3-.4.1-.5.1-1.1.1-1.7v-.4c-.5-.1-.8 0-1.3.5s-1.2.4-2 .1c-.8-.3-1.5-.9-2.3 0-.2.3-.7.6-1.2.6s-1-.4-1.2-.6c-.8-.9-1.5-.3-2.3 0-.8.3-1.4.4-2-.1-.5-.5-.8-.6-1.3-.5v.4c0 .6 0 1.2.1 1.7.4 0 .7 0 1.3.4.6.5 1.6.2 2 0 .5-.2 1.1-.7 1.9-.2.3.1 1.1.6 1.6.6zm0 1.6c.5 0 1.2-.2 1.8-.5.7-.4 1.2-.2 2 .1.8.4 1.4.3 1.8 0 .2-.1.4-.4.9-.3-.2.9-.5 1.7-.9 2.4-.7.2-1.1.2-1.9-.1-.8-.4-1.7-.6-2.2-.3-.5.3-1 .4-1.4.4-.4 0-.9-.1-1.4-.4-.5-.3-1.4-.1-2.2.3-.8.3-1.2.3-1.9.1-.4-.7-.7-1.4-.9-2.4.5-.1.7.2.9.3.4.3 1.1.4 1.8 0 .8-.4 1.3-.5 2-.1.4.2 1.1.5 1.6.5zm0 5.7c1.4-.6 2.8-1.3 3.9-2.2-.3-.1-.5 0-.7-.2-.3-.2-1-.3-1.7.1-.7.3-1 .4-1.5.4s-.8-.1-1.5-.4c-.7-.4-1.4-.3-1.7-.1-.3.2-.4.1-.7.2 1.1.9 2.4 1.6 3.9 2.2z" fill="#10529F"/><path fill="#FAD051" stroke="#010101" stroke-width=".109" d="M67.1 19.4v.3l.2.3h.3l2.5-.3c.8 0 1.2.3 1.7.3.3 0 .5-.2.5-.4s-.3-.3-.9-.3c-.9 0-1.3.2-2.1.2-1.1 0-1.3-.4-1.3-.6s.2-.4.8-.4c.2 0 .3 0 .4-.1 0-.1.1-.2.4-.3.3-.1.8 0 1-.2 0 .1-.2.4-.4.4.4-.1.8-.1.8.2-.2-.1-.5 0-.6 0-.1 0-.2.1-.4.1.1 0 .2.3.4.3-.2.2-.6.2-.9 0-.1 0-.4-.1-.6-.1-.4 0-.6.1-.6.2 0 .2.2.3.9.3s1-.2 2-.2l-.1-.3c.4 0 .8.1.9.4 0-.3.2-.5.1-.7.2 0 .4.3.4.4l.1-.2c.2.1.3.4.3.6l.3-.3c.1.1 0 .6-.2.7.2-.1.5-.1.8.1-.2 0-.3.1-.4.1-.4.3-1.2.4-1.7.4-.6 0-.7-.1-1-.1.2 0 .7.5 1.1.5h.5c.1 0 .3 0 .4.1.1.1.3.2.5.2 0 .1-.1.2-.2.3l.3.3c-.1 0-.1.1-.3 0 .1.1.1.3.2.3H73l.1.4c.1.1-.1.3-.3.2 0 .1-.1.2-.2.2s-.2-.1-.1-.2v-.1c-.1.1-.2.1-.3.1l-.1-.1c-.3.1-.4-.1-.3-.3 0-.1.3-.1.3-.1.1 0 .1.1.2 0 .1 0 .1-.1.1-.2s-.1-.4-.6-.4-1.4-.1-1.8-.3c0 0-.1 0-.1-.1 0 .1-.1.2-.1.4s.1.3.3.4c-.1.2-.3.1-.4 0l-.1.3-.1-.2c-.1.3-.4.4-.5.3-.2.1-.4.1-.5 0-.1.1-.3.1-.3 0l-.1.2c0 .1-.1.1-.2.1s-.1-.2 0-.3c-.1.1-.2.1-.3 0 0-.1 0-.2.1-.2h.1-.3c-.1-.1-.1-.1 0-.2 0 0 .1-.1.2 0 0-.1 0-.1.1-.1s.2 0 .3.1c.1.1.1.1.4.1.2 0 .5-.2.7-.4-.6-.1-.3-.5-.1-.7h-.5c-.8.4-1.6.9-2.1.7 0 .1 0 .1.1.2-.1 0-.3 0-.4-.1 0 .1-.1.3 0 .4l-.4-.2c.1.1 0 .2 0 .3-.1-.1-.3-.2-.4-.1-.3 0-.4.1-.5 0-.1.1-.2.2-.3.2V22c0 .1-.1.3-.3.3V22l-.3.3V22c-.1.1-.2.2-.4.3 0-.1.1-.1 0-.2 0 .1-.3.2-.4.2 0 .1-.1.2-.3.1-.1 0-.2-.1-.1-.2-.1 0-.3-.1-.2-.3v-.1c-.1-.1-.1-.2 0-.3h.2c0-.3.3-.3.4-.1.1.1.3.3.5.3h.2c.2-.1.7-.3.9-.5v-.3c-.1.1-.3.1-.4.3V21H64s.1-.2.1-.3h-.5c.1-.1.1-.2.1-.3h-.4c0-.1.1-.3.2-.3-.1 0-.3 0-.5-.1l.3-.2c-.3 0-.4-.1-.5-.2l.3-.1c-.1 0-.3-.2-.2-.3l-.1.1c-.1 0-.2 0-.3-.1-.1-.1 0-.3.1-.4-.2 0-.2-.2-.1-.3 0-.1.2-.2.3-.1l.1.1v-.3c0-.1.1-.1.2-.1s.2.1.2.2 0 .2.1.3v-.1c0-.1.2-.1.3-.1.1 0 .1.3 0 .4-.1.1 0 .2 0 .3.3.4.7.7 1.1.8 0-.1.1-.3.2-.4 0-.1 0-.2.1-.3 0-.2.1-.3.3-.3l-.1-.1c-.1-.1-.2-.3-.1-.4.1-.1.3-.1.4 0 0-.2.2-.4.2-.5l.1.4c0-.1.3-.3.5-.4-.1.1.1.3.1.4.1-.2.4-.3.6-.3-.1.1-.1.2-.1.3.1 0 .3 0 .4-.1l-.1.4h.3l-.2.3c.1-.1.3-.1.4.1.1.1 0 .3-.1.4-.5-.1-.6 0-.6 0z"/><path d="M64.8 19.8c-.3.1-.3.4-.4.5m.4-.2c-.4.2-.5.4-.4.8m.6.2c.2-.1.4-.1.5-.5m-.1.2-.1.5c.2-.1.3-.3.4-.5m-.2.4c.1-.1.4-.3.5-.5 0 .1 0 .3-.1.4.2-.2.3-.3.3-.5v.1c.1-.1.1-.1.1-.3m0 .2v.2c.1-.1.2-.3.2-.4m0 .1c.2-.1.3-.4.3-.7m-.1.4c.1-.1.2-.2.2-.5m-.4-1c-.1 0-.1 0-.1.1l-.1.3c0 .1-.1.2-.2.1s-.1-.1-.1-.2l.2-.3c0-.1.1-.2.1-.2-.2.1-.4 0-.5-.2m1 .5c-.1 0-.1-.1-.3 0h-.2m0 .2s.2.1.4 0c-.1 0-.3-.1-.1-.3m-.7 0c-.1 0-.3.1-.2.2s.2.1.3 0m-.3 1.6.1-.1c.1 0 .1 0 .2-.1.1 0 .3-.1.3-.2.1 0 .1-.2.1-.3 0 0 .1 0 .1-.1.1 0 .2 0 .2-.1m-1.4-.3-.1.1c0 .1 0 .3-.1.3v.5m.3-1.7c-.1.2 0 .4.1.4m0 .2c0 .2 0 .4-.1.5 0 .1-.1.3.2.4.3.1.5 0 .7-.5m.5 1.5s0 .1-.1.1m.4-.2c0 .1-.1.2-.1.2m.3-.3c0 .1 0 .2-.1.2m-2.1-2.4.1.1c-.1-.1-.2.1-.1.2m-.1.3-.1.1m0 .2h-.1m-1.6-.6-.4-.1.1.5-.2-.3c-.1-.1-.2-.1-.2-.1m2.2 1.5c-.3.2-.4.4-.4.7m.7-.5c-.1.1-.2.3-.3.3m-1.1.8c-.3.1-.5 0-.7-.1 0 0-.1 0-.1-.1m1.8-.4-.1.4c.3-.1.5-.4.6-.7m-2.6 1h.3m6-1.2c.1 0 .2.1.2.1 0-.1.2-.2.3-.2m-3 .9c0-.1 0-.3.3-.4m-1.7 1c0-.1 0-.2.1-.3m-1.7.4-.1.2m-.5-.1.3-.2m4.6-.3h-.1m.1.2.2.2-.1.1m1.1-.1c.1 0 .1-.1.1-.3m-.5.3c.1 0 .2-.1.3-.2m.7-.1v-.2m2.7.5c-.1-.1-.1-.2 0-.3l.2-.1m-2.4-.8c-.6-.3-.5-.6-1-.5m3.5 1.6v.2m.4-.2v.3M70 18.6h-.3m-2.8 1.2c0 .1.1.2.4.2h-.1m-.1-.6c-.1-.1 0-.2.1-.3h-.3c-.1.2-.3.3-.4.2 0 .1-.2.3-.4.3-.1-.1-.2-.2-.1-.3-.2.2-.4.1-.5 0 0-.1 0-.3.1-.5" stroke="#010101" stroke-width=".109" fill="none"/><path fill="#010101" d="m69.4 20.8-.3.1c-.1.1 0 .1.1.1 0 .1 0 .1.1.1l.1.3c.1-.1.1-.3.1-.4s-.2-.1-.1-.2z"/><path d="M66.1 19.6c-.1-.1-.2-.2-.1-.3 0 .1-.1.1-.2.1-.1.3-.3.6-.5.6-.3 0-.2.3 0 .3.3.1.5-.1.8-.7zm-3.6-.9c.1-.1 0-.2 0-.3-.1 0-.3 0-.4.2h.3c-.1.2 0 .2.1.1zm.2-.6c.3 0 .3 0 .4.1 0 .1 0 .2-.1.2l-.2-.1c0-.1 0-.2-.1-.2zm.7.6c.2 0 .3-.1.1-.2 0-.1-.1-.2-.3-.1l.2.3zm-1.3.6c.1.2.3.2.4.1.1 0 .1-.1.1-.2-.1-.1-.2-.1-.2 0-.1.1-.3.1-.3.1zm.5 2.2c-.1-.1-.3-.1-.5 0 .1 0 .2 0 .3.1 0 .1.1.1.1.1.1-.1.1-.2.1-.2zm.3-.2c0-.2-.3-.2-.4-.1.1 0 .2.1.2.1 0 .1.1.1.1.1l.1-.1zm-.4.6c-.2 0-.3.2-.3.4 0-.1.1-.2.3-.1.1 0 .1 0 .1-.1s0-.2-.1-.2zm.1.6c.1 0 .1 0 .2-.1 0-.1.1-.1.2 0 .1 0 .1.2 0 .3-.2-.1-.4 0-.4-.2zm5-1.1c-.1 0-.3-.1-.4 0 .1 0 .2 0 .2.1s.1.1.1 0c.1 0 .1 0 .1-.1zm-.3.3c-.1-.1-.3.1-.4.3 0 0 .2-.1.3-.1 0 0 .1-.1.1-.2zm.2.3c-.1 0-.3.1-.3.3 0-.1.1-.1.2-.1s.2 0 .2-.1l-.1-.1zm.3.3c-.1 0-.2 0-.2.1v.3c.1-.1.1-.1.2-.1 0-.1.1-.3 0-.3zm4.1-.4c-.1-.1-.2 0-.2 0 0 .1-.1.3 0 .4 0-.1.1-.2.1-.2.1.1.2-.1.1-.2zm.2.2c-.1.1-.1.3 0 .5 0-.1 0-.2.1-.2s.1-.1.1-.2c-.1-.1-.2-.1-.2-.1zm.4.1c-.1 0-.1 0-.1.1s0 .3.1.3c0-.1 0-.1.1-.2.1 0 .1-.1-.1-.2zm.4 0c-.1 0-.1.1-.1.2s.1.1.3.1l-.1-.1c0-.1 0-.2-.1-.2z" fill="#1C3462"/><path fill="#FAD051" d="m62.8 29 1.8-5.6 1.8 5.6-4.7-3.4h5.9L62.8 29z"/><path fill="#134A23" d="m63.2 28.5 3.8-2.8h-4.6l3.7 2.8-1.5-4.5-1.4 4.5z"/><path fill="#FAD051" d="m69.6 29 1.8-5.6 1.8 5.6-4.7-3.4h5.9L69.6 29z"/><path fill="#134A23" d="m70 28.5 3.8-2.8h-4.6l3.7 2.8-1.5-4.5-1.4 4.5z"/><path fill="#FAD051" d="m66.2 32.9 1.8-5.6 1.8 5.6-4.7-3.4H71l-4.8 3.4z"/><path fill="#134A23" d="m66.6 32.4 3.8-2.8h-4.6l3.7 2.8L68 28l-1.4 4.4z"/><path stroke="#010101" stroke-width=".109" d="M74.8 17.6v7.1c0 6.1-2.9 8.2-6.8 9.9-3.9-1.7-6.8-3.8-6.8-9.9v-7.1h13.6z" fill="none"/></svg>
