<svg id="Layer_1" data-name="Layer 1" xmlns="http://www.w3.org/2000/svg" viewBox="0 0 264 153"><defs><style>.cls-2{fill:#fff;fill-rule:evenodd}</style></defs><path style="fill:#d71920" d="M72.16 31.38h119.97v90.65H72.16z"/><path class="cls-2" d="M137.91 48.15a5.76 5.76 0 0 0-1.2 3.45v10.86a4 4 0 0 1-.87 2.24c-.27.27-1.94 1.79-2.09 2h.95c.31-.29 3.53-3.15 3.86-3.53A5.56 5.56 0 0 0 140 59.4V48.97a4 4 0 0 1 1.1-2.85c.38-.43 1.65-1.49 1.88-1.73h-1c-.24.24-3.79 3.45-4.12 3.79m-7.92 39.44 3.94 3.44h2.64a9.69 9.69 0 0 0 6.75-2.77 8.11 8.11 0 0 0 2.21-5.83v-5.63A4.57 4.57 0 0 0 144 73.5l-1.33-1.26v4.33l1.51 1.57c1.17 1.24 1.16 3.5-2.54 7.11a7.5 7.5 0 0 1-5 2.38h-6.63Z"/><path class="cls-2" d="M140.9 64.47a4.33 4.33 0 0 0-.86 2.6v2.13h2.17a3.31 3.31 0 0 0 2.19-1.2s0-2.12 0-2.12a5.83 5.83 0 0 0 1.16 1.22c.23-.29 2.2-2.68 3.85-2.69 2.76 0 2.14 3.46 1 4.57-.36.36-2 1.85-2.5 2.33-1.3 1.24-3.53.65-3.53-2.56 0 0-2.39 2.27-2.75 2.57S140 73 140 73v5.63a5.46 5.46 0 0 1-1.59 4.37c-.28.32-3.33 3.09-3.73 3.39h-1s1.78-1.62 2.14-2a3.82 3.82 0 0 0 .88-2.7v-8.85h-13.87c-4.81 0-5.84-5.34-5.87-6.77v-5.35A3.57 3.57 0 0 0 115.5 58h1.36c.16.07 1 .41 1 3.68 0 0-.06 3.81-.06 4a3.52 3.52 0 0 0 3.2 3.54h15.65a6.1 6.1 0 0 1 1.19-2.86c.43-.48 3.79-3.55 4.17-3.84h1c-.15.14-1.77 1.59-2.14 2m5.13 3.15a13.33 13.33 0 0 0 1.34 1.55c1.69 1.35 2.49-.1 1.36-1.65-.45-.61-2.18-.44-2.69.11"/><path class="cls-2" d="M129.26 77.76c0 .76-2.41 2.76-2.56 2.9-.17-.81-.78-1.71-2.58-3.51l2.64-2.64c1.77 1.77 2.5 2.15 2.5 3.25m4.58-30.29c.53.53 1.67 2 1 2.65l-1.54 1.56a4.18 4.18 0 0 0-.93-1.18s0 2.55 0 2.87a1.91 1.91 0 0 1-.46 1.48 7.67 7.67 0 0 1 2.09 4.83v2.79a1.93 1.93 0 0 1-.53 1.41c-.19.21-2.16 2.2-2.46 2.47a2.32 2.32 0 0 1-1.62.6h-7.34c-1.16 0-2.35-.9-2.35-1.8v-2.72a2 2 0 0 0 1.68.93 2.93 2.93 0 0 0 1.68-.78l5.55-5.8a45 45 0 0 0-4.15-3.42 1.42 1.42 0 0 0-2 .85 18.59 18.59 0 0 0 0 5.55l-2-2a2.82 2.82 0 0 1 .19-3.64 5.38 5.38 0 0 1 3.52-1.83h2.93c2 0 4.12 2 4.12 2a1.24 1.24 0 0 0 .32-.68v-3.72c-1.48-1.48-1.68-3-1-3.71 1.32-1.32 1.8-1.79 1.8-1.79a4.79 4.79 0 0 0 1.53 3.15m-9.21 14.74a6 6 0 0 1-1.53 1.35h8.26c2.24 0 1.79-1.39 1.39-2.09a31.39 31.39 0 0 0-3.42-4.11l-4.71 4.85"/><path class="cls-2" d="M115.21 69.74h-1.36a3.25 3.25 0 0 1 1.46 2.87v6.6c0 4.29 3.54 8.26 7.84 8.26h3.59a5.19 5.19 0 0 0 4.26-1.69c.48-.42 1.1-1.12 1.33-1.38a4.56 4.56 0 0 0 1.55-3.73v-2.16a4 4 0 0 0-1.6-3.17c-.38-.34-1.28-1.2-1.28-1.2v4.42s.91 1 1.3 1.28a2.28 2.28 0 0 1-1.35 4h-7.89a7 7 0 0 1-6.84-6.84v-3.58c0-3.68-1-3.68-1-3.68"/><path class="cls-2" d="M123.85 77.77c0 .75-2.41 2.76-2.56 2.9-.17-.81-.78-1.71-2.58-3.51l2.64-2.64c1.77 1.77 2.5 2.15 2.5 3.25M96.23 107.1H92c-1.33 0-1.23-1.11-1.35-2.05V99h2a7.51 7.51 0 0 1 4 .63 4.37 4.37 0 0 0-4.06-2.46h-2v-1.99a5.17 5.17 0 0 0-.35-2.18H93c2.42 0 4.28 0 6.23 1.26 0 0-.37-3.2-5-3.2h-9.12a5.43 5.43 0 0 1 1.54 4.11v11c0 2.77 1.11 2.85 1.11 2.85h9a2.48 2.48 0 0 0 2.75-2.25v-1.06s-.65 1.33-3.33 1.33m23.97-.87v-7.73c0-3-2.45-3.8-4.27-3.8a3.69 3.69 0 0 0-3.45 2.71 4 4 0 0 0-4-2.73 3.84 3.84 0 0 0-3.66 2.78s-.07-2.68-2.41-2.68h-2.3s1.33.55 1.33 2.87v8.58c0 2.83 1.14 2.88 1.14 2.88h3.78a3.67 3.67 0 0 1-1.45-2.91v-7.61a2.15 2.15 0 0 1 2.29-1.53 2.1 2.1 0 0 1 1.92 2v7.07c0 2.87 1.13 2.88 1.13 2.88h3.8a3.76 3.76 0 0 1-1.45-2.91v-7.51a2.13 2.13 0 0 1 4.15.59s0 6.46 0 7.06c0 2.89 1.13 2.87 1.13 2.87h3.8a3.69 3.69 0 0 1-1.45-2.88m6.61-.01a3.64 3.64 0 0 0 1.46 2.88h-3.78s-1.16 0-1.16-2.85v-8.62c0-2.27-1.32-2.85-1.32-2.85h2.3c.81 0 2.49 0 2.49 3.21v8.23Zm11.66-10.36a1.89 1.89 0 0 0-1.94-1c-2.38 0-3 2.82-3 2.82-.19-2.23-.79-2.89-2.47-2.89h-2.3s1.33.54 1.33 2.86v8.59c0 2.84 1.14 2.88 1.14 2.88H135a3.66 3.66 0 0 1-1.45-2.9v-7a2.05 2.05 0 0 1 .93-1.45 3 3 0 0 1 3.93.57V95.8Zm17.66.52a4.86 4.86 0 0 1 2.24.56v-2.17h-3.18v-3.28a11.78 11.78 0 0 1-2.55 2.85 22.05 22.05 0 0 1-3.33 2h2.4v10c0 2.76 1.16 2.76 1.16 2.76h3.78a3.57 3.57 0 0 1-1.46-2.8v-9.93h.93m11.52 4.33c-2.12 2.22-3.79 1.87-5.12 3.5a3.93 3.93 0 0 0 1.9 3 3.28 3.28 0 0 0 4.43-1.5v2.31s-1 1.13-4.06 1.13c-3.72 0-6.27-2.92-6.27-6.89s2.08-7.52 6-7.54 5.92 3.08 3.13 6m-2.32-.91c.63-1.16 1.12-4.11-1-3.95-2.49.19-2 6.8-2 6.8.83-.9 2.08-1.09 3-2.85M125 93.55a1.73 1.73 0 1 0-1.77-1.73 1.75 1.75 0 0 0 1.77 1.73m17.39 13.87a1.7 1.7 0 0 1-1.48-1.82c0-3.58 2.93-4.07 3.71-5v6a2.59 2.59 0 0 1-2.24.81m2.23-8.23c-.88 1.54-7.73 1.87-6.68 7.17.41 2.1 1.81 2.71 3.58 2.71a3.42 3.42 0 0 0 3.17-1.72c.26 1.6 1.06 1.69 1.06 1.69h3.79a3.62 3.62 0 0 1-1.47-2.87v-8.04c0-1.93-2.14-3.43-4.41-3.43a6.24 6.24 0 0 0-3.55 1.05v2.5a3.18 3.18 0 0 1 2.75-2c1.93 0 2.07 1 2.06 1.44a2 2 0 0 1-.29 1.49m31.38 5.99a2.54 2.54 0 0 1-2.81 2.34 3.21 3.21 0 0 1-2.76-2v2.5a6.67 6.67 0 0 0 3.61 1c2.59 0 5.21-2 5.15-4.71a4.25 4.25 0 0 0-.89-2.49 13.12 13.12 0 0 0-3.71-2.76 2.4 2.4 0 0 1-1.09-1.48c0-.48.21-1.45 2.14-1.45a3.19 3.19 0 0 1 2.68 2v-2.4a6.26 6.26 0 0 0-3.62-1.14c-2.27 0-4.33 1.5-4.29 3.43a4.54 4.54 0 0 0 2.13 3.82 17.74 17.74 0 0 0 2 1.22 2.47 2.47 0 0 1 1.52 2.08"/></svg>
