<svg id="Layer_2" data-name="Layer 2" xmlns="http://www.w3.org/2000/svg" viewBox="0 0 1548.11 234.69"><defs><clipPath id="clip-path" transform="translate(-31.29 -57.52)"><path class="cls-1" d="m285 78.74 44.15 211.38h-63.8l-9.4-45.3H179l-27.13 45.3H81.29l29.29-45.3-70.71-.06L248.25 207l-6.54-30.46-5.51-27.3-11.58 19.34 13.38 4.9h-81.24L218 78.74Zm398.93 0H529.7a7.65 7.65 0 0 1 1.42 2.26 23 23 0 0 1 1.17 5.3c.52 3.08 1.13 3.54.76 5.9-.72 4.57-1.55 4.13-2.95 6.82a36.49 36.49 0 0 0-2.56 6.77.18.18 0 0 0 .2.22c.5 0 1.53.1 1.57 1.65.06 2.05-2.3 6.05-3 7.19s-2.17 3.5-3.45 4.25c-2.2 1.28-2.88.53-3.2 1.18s-2.52 4.79-2.85 5.92a21.91 21.91 0 0 0-.71 4.43.46.46 0 0 0 .29.47c4.42 1.73 16 5.82 18.72 10.53l-39 12.64c5.45-.64 11.44-1.38 16.74-2 7.26-.83 19-2.14 22.78-2.1a69.69 69.69 0 0 1 9.72 1.18c4.57.61 8.63.77 13.57 1.76a13.92 13.92 0 0 1 7.23 3.37c.21.14 1.2.95 1.2.95 6-.42 15.31-1 17.28-1.17 1-.08 3.06-.19 3.46-.24 18.76-2.39 29-11.37 38-16.82 9.91-6 24.79-11 35.45-11.25 13.78-.36 23.69 2 30.28 8s9.18 13.93 6.52 25.92c-2.56 11.55-6.24 16.87-14.76 22.17s-17.93 7-29 6c-18.51-1.7-35.05-13.26-41.59-17-5.62-3.24-13.34-6.66-22-7.44a40.55 40.55 0 0 0-5.1 0c-.59 0-7.66.53-12.12.86a12.17 12.17 0 0 1 .59 3.32c-.13 2.27-1.39 3.35-2.77 3.18s-4.45-2.53-5.37-4.5c-.09-.19-.37-.28-.37 0a9 9 0 0 1 0 1c-.06.62-.44 2.52-1.78 2.9a4.88 4.88 0 0 1-4.08-1 .68.68 0 0 0-1.07.29c-.48 1.37-.76 2.19-3.36 1.69-1.78-.2-1.41.5-2.55.72-2.77.52-4.11-1-6.31-2s-1.46-3.11-3.65-3.48c-.42-.07-1.15-.21-1.57-.26a99.48 99.48 0 0 1 3.48 15.87.37.37 0 0 1-.32.42l-2.24.27a.35.35 0 0 0-.32.42c.56 2.88 2 8.3 2.26 12.19.54 7.09.45 9.17 0 12.68a.36.36 0 0 0 .42.41 7.54 7.54 0 0 0 2.59-1 14.61 14.61 0 0 1 .8-4.11 9.3 9.3 0 0 1 .72-.89 1.59 1.59 0 0 0 .4-.7l.58-2a4.08 4.08 0 0 1 .37-.89l3.06-5.5s.71-1.51 1.94-1.17a3.88 3.88 0 0 1 2 3.21 12.66 12.66 0 0 1-1.45 4.67l1.23 2.1a5.45 5.45 0 0 0 4.62-.91 19.28 19.28 0 0 0 1.95-1.45c-.56-1.53.8-3.49 4.5-2.78 1.28.54 4.91 3.43.38 6.41a.2.2 0 0 0 .12.37c5-.3 4.33 5.68 1 7.48a.58.58 0 0 0-.17.83 5.1 5.1 0 0 1 1.13 3.2s0 1.57-4.79 3.22c0 0-1.48.59-.89 1.68.58.21 1.22.44 2 .67 0 0 4.35 1 3.5 3.4 0 0-.7 2-4.84.69a21.16 21.16 0 0 1-4.07-.13 59 59 0 0 1-7.87 2 3.87 3.87 0 0 0-2.23 1.33c-2.67 3.06-10.84 7.29-14.5 7.33-4 .05-4.56-3.09-7.52-6.18-5.73-6-6.71-13.5-7.58-20.93a.42.42 0 0 0-.83 0c-1 8.73-1.54 16.57-6.37 20.88-3 2.63-7.56 4.69-15.05 6.46C471 244.6 440.46 262 443.92 266c1.36 1.56 4.57-1.56 10.18-4.14 21.17-9.74 48.57-11.68 57.39-11a1.33 1.33 0 0 1 1.21 1.2 38.37 38.37 0 0 0 1.36 6.25c.76 2.73 1.65 7.6 4.54 10.31 5.28 4.94 4.55 6.77 3.31 13.38-.81 4.33 5.11 7.94 5.27 8.1h61.05l9.4-45.3h62c63.34 0 91.5-28.92 102.25-84.31 4.97-25.73 4.82-81.75-77.95-81.75ZM411.69 290.12c.85-.94 1.83-2 3-3.19 2.67-2.73.58-9.66 1.1-12.32.68-3.49 6.7-5.33 7.64-8.75 1.29-4.65-7.9-3.85-3.52-8.77 2.74-3.07 6.75-2 6.48-5-.45-4.9 4.34-8.23 6.36-9.76 8.76-6.65 28.43-17.15 40.35-20.62 12.49-3.64-4.73-3.3-19 1.92-12.94 4.74 16.74-13.85 40.23-19.75 16.73-4.2-12.29-5-39 6.75-8.49 3.73-13.23 6-16.63 8.23a.16.16 0 0 1-.23-.21c1.32-2.71 4.1-7.34 3.28-12.13a14.92 14.92 0 0 1 1.09-9c1-1.92.4-7.09 1.52-9.77a.44.44 0 0 1 .54-.23l14.37 4.5 56.15-19.13-53.47 7.93-18.55-15.85c-2.62-2.79-5.35-13.73-2.6-17.81a70.71 70.71 0 0 1 9.63-11.77c2.52-2.21 10.25-3.17 14.05-5.08 4.24-2.14 7.63-.69 10.68-1.18a85.73 85.73 0 0 0 9.76-3 .19.19 0 0 0 .12-.19 27.54 27.54 0 0 0-.31-3.7 36.9 36.9 0 0 1-1.05-10.27c.32-3.33 3.22-6.24 3.36-8.46s-1.46-4.49-.23-6.66c1.14-2 1.44-3.57 2.74-7.81-.33-2.52-1.92-3.41-.77-6 .61-1.36 1.66-3.28 2.11-4.24H295.52l11.17 53.6h77l-8.48 41.14h58L314.78 195l56-.12-19.62 95.28ZM617.91 167.7a2 2 0 0 0 2.86-2c.06-5.33 1-7.77 2.16-12 .46-1.72-1-3.09-2.44-2.31-8.62 4.66-14.91 6.61-18.66 7.44a1.49 1.49 0 0 0-1.1 1.35 1.25 1.25 0 0 0 .83 1.29 74 74 0 0 1 16.35 6.23Z"/></clipPath><style>.cls-1{fill:#051224}</style></defs><path class="cls-1" d="m285 78.74 44.15 211.38h-63.8l-9.4-45.3H179l-27.13 45.3H81.29l29.29-45.3-70.71-.06L248.25 207l-6.54-30.46-5.51-27.3-11.58 19.34 13.38 4.9h-81.24L218 78.74Zm398.93 0H529.7a7.65 7.65 0 0 1 1.42 2.26 23 23 0 0 1 1.17 5.3c.52 3.08 1.13 3.54.76 5.9-.72 4.57-1.55 4.13-2.95 6.82a36.49 36.49 0 0 0-2.56 6.77.18.18 0 0 0 .2.22c.5 0 1.53.1 1.57 1.65.06 2.05-2.3 6.05-3 7.19s-2.17 3.5-3.45 4.25c-2.2 1.28-2.88.53-3.2 1.18s-2.52 4.79-2.85 5.92a21.91 21.91 0 0 0-.71 4.43.46.46 0 0 0 .29.47c4.42 1.73 16 5.82 18.72 10.53l-39 12.64c5.45-.64 11.44-1.38 16.74-2 7.26-.83 19-2.14 22.78-2.1a69.69 69.69 0 0 1 9.72 1.18c4.57.61 8.63.77 13.57 1.76a13.92 13.92 0 0 1 7.23 3.37c.21.14 1.2.95 1.2.95 6-.42 15.31-1 17.28-1.17 1-.08 3.06-.19 3.46-.24 18.76-2.39 29-11.37 38-16.82 9.91-6 24.79-11 35.45-11.25 13.78-.36 23.69 2 30.28 8s9.18 13.93 6.52 25.92c-2.56 11.55-6.24 16.87-14.76 22.17s-17.93 7-29 6c-18.51-1.7-35.05-13.26-41.59-17-5.62-3.24-13.34-6.66-22-7.44a40.55 40.55 0 0 0-5.1 0c-.59 0-7.66.53-12.12.86a12.17 12.17 0 0 1 .59 3.32c-.13 2.27-1.39 3.35-2.77 3.18s-4.45-2.53-5.37-4.5c-.09-.19-.37-.28-.37 0a9 9 0 0 1 0 1c-.06.62-.44 2.52-1.78 2.9a4.88 4.88 0 0 1-4.08-1 .68.68 0 0 0-1.07.29c-.48 1.37-.76 2.19-3.36 1.69-1.78-.2-1.41.5-2.55.72-2.77.52-4.11-1-6.31-2s-1.46-3.11-3.65-3.48c-.42-.07-1.15-.21-1.57-.26a99.48 99.48 0 0 1 3.48 15.87.37.37 0 0 1-.32.42l-2.24.27a.35.35 0 0 0-.32.42c.56 2.88 2 8.3 2.26 12.19.54 7.09.45 9.17 0 12.68a.36.36 0 0 0 .42.41 7.54 7.54 0 0 0 2.59-1 14.61 14.61 0 0 1 .8-4.11 9.3 9.3 0 0 1 .72-.89 1.59 1.59 0 0 0 .4-.7l.58-2a4.08 4.08 0 0 1 .37-.89l3.06-5.5s.71-1.51 1.94-1.17a3.88 3.88 0 0 1 2 3.21 12.66 12.66 0 0 1-1.45 4.67l1.23 2.1a5.45 5.45 0 0 0 4.62-.91 19.28 19.28 0 0 0 1.95-1.45c-.56-1.53.8-3.49 4.5-2.78 1.28.54 4.91 3.43.38 6.41a.2.2 0 0 0 .12.37c5-.3 4.33 5.68 1 7.48a.58.58 0 0 0-.17.83 5.1 5.1 0 0 1 1.13 3.2s0 1.57-4.79 3.22c0 0-1.48.59-.89 1.68.58.21 1.22.44 2 .67 0 0 4.35 1 3.5 3.4 0 0-.7 2-4.84.69a21.16 21.16 0 0 1-4.07-.13 59 59 0 0 1-7.87 2 3.87 3.87 0 0 0-2.23 1.33c-2.67 3.06-10.84 7.29-14.5 7.33-4 .05-4.56-3.09-7.52-6.18-5.73-6-6.71-13.5-7.58-20.93a.42.42 0 0 0-.83 0c-1 8.73-1.54 16.57-6.37 20.88-3 2.63-7.56 4.69-15.05 6.46C471 244.6 440.46 262 443.92 266c1.36 1.56 4.57-1.56 10.18-4.14 21.17-9.74 48.57-11.68 57.39-11a1.33 1.33 0 0 1 1.21 1.2 38.37 38.37 0 0 0 1.36 6.25c.76 2.73 1.65 7.6 4.54 10.31 5.28 4.94 4.55 6.77 3.31 13.38-.81 4.33 5.11 7.94 5.27 8.1h61.05l9.4-45.3h62c63.34 0 91.5-28.92 102.25-84.31 4.97-25.73 4.82-81.75-77.95-81.75ZM411.69 290.12c.85-.94 1.83-2 3-3.19 2.67-2.73.58-9.66 1.1-12.32.68-3.49 6.7-5.33 7.64-8.75 1.29-4.65-7.9-3.85-3.52-8.77 2.74-3.07 6.75-2 6.48-5-.45-4.9 4.34-8.23 6.36-9.76 8.76-6.65 28.43-17.15 40.35-20.62 12.49-3.64-4.73-3.3-19 1.92-12.94 4.74 16.74-13.85 40.23-19.75 16.73-4.2-12.29-5-39 6.75-8.49 3.73-13.23 6-16.63 8.23a.16.16 0 0 1-.23-.21c1.32-2.71 4.1-7.34 3.28-12.13a14.92 14.92 0 0 1 1.09-9c1-1.92.4-7.09 1.52-9.77a.44.44 0 0 1 .54-.23l14.37 4.5 56.15-19.13-53.47 7.93-18.55-15.85c-2.62-2.79-5.35-13.73-2.6-17.81a70.71 70.71 0 0 1 9.63-11.77c2.52-2.21 10.25-3.17 14.05-5.08 4.24-2.14 7.63-.69 10.68-1.18a85.73 85.73 0 0 0 9.76-3 .19.19 0 0 0 .12-.19 27.54 27.54 0 0 0-.31-3.7 36.9 36.9 0 0 1-1.05-10.27c.32-3.33 3.22-6.24 3.36-8.46s-1.46-4.49-.23-6.66c1.14-2 1.44-3.57 2.74-7.81-.33-2.52-1.92-3.41-.77-6 .61-1.36 1.66-3.28 2.11-4.24H295.52l11.17 53.6h77l-8.48 41.14h58L314.78 195l56-.12-19.62 95.28ZM617.91 167.7a2 2 0 0 0 2.86-2c.06-5.33 1-7.77 2.16-12 .46-1.72-1-3.09-2.44-2.31-8.62 4.66-14.91 6.61-18.66 7.44a1.49 1.49 0 0 0-1.1 1.35 1.25 1.25 0 0 0 .83 1.29 74 74 0 0 1 16.35 6.23Z" transform="translate(-31.29 -57.52)"/><path class="cls-1" d="M0 0h749.29v232.6H0z" style="clip-path:url(#clip-path)"/><path class="cls-1" d="M854.76 277.75c-11.7-12.31-13.23-27.69-13.23-51.08h30.77c0 18.15 0 25.54 4.92 32 3.39 4.31 8.93 7.08 16.31 7.08 12.93 0 22.47-8 22.47-26.16v-4c0-17.85-4.31-24.92-24.93-37.23l-13.54-7.7c-25.23-15.08-36-27.69-36-57.54v-4.31c0-31.7 17.84-52.63 51.39-52.63 18.46 0 31.39 6.47 40 16.93 8.93 11.08 11.08 22.16 11.08 48h-30.77c0-17.54-.31-25.24-4.31-30.78-2.77-4.61-8.31-7.69-16.31-7.69-13.23 0-20.62 8.92-20.62 24.93v4c0 16.92 5.54 24 24.31 35.39l13.23 8c26.47 16 36.93 27.39 36.93 59.08v4.31c0 34.47-19.69 53.86-52.31 53.86-16.93.01-30.15-5.21-39.39-14.46Zm124.32-3.07c-9.85-12.31-12.31-29.55-12.31-55.71v-69.54c0-25.85 2.46-43.4 12.31-55.4 8.92-11.38 22.77-17.85 42.16-17.85 20.93 0 33.54 7.08 42.47 17.85 9.85 12 12.31 27.7 12.31 58.16h-30.78c0-24.61-1.23-32.92-6.15-39.39-4-5.53-9.85-8.3-17.85-8.3s-13.85 2.77-17.54 8.3c-4.62 6.16-6.16 14.16-6.16 32.62V223c0 18.46 1.54 26.77 6.16 32.92 3.69 5.23 9.54 8 17.54 8s13.85-2.77 17.85-8c5.23-7.38 6.15-15.69 6.15-39.39H1076c0 31.7-3.39 46.78-12.31 58.17-8.93 11.07-23.08 17.54-42.47 17.54s-33.22-6.49-42.14-17.56Zm130.48-.62c-9.85-11.69-12.31-28.93-12.31-55.09v-69.54c0-25.85 2.46-43.09 12.31-55.09 9.23-11.39 23.69-18.16 43.39-18.16s34.16 6.77 43.39 18.16c9.54 12 12.31 29.24 12.31 55.09V219c0 26.16-2.77 43.4-12.31 55.09-9.23 11.39-23.7 18.16-43.39 18.16s-34.16-6.8-43.39-18.19Zm61.85-18.46c4.62-6.47 6.16-14.16 6.16-32.62v-77.56c0-18.46-1.54-26.15-6.16-32.62-4-5.23-10.15-8.3-18.46-8.3-8.62 0-14.78 3.07-18.78 8.3-4.61 6.47-6.15 14.16-6.15 32.62V223c0 18.46 1.54 26.15 6.15 32.62 4 5.23 10.16 8.3 18.78 8.3 8.31-.02 14.46-3.09 18.46-8.32ZM1312 289.75c-8.92-27.38-17.85-55.7-27.08-82.16h-20.31v82.16h-30.77V78.65H1280c40.93 0 60.93 15.07 60.93 59.08v11.08c0 29.85-9.23 46.16-28 53.85 10.78 28.32 21.55 58.17 31.39 87.09Zm-31.7-108.32c20.93 0 29.85-8.62 29.85-34.47v-7.69c0-25.85-8.92-34.16-29.85-34.16h-15.69v76.32Zm85.44-102.78h90.47v27.08h-59.7v63.08h53.85v27.08h-53.85V263h59.7v26.77h-90.47Zm121.95 199.1c-11.69-12.31-13.23-27.69-13.23-51.08h30.77c0 18.15 0 25.54 4.92 32 3.39 4.31 8.93 7.08 16.32 7.08 12.92 0 22.46-8 22.46-26.16v-4c0-17.85-4.31-24.92-24.93-37.23l-13.54-7.7c-25.23-15.08-36-27.69-36-57.54v-4.31c0-31.7 17.85-52.63 51.39-52.63 18.46 0 31.39 6.47 40 16.93 8.92 11.08 11.08 22.16 11.08 48h-30.78c0-17.54-.31-25.24-4.31-30.78-2.77-4.61-8.31-7.69-16.31-7.69-13.23 0-20.62 8.92-20.62 24.93v4c0 16.92 5.54 24 24.32 35.39l13.23 8c26.46 16 36.93 27.39 36.93 59.08v4.31c0 34.47-19.7 53.86-52.32 53.86-16.92.01-30.15-5.21-39.38-14.46Z" transform="translate(-31.29 -57.52)"/></svg>
