<svg xmlns="http://www.w3.org/2000/svg" viewBox="0 0 313.9 250" style="enable-background:new 0 0 313.9 250" xml:space="preserve"><path d="M90.1 108.3c-21 0-38 17-38 38 0 5.7 1.3 11.1 3.5 16H22.1v-51.4H0v71.5h47.8l10-15.9c6.7 10.7 18.6 17.8 32.2 17.8 21 0 38-17 38-38s-17-38-37.9-38zm223.8 75.8h-22.2v-73.6h22.2v73.6zm0-95.3h-22.2V66.7h22.2v22.1zm-49.6 63.5h-18v-12.7h37.4c.4 2.2.6 4.4.6 6.6 0 21-17 38-38 38s-38-17-38-38 17-38 38-38c16.1 0 29.8 10 35.4 24.1h-22.4c-3.4-3.2-8-5.2-13-5.2-10.5 0-19 8.5-19 19s8.5 19 19 19c8.4.2 15.5-5.2 18-12.8zm-81.4 30h-2.7l-26.7-43.9v43.9H134v-71.5h22.2l26.7 43.9v-43.9h19.5v71.5h-19.5zm-92.8-18.1c-9.9 0-17.9-8-17.9-17.9 0-9.9 8-17.9 17.9-17.9 9.9 0 17.9 8 17.9 17.9 0 9.9-8 17.9-17.9 17.9z" style="fill-rule:evenodd;clip-rule:evenodd;fill:#e60012"/></svg>
