<svg version="1.1" id="Layer_1" xmlns="http://www.w3.org/2000/svg" x="0" y="0" viewBox="0 0 542 250" style="enable-background:new 0 0 542 250" xml:space="preserve"><style>.st0{fill:#f47a20}.st1{fill:#493291}.st2{fill:#d72027}.st3{fill-rule:evenodd;clip-rule:evenodd;fill:#fff}.st4{fill:#172b54}.st5{clip-path:url(#SVGID_00000083788579807779388560000006644853974534756488_)}.st6{clip-path:url(#SVGID_00000171705658662778833900000004390013385868006808_)}.st7{clip-path:url(#SVGID_00000080207078765764586910000002145962138707079566_)}.st8{clip-path:url(#SVGID_00000095312802212506778980000012412706573054988473_)}.st9{clip-path:url(#SVGID_00000181804042756430726380000012125043999757500086_)}.st10{clip-path:url(#SVGID_00000017496900298162613070000008265350726823301028_)}.st11{clip-path:url(#SVGID_00000170243581661121022110000018203532641628558491_)}.st12{clip-path:url(#SVGID_00000169520272765978108800000003518482129242122677_)}.st13{clip-path:url(#SVGID_00000000917500531321760100000005106892705357119137_)}.st14{clip-path:url(#SVGID_00000091698905550003859320000004936144049227927704_)}.st15{clip-path:url(#SVGID_00000149360009154419148730000009524096926647507072_)}.st16{clip-path:url(#SVGID_00000054260346411979532140000002687140511540184468_)}.st17{clip-path:url(#SVGID_00000001645629625878613440000016399127772776040844_)}.st18{clip-path:url(#SVGID_00000119836668585519946970000008879518985184486845_)}.st19{clip-path:url(#SVGID_00000109712860602968793620000006784284561735685311_)}.st20{clip-path:url(#SVGID_00000000216829643955428150000005359004049153180041_)}.st21{clip-path:url(#SVGID_00000009550240134242122190000017146064847102584485_)}.st22{fill:#ef5c23}.st23{fill:#0082ca}.st24{clip-path:url(#SVGID_00000125561403580763332420000007363710301860383125_)}.st25{clip-path:url(#SVGID_00000062903610643848927300000008164645499974368166_)}.st26{clip-path:url(#SVGID_00000000938413197393227110000001537845017137360050_)}.st27{clip-path:url(#SVGID_00000018218272176336506140000008306276793293304449_)}.st28{clip-path:url(#SVGID_00000094595313644571241500000012577982413535696539_)}.st29{clip-path:url(#SVGID_00000137814034790142544080000000447443526958938013_)}.st30{clip-path:url(#SVGID_00000101795394717242606280000012927785748928947617_)}.st31{clip-path:url(#SVGID_00000096778050662763254510000008557389871689708965_)}.st32{clip-path:url(#SVGID_00000182492904624648637890000016266340019862893211_)}.st33{clip-path:url(#SVGID_00000019677402454321448890000003085714262906351490_)}.st34{clip-path:url(#SVGID_00000164478431757410821330000018105336991198191003_)}.st35{clip-path:url(#SVGID_00000090998237108890390680000006574830490633498501_)}.st36{clip-path:url(#SVGID_00000164514024205630788500000014359006879030952581_)}.st37{clip-path:url(#SVGID_00000020397584224200090810000015852254225499920265_)}.st38{clip-path:url(#SVGID_00000101087977768365274900000014424991120351208085_)}.st39{fill:#007cc3}.st40{fill:#8c734b}.st41{fill:#006241}.st42{clip-path:url(#SVGID_00000039097311625364199680000016510166661540709796_)}.st43,.st44,.st45{clip-path:url(#SVGID_00000072281577603934725030000005264137724670374281_);fill:#28294e}.st44,.st45{fill:#fff}.st45{fill:none;stroke:#28294e;stroke-width:.2723}.st46{clip-path:url(#SVGID_00000059281200281324383860000016157476200810550696_)}.st47,.st48,.st49{clip-path:url(#SVGID_00000050637252205570157220000006259964795176068540_);fill:#28294e}.st48,.st49{fill:#fff}.st49{fill:none;stroke:#28294e;stroke-width:.2723}.st50{fill:#006937}.st51{fill:#cb9700}.st52{fill:#002d74}.st53{fill:#e04403}.st54,.st55{fill:#939598}.st55,.st56{clip-path:url(#SVGID_00000016785826841169447270000014884922638172100998_)}.st56,.st57{fill:#003976}.st58{fill:#d71920}.st59{fill:#00984a}.st60,.st61{clip-path:url(#SVGID_00000170262080983580950690000002566223213383184789_);fill:#939598}.st61{fill:#003976}.st62{fill:#00539f;stroke:#00539f;stroke-width:1.0055;stroke-miterlimit:3.8637}.st63{fill-rule:evenodd;clip-rule:evenodd;fill:#00539f}.st64{fill:none;stroke:#00539f;stroke-width:1.0055;stroke-miterlimit:3.8637}.st65{fill:#00539f}.st66,.st67{fill:none;stroke:#000;stroke-width:1.2646;stroke-miterlimit:3.8637}.st67{stroke-width:.5269}.st68{fill-rule:evenodd;clip-rule:evenodd}.st70,.st71{stroke:#000;stroke-miterlimit:3.8637}.st70{fill:#fff200;stroke-width:.8867}.st71{stroke-width:.1618}.st72{fill:none}.st72,.st73{stroke:#000;stroke-width:.2108;stroke-miterlimit:3.8637}.st74,.st75,.st76{fill-rule:evenodd;clip-rule:evenodd}.st74{stroke:#000;stroke-width:.2108;stroke-miterlimit:3.8637}.st75,.st76{fill:#fff200}.st76{fill:#ffe700}.st77{fill:#b1b3b6}.st78{clip-path:url(#SVGID_00000029005778161722966930000017079434343555670678_);fill:none;stroke:#b1b3b6;stroke-width:1.8277;stroke-miterlimit:3.8637}.st79{fill:#ed1c24}.st80,.st81,.st82{fill:none;stroke:#ed1c24;stroke-width:1.3708;stroke-miterlimit:3.8637}.st81,.st82{stroke:#007cc3}.st82{clip-path:url(#SVGID_00000132050082078984848560000017827410059816696453_);stroke:#b1b3b6;stroke-width:1.8277}.st83{fill:url(#)}.st84,.st85{fill:none;stroke:#231f20;stroke-width:1.0577;stroke-miterlimit:10}.st85{stroke-width:1.4102}.st86{fill-rule:evenodd;clip-rule:evenodd;fill:#9b8181}.st87{fill:none;stroke:#4f3939;stroke-width:.7051;stroke-miterlimit:10}.st88,.st89,.st90{fill-rule:evenodd;clip-rule:evenodd;fill:#513a3a}.st89,.st90{fill:#ccae9b}.st90{fill:#da2f3d}.st91{fill:none;stroke:#932029;stroke-width:1.4102;stroke-miterlimit:10}.st92,.st93{fill-rule:evenodd;clip-rule:evenodd;fill:#c02126}.st93{fill:#f16246}.st94{fill:#9b8181}.st95,.st96,.st97{fill:none;stroke:#4f3939;stroke-width:.5288;stroke-miterlimit:10}.st96,.st97{stroke-width:1.0577}.st97{stroke-width:.3526}.st98{fill:#624c4c}.st99{fill-rule:evenodd;clip-rule:evenodd;fill:#c08a7a}.st100{fill:none;stroke:#9b8181;stroke-width:.7051;stroke-miterlimit:10}.st101{fill:#00773d}.st102,.st103{fill:none;stroke:#0a4c29;stroke-width:1.4102;stroke-miterlimit:10}.st103{stroke-width:.7051}.st104,.st105{clip-path:url(#SVGID_00000091007078135556954870000006500482443839362711_);fill:#00773d}.st105{fill:none;stroke:#0a4c29;stroke-width:.7051;stroke-miterlimit:10}.st106{fill:#00994a}.st107{fill:#22985c}.st108,.st109,.st110{clip-path:url(#SVGID_00000049941863525463817700000012397089513378307742_)}.st108{fill:none;stroke:#0a4c29;stroke-width:.7051;stroke-miterlimit:10}.st109,.st110{fill:#00994a}.st110{fill:none;stroke:#0a4c29;stroke-width:1.4102;stroke-miterlimit:10}.st111,.st112{clip-path:url(#SVGID_00000046297212417515825090000013505540620357463204_);fill:#00994a}.st112{fill:none;stroke:#0a4c29;stroke-width:.7051;stroke-miterlimit:10}.st113,.st114{clip-path:url(#SVGID_00000170268629975273003600000003319481473877519034_);fill:#00773d}.st114{fill:none;stroke:#0a4c29;stroke-width:.7051;stroke-miterlimit:10}.st115,.st116,.st117{clip-path:url(#SVGID_00000033337560286351390990000006131502521761320629_)}.st115{fill:none;stroke:#0a4c29;stroke-width:.7051;stroke-miterlimit:10}.st116,.st117{fill:#00994a}.st117{fill:none;stroke:#0a4c29;stroke-width:1.4102;stroke-miterlimit:10}.st118,.st119{clip-path:url(#SVGID_00000132055930310722342040000007562460298131891613_);fill:#00994a}.st119{fill:none;stroke:#0a4c29;stroke-width:.7051;stroke-miterlimit:10}.st120{fill:#cccccb}.st120,.st121{clip-path:url(#SVGID_00000023961647336952465030000001378711885634007446_)}.st122{fill:#a6a5a5}.st122,.st123{clip-path:url(#SVGID_00000043441207825747812930000002006854237997313715_)}.st124{fill:#333}.st124,.st125{clip-path:url(#SVGID_00000151509596275414192950000016126312053337772718_)}.st126{fill:#cccccb}.st126,.st127{clip-path:url(#SVGID_00000075126232617624033950000012159957200454306691_)}.st128{fill:gray}.st128,.st129{clip-path:url(#SVGID_00000121268645489062301750000006856016312891802554_)}.st130{fill:#333}.st130,.st131{clip-path:url(#SVGID_00000053529872447045049720000018014664293536989870_)}.st132{fill:#f2f2f3}.st132,.st133{clip-path:url(#SVGID_00000137837365230827045410000006062756463172059036_)}.st134{fill:#7e7e7e}.st135{fill:#fff}.st135,.st136{clip-path:url(#SVGID_00000178181000792783533390000013634923642351850146_)}.st137{fill:#dad9d9}.st137,.st138{clip-path:url(#SVGID_00000044899251690289566590000017236339891995080325_)}.st139{fill:#bfbfbf}.st139,.st140{clip-path:url(#SVGID_00000084491252361447771170000009742626567821904797_)}.st141{clip-path:url(#SVGID_00000016044364208451386590000008171458460358512517_)}.st142{clip-path:url(#SVGID_00000011007116542897782850000007360617364095982252_)}.st143{fill:#4d4d4e}.st143,.st144{clip-path:url(#SVGID_00000068645219959834333600000000320183864133888680_)}.st145{clip-path:url(#SVGID_00000043452403620206811680000004725122377728978333_)}.st146{clip-path:url(#SVGID_00000102516682161600501500000010691031435298016930_)}.st147{clip-path:url(#SVGID_00000093164728947046936490000005652580862578422404_)}.st148{fill:#666766}.st148,.st149{clip-path:url(#SVGID_00000008862699294743971030000003634721024783355051_)}.st150{fill:#262626}.st150,.st151{clip-path:url(#SVGID_00000167381087219812358170000013392848155137429920_)}.st152{fill:#666766}.st152,.st153{clip-path:url(#SVGID_00000046335973148715467730000003062729077734114718_)}.st154{fill:#fff}.st154,.st155{clip-path:url(#SVGID_00000009573277120158711250000016614107754573588380_)}.st156{fill:#fff}.st156,.st157{clip-path:url(#SVGID_00000080168653647003247830000014307567793108016042_)}.st158{fill:#e6e6e6}.st158,.st159{clip-path:url(#SVGID_00000022532102072085490520000006706916173584645039_)}.st160{fill:#192753}.st161{fill:#cccccb}.st161,.st162{clip-path:url(#SVGID_00000158711655632626033740000012253358141808618900_)}.st163{fill:#a6a5a5}.st163,.st164{clip-path:url(#SVGID_00000052812978004772372140000017210801608734679743_)}.st165{fill:#333}.st165,.st166{clip-path:url(#SVGID_00000019651147037514830240000011149533287027036553_)}.st167{fill:#cccccb}.st167,.st168{clip-path:url(#SVGID_00000168108999761123681580000006421808353774548665_)}.st169{fill:gray}.st169,.st170{clip-path:url(#SVGID_00000086674427045311843590000003021619683734327228_)}.st171{fill:#333}.st171,.st172{clip-path:url(#SVGID_00000019670597625331743480000014789225075495452547_)}.st173{fill:#f2f2f3}.st173,.st174{clip-path:url(#SVGID_00000014621821418651076150000008255075255083076777_)}.st175{fill:#fff}.st175,.st176{clip-path:url(#SVGID_00000095316656533275348060000010270225722376801721_)}.st177{fill:#dad9d9}.st177,.st178{clip-path:url(#SVGID_00000091004766378576909630000004905610749495531933_)}.st179{fill:#bfbfbf}.st179,.st180{clip-path:url(#SVGID_00000067917289379017991800000011491825795497649315_)}.st181{clip-path:url(#SVGID_00000171710266405487010160000000814084414520221065_)}.st182{clip-path:url(#SVGID_00000046333974242087251270000017993663303877078696_)}.st183{fill:#4d4d4e}.st183,.st184{clip-path:url(#SVGID_00000013907940013692791130000006985481515660795068_)}.st185{clip-path:url(#SVGID_00000115515558722193392030000010861020842046703532_)}.st186{clip-path:url(#SVGID_00000081636403880337202360000014325451907629230220_)}.st187{clip-path:url(#SVGID_00000036225875835760823160000012350617864819370681_)}.st188{fill:#666766}.st188,.st189{clip-path:url(#SVGID_00000016041630439557786510000002008554541267585671_)}.st190{fill:#262626}.st190,.st191{clip-path:url(#SVGID_00000161611092967857694450000009038885456561509010_)}.st192{fill:#666766}.st192,.st193{clip-path:url(#SVGID_00000152224489336065204750000000475994556478228886_)}.st194{fill:#fff}.st194,.st195{clip-path:url(#SVGID_00000150795473231703389470000004566430367706278049_)}.st196{fill:#fff}.st196,.st197{clip-path:url(#SVGID_00000075840827328874445340000006551331573790369470_)}.st198{fill:#e6e6e6}.st198,.st199{clip-path:url(#SVGID_00000166645141885731690980000003373254198748977328_)}.st200{fill:#13171b}.st201{clip-path:url(#SVGID_00000093137214888245086830000001666224882320257723_)}.st202{clip-path:url(#SVGID_00000183944548683952404360000003322706814020685502_)}.st203{clip-path:url(#SVGID_00000178201975283630394650000015038363408106699680_);fill:#999b9e}.st204{clip-path:url(#SVGID_00000123402859968930248160000010350154285252003246_);fill:url(#SVGID_00000012454905473360406440000009986520063334129573_)}.st205{opacity:.58;clip-path:url(#SVGID_00000164500945888719870640000008374921318592328095_)}.st206{clip-path:url(#SVGID_00000031181004156809900080000013563003880487248822_)}.st207{filter:url(#Adobe_OpacityMaskFilter)}.st208,.st209{clip-path:url(#SVGID_00000094587008632765894410000003242578746091329943_);fill:url(#SVGID_00000010276111118440014820000004816953854825078168_)}.st209{mask:url(#SVGID_00000085941134847096353950000007765727411872057780_);fill:url(#SVGID_00000023279984427136644490000011299599729524556697_)}.st210{clip-path:url(#SVGID_00000165224840580330508980000017133925636469240757_)}.st211{filter:url(#Adobe_OpacityMaskFilter_00000142136538561172093560000014686819171402794896_)}.st212,.st213{clip-path:url(#SVGID_00000054264370806839914710000015628580566114141592_);fill:url(#SVGID_00000003100300618454511250000003662121747325999786_)}.st213{mask:url(#SVGID_00000166667124178824916460000018080803199319512452_);fill:url(#SVGID_00000155857188558178934580000009271186135186941105_)}.st214{opacity:.4;clip-path:url(#SVGID_00000164500945888719870640000008374921318592328095_)}.st215{clip-path:url(#SVGID_00000070079250764899852780000002295613626384235439_)}.st216{filter:url(#Adobe_OpacityMaskFilter_00000111186200207595862000000009423721302002388359_)}.st217,.st218{clip-path:url(#SVGID_00000168816444893290383620000013916031226813492868_);fill:url(#SVGID_00000129195575371098058220000006582066871513032836_)}.st218{mask:url(#SVGID_00000168108189295792448190000009661693489237167028_);fill:url(#SVGID_00000135652514773212233870000011360092955003317406_)}.st219{opacity:.52;clip-path:url(#SVGID_00000164500945888719870640000008374921318592328095_)}.st220{clip-path:url(#SVGID_00000096750713198898065980000015711071439862771353_)}.st221{filter:url(#Adobe_OpacityMaskFilter_00000018224045951116276780000000412801070083510183_)}.st222,.st223{clip-path:url(#SVGID_00000077289663108528339530000017678738577144291733_);fill:url(#SVGID_00000067939925940317452720000001720816832105055921_)}.st223{mask:url(#SVGID_00000088825695210779442120000017264832171140793224_);fill:url(#SVGID_00000137853706953599014410000001996740350172640656_)}.st224{clip-path:url(#SVGID_00000019640963265440587670000004100208018122366087_)}.st225{filter:url(#Adobe_OpacityMaskFilter_00000104672382511574537480000005646092877937120433_)}.st226,.st227{clip-path:url(#SVGID_00000141420056131631111410000008211545165743564453_);fill:url(#SVGID_00000085937252255428416190000016345704810131005833_)}.st227{mask:url(#SVGID_00000113313561788595621960000015606305205877232821_);fill:url(#SVGID_00000079465329758237891600000007488168321709087113_)}.st228{clip-path:url(#SVGID_00000044158023621468993190000007376936727825757574_)}.st229{filter:url(#Adobe_OpacityMaskFilter_00000127747200362560015460000014444725716341809536_)}.st230,.st231{clip-path:url(#SVGID_00000032621762990169280600000007515963209882636206_);fill:url(#SVGID_00000039852138852107701430000000932290766807062149_)}.st231{mask:url(#SVGID_00000095319698272352471390000006671955833512950201_);fill:url(#SVGID_00000170986797901682590220000002383562866182926221_)}.st232{clip-path:url(#SVGID_00000171688353151354948800000002474471633138674305_)}.st233{filter:url(#Adobe_OpacityMaskFilter_00000049220288377503173760000012439997332348717466_)}.st234,.st235{clip-path:url(#SVGID_00000000223290790721135690000004315855752657263520_);fill:url(#SVGID_00000167392731148334507360000003258305084807085469_)}.st235{mask:url(#SVGID_00000000195488109204479240000006084389795798090886_);fill:url(#SVGID_00000173861148153995745600000016792959975497191041_)}.st236{clip-path:url(#SVGID_00000029006059553686819170000001746017080618097327_)}.st237{filter:url(#Adobe_OpacityMaskFilter_00000134234622697348515770000010795960282750458298_)}.st238,.st239{clip-path:url(#SVGID_00000021095159434222186330000010401588751268251535_);fill:url(#SVGID_00000116195325030293154810000014406138696851973256_)}.st239{mask:url(#SVGID_00000029762405410656089700000017371442785482312617_);fill:url(#SVGID_00000069369106570875182510000003516171392436408746_)}.st240{clip-path:url(#SVGID_00000083774941796406266150000005009178909823814328_)}.st241{filter:url(#Adobe_OpacityMaskFilter_00000061472724411860230080000014863369345060173724_)}.st242,.st243{clip-path:url(#SVGID_00000005249235398831195850000013219696623555354534_);fill:url(#SVGID_00000075841305365505264070000017580647011291173269_)}.st243{mask:url(#SVGID_00000059284285779895330380000006641855067182205601_);fill:url(#SVGID_00000052094499540714557590000000400137430789682582_)}.st244{clip-path:url(#SVGID_00000010301958809008790540000017890828058903505854_)}.st245{filter:url(#Adobe_OpacityMaskFilter_00000099636524307303980590000011719760391025384360_)}.st246,.st247{clip-path:url(#SVGID_00000091714885631277785300000007289005987179937927_);fill:url(#SVGID_00000127761343614757204480000013229798820548609683_)}.st247{mask:url(#SVGID_00000017501480537475333430000013229629873145852073_);fill:url(#SVGID_00000168831914011033700730000011818125606248727425_)}.st248{clip-path:url(#SVGID_00000072995062021471161320000007425418520804835255_)}.st249{filter:url(#Adobe_OpacityMaskFilter_00000160180320135872465550000011359180560293385370_)}.st250,.st251{clip-path:url(#SVGID_00000134241443874888336940000011491887581195244988_);fill:url(#SVGID_00000113337000154521675420000017237460272498124973_)}.st251{mask:url(#SVGID_00000028305548439357426270000008235960868210118534_);fill:url(#SVGID_00000084505072603478011520000015867639683872841385_)}.st252{clip-path:url(#SVGID_00000058565621578976781790000013117890217696531349_)}.st253{filter:url(#Adobe_OpacityMaskFilter_00000030463399640612199410000012423530466409644958_)}.st254,.st255{clip-path:url(#SVGID_00000088096911602176609320000005239454634438999182_);fill:url(#SVGID_00000052098925608687129870000016834116182046802565_)}.st255{mask:url(#SVGID_00000080168573846972289320000001461005066654769586_);fill:url(#SVGID_00000149380225853491071780000001682660051755244688_)}.st256{clip-path:url(#SVGID_00000163790123046166579870000005650324324512677262_)}.st257{filter:url(#Adobe_OpacityMaskFilter_00000020374038727197586430000017602686833842084277_)}.st258,.st259{clip-path:url(#SVGID_00000013875351679621670110000005939427330257456554_);fill:url(#SVGID_00000152223040035062504940000006392131054295196063_)}.st259{mask:url(#SVGID_00000081615824317194323750000011821994718726475444_);fill:url(#SVGID_00000152945195928600422320000004834673675216812182_)}.st260{clip-path:url(#SVGID_00000145041155131408959740000010740784334164038071_)}.st261{filter:url(#Adobe_OpacityMaskFilter_00000070838477989463556970000010535603093552523905_)}.st262,.st263{clip-path:url(#SVGID_00000062190873665295989040000003948622804848804270_);fill:url(#SVGID_00000075862069316852287640000000543996049261939104_)}.st263{mask:url(#SVGID_00000005244894754893452310000001958881209625751709_);fill:url(#SVGID_00000035494354844603075700000001339491979334792593_)}.st264{clip-path:url(#SVGID_00000088102295008533352510000004054337570996478111_)}.st265{filter:url(#Adobe_OpacityMaskFilter_00000128450792177618642720000013857391910711085743_)}.st266,.st267{clip-path:url(#SVGID_00000007422323499963347160000004167695196467625606_);fill:url(#SVGID_00000030486529026145355710000003499351346993955983_)}.st267{mask:url(#SVGID_00000021840007633113331460000008281021643967007877_);fill:url(#SVGID_00000058555576733301548680000011979799033175769739_)}.st268{clip-path:url(#SVGID_00000082349281063506628060000001532296577279285896_)}.st269{filter:url(#Adobe_OpacityMaskFilter_00000036248401514713297810000007253603858093907133_)}.st270,.st271{clip-path:url(#SVGID_00000101086456572806414260000009958359148943832509_);fill:url(#SVGID_00000052088114764870069500000001319699015234028186_)}.st271{mask:url(#SVGID_00000015337120179078364600000001825039587223281826_);fill:url(#SVGID_00000069372561782985174340000005462776141424214680_)}.st272{clip-path:url(#SVGID_00000114042898573529502870000014347750943580798613_)}.st273{filter:url(#Adobe_OpacityMaskFilter_00000147217739048879772930000012795708271326925459_)}.st274,.st275{clip-path:url(#SVGID_00000142164201555825058700000006738816764798462342_);fill:url(#SVGID_00000110471996808890733410000001976537886522273925_)}.st275{mask:url(#SVGID_00000025402977356964852700000014767571326279263158_);fill:url(#SVGID_00000139279904352816452120000004056010298422309775_)}.st276{clip-path:url(#SVGID_00000183232796153078735370000006889798466420542397_)}.st277{filter:url(#Adobe_OpacityMaskFilter_00000155855512129904059330000014286175260293155506_)}.st278,.st279{clip-path:url(#SVGID_00000077313557083771576980000014210124849030551219_);fill:url(#SVGID_00000165925505420980944450000013519903463396722313_)}.st279{mask:url(#SVGID_00000126295890343047123020000017602167965432006043_);fill:url(#SVGID_00000044148539822233367660000008698067245350177711_)}.st280{opacity:.3;clip-path:url(#SVGID_00000164500945888719870640000008374921318592328095_)}.st281{clip-path:url(#SVGID_00000023978461447072439440000000307948646816155818_)}.st282{filter:url(#Adobe_OpacityMaskFilter_00000024003954800323721120000000504963647407519663_)}.st283,.st284{clip-path:url(#SVGID_00000169546142775901127100000016770603180723974055_);fill:url(#SVGID_00000044877953528155335480000009230453152403063431_)}.st284{mask:url(#SVGID_00000082359740925101340380000004175147156673904257_);fill:url(#SVGID_00000045592382520061896550000007020015845219642272_)}.st285{clip-path:url(#SVGID_00000163063344925347387310000001726018559044119205_)}.st286{filter:url(#Adobe_OpacityMaskFilter_00000164508986720217343270000008485115548573132174_)}.st287,.st288{clip-path:url(#SVGID_00000139282804661977514440000006887977143650060186_);fill:url(#SVGID_00000060712390629257396490000005865189644474625966_)}.st288{mask:url(#SVGID_00000057852284869039483150000004555829770452833961_);fill:url(#SVGID_00000118367416213102061950000007530491726928208546_)}.st289{clip-path:url(#SVGID_00000075142941160786230440000012635648205288079508_)}.st290{filter:url(#Adobe_OpacityMaskFilter_00000168100157369164029450000009930060567339999618_)}.st291,.st292{clip-path:url(#SVGID_00000153695785211023766280000000614648187272009901_);fill:url(#SVGID_00000036231159819607712540000017923440908607903387_)}.st292{mask:url(#SVGID_00000003786728904508529450000002857305124008699291_);fill:url(#SVGID_00000093153373947804673410000014242200473118039461_)}.st293{opacity:.5;clip-path:url(#SVGID_00000164500945888719870640000008374921318592328095_)}.st294{clip-path:url(#SVGID_00000080178548100147787960000002594822488725073338_)}.st295{filter:url(#Adobe_OpacityMaskFilter_00000050654902511569080750000011751650937029790890_)}.st296,.st297{clip-path:url(#SVGID_00000044881532506380360050000017815168049532228026_);fill:url(#SVGID_00000023240936702131274200000004736253938721352869_)}.st297{mask:url(#SVGID_00000080176249451087562740000008223351656012534941_);fill:url(#SVGID_00000160893552941781156750000016296309030365424826_)}.st298{clip-path:url(#SVGID_00000045604696817959840630000004015740998952802973_)}.st299{filter:url(#Adobe_OpacityMaskFilter_00000067221090375479075710000011799718561349528978_)}.st300,.st301{clip-path:url(#SVGID_00000086680233647498163500000009144473411503617416_);fill:url(#SVGID_00000150104328907443311170000006527001329901571477_)}.st301{mask:url(#SVGID_00000140702297905588667590000011660643040749832065_);fill:url(#SVGID_00000044867011272108092090000008376954852674272921_)}.st302{clip-path:url(#SVGID_00000179617797653091091900000009581419889419960721_)}.st303{clip-path:url(#SVGID_00000089562114039150708690000007624390658935304588_)}.st304{clip-path:url(#SVGID_00000178174709259795044430000000604652987534428831_);fill:#999b9e}.st305{clip-path:url(#SVGID_00000115475001620685749640000000520793701487037316_);fill:url(#SVGID_00000101063321279644154660000017178673764325568675_)}.st306{opacity:.58;clip-path:url(#SVGID_00000138556142664729651470000017881036232755548801_)}.st307{clip-path:url(#SVGID_00000063615070253045200650000007606762312529200045_)}.st308{filter:url(#Adobe_OpacityMaskFilter_00000009566737083071525540000006896865894943833218_)}.st309,.st310{clip-path:url(#SVGID_00000093172649682126985340000005636094720292002710_);fill:url(#SVGID_00000165915110343092252090000001142913465410219410_)}.st310{mask:url(#SVGID_00000152975143316178392970000009660744113723606446_);fill:url(#SVGID_00000073704380565490553580000002504206300420253368_)}.st311{clip-path:url(#SVGID_00000127764444989932093510000008698069101471602842_)}.st312{filter:url(#Adobe_OpacityMaskFilter_00000054966604286932865780000009047757166296875675_)}.st313,.st314{clip-path:url(#SVGID_00000010992906357798933330000012124223298182347417_);fill:url(#SVGID_00000137107361571899047280000007987988341735580350_)}.st314{mask:url(#SVGID_00000129893686802793168140000009675798477404121737_);fill:url(#SVGID_00000039107173920089930010000010078530499039269307_)}.st315{opacity:.4;clip-path:url(#SVGID_00000138556142664729651470000017881036232755548801_)}.st316{clip-path:url(#SVGID_00000160171081418708039280000012237282598752524213_)}.st317{filter:url(#Adobe_OpacityMaskFilter_00000071540622469869130160000006316624617024066224_)}.st318,.st319{clip-path:url(#SVGID_00000142151248110697195720000004413210547466032831_);fill:url(#SVGID_00000182505811508546416430000001371246491079546290_)}.st319{mask:url(#SVGID_00000116211890714872372170000013664927839313014972_);fill:url(#SVGID_00000029741590708289762110000011485844204630563257_)}.st320{opacity:.52;clip-path:url(#SVGID_00000138556142664729651470000017881036232755548801_)}.st321{clip-path:url(#SVGID_00000022536843992416066990000011886001334781644435_)}.st322{filter:url(#Adobe_OpacityMaskFilter_00000074427710246005824850000012722614312881247415_)}.st323,.st324{clip-path:url(#SVGID_00000001649223286979217280000001776594799831296660_);fill:url(#SVGID_00000152971187679733151090000012817637466558932389_)}.st324{mask:url(#SVGID_00000135681942736804980400000007843461681542283912_);fill:url(#SVGID_00000097480492244063190580000010374289754035816367_)}.st325{clip-path:url(#SVGID_00000156571213416826212880000015902664482519318160_)}.st326{filter:url(#Adobe_OpacityMaskFilter_00000134219711234660615810000001907814801941286793_)}.st327,.st328{clip-path:url(#SVGID_00000170250799116159151980000010863829337235508626_);fill:url(#SVGID_00000111167184495012159730000012239227917564623511_)}.st328{mask:url(#SVGID_00000128486056763115563870000017310289109905614215_);fill:url(#SVGID_00000139257321282709850950000001591413416318603171_)}.st329{clip-path:url(#SVGID_00000044154157165853952080000007419531062115976363_)}.st330{filter:url(#Adobe_OpacityMaskFilter_00000155125144725437008170000013993868628276483518_)}.st331,.st332{clip-path:url(#SVGID_00000096757264232043275490000009829415667307422361_);fill:url(#SVGID_00000067196070776216150970000010106608054682751625_)}.st332{mask:url(#SVGID_00000012436729907997815570000000692759996866349210_);fill:url(#SVGID_00000068679562057283985610000011248221181625561230_)}.st333{clip-path:url(#SVGID_00000012436964152248663870000017632081958889296059_)}.st334{filter:url(#Adobe_OpacityMaskFilter_00000143585713213369732550000005089959964553109653_)}.st335,.st336{clip-path:url(#SVGID_00000016051885431123251060000006577231586438298534_);fill:url(#SVGID_00000027566250503994389230000015440823597050178954_)}.st336{mask:url(#SVGID_00000155128484586437348800000003601474692721247878_);fill:url(#SVGID_00000048488842836327356230000006741763591251139982_)}.st337{clip-path:url(#SVGID_00000000920498292070577150000009566590961698586016_)}.st338{filter:url(#Adobe_OpacityMaskFilter_00000016767320721512265120000018176966376286070925_)}.st339,.st340{clip-path:url(#SVGID_00000048470426410045705570000011081085706871472515_);fill:url(#SVGID_00000021807308147688299270000008360981826908453014_)}.st340{mask:url(#SVGID_00000065795267704697128470000010761584287638752157_);fill:url(#SVGID_00000068662718018635701930000012997553731401119136_)}.st341{clip-path:url(#SVGID_00000095323337859274262140000002636034553302874278_)}.st342{filter:url(#Adobe_OpacityMaskFilter_00000114779486753023390200000002398011395014481574_)}.st343,.st344{clip-path:url(#SVGID_00000183958766352245729950000005785416931553833881_);fill:url(#SVGID_00000132783218187422301640000016567741870442146465_)}.st344{mask:url(#SVGID_00000003103580427295241930000012298622642818904997_);fill:url(#SVGID_00000011721887192752465250000013151774975855126956_)}.st345{clip-path:url(#SVGID_00000125604993568258604790000013087781523617940396_)}.st346{filter:url(#Adobe_OpacityMaskFilter_00000168105990850829670500000012042628764153085333_)}.st347,.st348{clip-path:url(#SVGID_00000053545755623703024880000001527209476993879680_);fill:url(#SVGID_00000013904289590911541360000017022063031823530120_)}.st348{mask:url(#SVGID_00000076591949644149969960000008328038852520755345_);fill:url(#SVGID_00000097497468354536784750000017273695522085351335_)}.st349{clip-path:url(#SVGID_00000031201476693097048020000008841325558421351333_)}.st350{filter:url(#Adobe_OpacityMaskFilter_00000152961671466684941030000010099723578747111611_)}.st351,.st352{clip-path:url(#SVGID_00000132786844862797398770000007550294085406373311_);fill:url(#SVGID_00000000902846047842546790000012591728798599121301_)}.st352{mask:url(#SVGID_00000012434877253472422530000013407452731648990873_);fill:url(#SVGID_00000165940229826362409440000011070005757137056406_)}.st353{clip-path:url(#SVGID_00000097468217295839411600000000926239372141932698_)}.st354{filter:url(#Adobe_OpacityMaskFilter_00000106847336239012705800000017651491309355878551_)}.st355,.st356{clip-path:url(#SVGID_00000155128103455645554310000017600556272303315881_);fill:url(#SVGID_00000137853095895632208380000018285531151311008176_)}.st356{mask:url(#SVGID_00000170276433657513884000000005989172679137481913_);fill:url(#SVGID_00000114753916212750749750000008784642571863849089_)}.st357{clip-path:url(#SVGID_00000050655485079264793900000014872958542698518423_)}.st358{filter:url(#Adobe_OpacityMaskFilter_00000032634082233557887100000000128138536166647476_)}.st359,.st360{clip-path:url(#SVGID_00000178886982381363431960000016132823669385634461_);fill:url(#SVGID_00000116208575602837707920000017912873833784974983_)}.st360{mask:url(#SVGID_00000087407866061165725550000000379054316712671673_);fill:url(#SVGID_00000078041826090686258490000010422610238830416030_)}.st361{clip-path:url(#SVGID_00000148645267239432071130000007979902677662220931_)}.st362{filter:url(#Adobe_OpacityMaskFilter_00000089552545887986933980000010871958400944564381_)}.st363,.st364{clip-path:url(#SVGID_00000120529649136410096150000004303378758883229864_);fill:url(#SVGID_00000128484375370749143860000009598598727738719121_)}.st364{mask:url(#SVGID_00000095322379970496873850000014364683236490613695_);fill:url(#SVGID_00000112612948037786484050000004474192637893888932_)}.st365{clip-path:url(#SVGID_00000141442297768757474010000003896339578188797321_)}.st366{filter:url(#Adobe_OpacityMaskFilter_00000136382957461914159970000007911176554144508544_)}.st367,.st368{clip-path:url(#SVGID_00000039837113496035973920000014009600431165086599_);fill:url(#SVGID_00000071517618936126815950000002876303254280732603_)}.st368{mask:url(#SVGID_00000046340696448119560710000005217778744660700072_);fill:url(#SVGID_00000160153608840235667640000007029027289044158876_)}.st369{clip-path:url(#SVGID_00000027602477676159096320000016943184305258978437_)}.st370{filter:url(#Adobe_OpacityMaskFilter_00000013175261813304822100000016452305338822077081_)}.st371,.st372{clip-path:url(#SVGID_00000169540657875654949180000004351718271634121649_);fill:url(#SVGID_00000028322264314565318570000003171283777780708278_)}.st372{mask:url(#SVGID_00000095335863979243192180000000166252274592625579_);fill:url(#SVGID_00000016033072241483720070000014905430125472169116_)}.st373{clip-path:url(#SVGID_00000028293745814370500620000006616329873680590770_)}.st374{filter:url(#Adobe_OpacityMaskFilter_00000181061765450817300800000016137080961750095532_)}.st375,.st376{clip-path:url(#SVGID_00000109719908419051273200000007142158466826691251_);fill:url(#SVGID_00000043426129016735018620000015270700745876217484_)}.st376{mask:url(#SVGID_00000055701745990229669090000017282279810438575779_);fill:url(#SVGID_00000029044163127098476610000004310340878562894730_)}.st377{clip-path:url(#SVGID_00000103231673529009028720000010912580155020128915_)}.st378{filter:url(#Adobe_OpacityMaskFilter_00000075882753245674385970000014143871494319634570_)}.st379,.st380{clip-path:url(#SVGID_00000119111463283782273770000017504486130784328848_);fill:url(#SVGID_00000111912745971665537960000011252780277538658689_)}.st380{mask:url(#SVGID_00000008124903880465174970000017051119613026104227_);fill:url(#SVGID_00000094590375996358296190000004406901711305956769_)}.st381{opacity:.3;clip-path:url(#SVGID_00000138556142664729651470000017881036232755548801_)}.st382{clip-path:url(#SVGID_00000083768085337844570710000015505007102203271324_)}.st383{filter:url(#Adobe_OpacityMaskFilter_00000080182350607003607420000009429826671466340503_)}.st384,.st385{clip-path:url(#SVGID_00000164475363390690652180000006808478221680728729_);fill:url(#SVGID_00000087402741498869761270000016301757291807386024_)}.st385{mask:url(#SVGID_00000181072987500359317540000015604297737463656892_);fill:url(#SVGID_00000169521168219961300370000017423970546817731505_)}.st386{clip-path:url(#SVGID_00000092416021839846054620000007613302804330286778_)}.st387{filter:url(#Adobe_OpacityMaskFilter_00000007426475844685301380000012495441981122260368_)}.st388,.st389{clip-path:url(#SVGID_00000152981904360739384640000004826157049562453924_);fill:url(#SVGID_00000170986555994648387370000008820770377635139221_)}.st389{mask:url(#SVGID_00000035493055063113511700000003733702180743745168_);fill:url(#SVGID_00000070838693173001134480000001456308460162649023_)}.st390{clip-path:url(#SVGID_00000096027149914113040740000017784395422175273380_)}.st391{filter:url(#Adobe_OpacityMaskFilter_00000086671856769801847300000012079882393855128253_)}.st392,.st393{clip-path:url(#SVGID_00000116917376125097747290000015911267480004093069_);fill:url(#SVGID_00000065774227472661719270000010704229771225103257_)}.st393{mask:url(#SVGID_00000040541448582639439430000013786634957012475815_);fill:url(#SVGID_00000106129044592362985970000002494616036449726093_)}.st394{opacity:.5;clip-path:url(#SVGID_00000138556142664729651470000017881036232755548801_)}.st395{clip-path:url(#SVGID_00000085968996847265981710000015997902611839252356_)}.st396{filter:url(#Adobe_OpacityMaskFilter_00000161611264527081583270000012807934320627777697_)}.st397,.st398{clip-path:url(#SVGID_00000013913563246874098500000004291842156839296693_);fill:url(#SVGID_00000152953975585344927390000007419970423242567808_)}.st398{mask:url(#SVGID_00000049183567884181385960000010438609803776532925_);fill:url(#SVGID_00000012467168474264271930000007496570655889607049_)}.st399{clip-path:url(#SVGID_00000098942232497017625870000002872625002505892509_)}.st400{filter:url(#Adobe_OpacityMaskFilter_00000084496102991571485090000009722062890753645708_)}.st401,.st402{clip-path:url(#SVGID_00000168820041118012784920000000867108707200386475_);fill:url(#SVGID_00000047747469204561231910000008089087827457792432_)}.st402{mask:url(#SVGID_00000162352114642127832220000017614922306699794082_);fill:url(#SVGID_00000127723440155321054730000007147770791534517170_)}.st403{fill:#da306c}.st403,.st404{clip-path:url(#SVGID_00000132090006200964177070000006242453715574950054_)}.st405{clip-path:url(#SVGID_00000139993915174591217050000003717584190763900856_)}.st405,.st406{fill:#da306c}.st406,.st407{clip-path:url(#SVGID_00000104671416274861133350000014648125686191731635_)}.st408{clip-path:url(#SVGID_00000106134729561599490780000017508919071952710058_);fill:#da306c}.st409,.st410,.st411{fill-rule:evenodd;clip-rule:evenodd;fill:#010101}.st410,.st411{fill:#e4042a}.st411{fill:#233180}.st412{fill:#213262}.st413{fill:#b2b2b2}.st413,.st414{clip-path:url(#SVGID_00000106149547796558130960000018204937897731838337_)}.st415,.st416{clip-path:url(#SVGID_00000104677576772412420460000006879524135508741809_)}.st416,.st417{fill:#b2b2b2}.st417,.st418{clip-path:url(#SVGID_00000007425779391499607850000015972254807023912840_)}.st419,.st420{clip-path:url(#SVGID_00000107577859459511255990000005387900005104524471_)}.st420{fill:#b2b2b2}.st421{clip-path:url(#SVGID_00000141418956531592571440000006721141262678908332_)}.st421,.st422{fill:#62bb46}.st423{clip-path:url(#SVGID_00000168083229065553738900000010355408977986052755_)}.st424{clip-path:url(#SVGID_00000124844618049032807960000013589601805052837526_);fill:#62bb46}.st425{clip-path:url(#SVGID_00000037686315508954865630000016457226578606966657_)}.st426{fill:#ffcc40}.st427{fill:#00377b}.st428{fill:#0a1f8f}.st429{fill:#d7282f}</style><path d="M141.6 102.9h8.3v4.3c1.3-1.6 3-2.9 5-3.8 2.2-.9 4.5-1.4 6.8-1.3 3.3-.1 6.6.8 9.4 2.5 2.8 1.7 5.1 4 6.6 6.9 1.6 3 2.4 6.4 2.4 9.8 0 3.4-.8 6.8-2.4 9.8-1.6 2.8-3.8 5.2-6.6 6.9-2.9 1.7-6.2 2.6-9.5 2.5-2.1 0-4.3-.4-6.3-1.1-1.9-.7-3.5-1.8-4.9-3.2v17h-8.8v-50.3zm24.4 28c1.6-1 2.8-2.3 3.7-3.9.9-1.8 1.4-3.7 1.3-5.7 0-2-.4-3.9-1.3-5.7-.9-1.6-2.1-3-3.7-3.9-1.2-.7-2.5-1.2-3.9-1.4-1.4-.2-2.8-.1-4.1.2-1.3.4-2.6 1-3.7 1.9-1.1.9-2 2-2.6 3.2-.9 1.8-1.3 3.7-1.3 5.7s.5 3.9 1.3 5.7c.8 1.6 2.1 3 3.7 3.9 1.6.9 3.4 1.4 5.2 1.4 1.9.1 3.7-.4 5.4-1.4zm26.2 7c-2.8-1.7-5.1-4.1-6.6-7-1.6-3-2.4-6.3-2.4-9.7-.1-3.4.8-6.8 2.4-9.8 1.5-2.8 3.8-5.1 6.5-6.8 2.8-1.7 6-2.5 9.3-2.5 3.8 0 7.1.8 9.7 2.5 2.6 1.6 4.7 3.8 6.1 6.5 1.4 2.8 2.1 5.9 2.1 9 0 .7 0 1.3-.1 2-.1.6-.2 1.2-.4 1.7h-26.5c.2 2.1 1 4.1 2.4 5.6 1.4 1.6 3.2 2.7 5.2 3.1 2 .5 4.2.3 6.1-.6 1.9-.8 3.5-2.2 4.6-4.1l7.2 3.5c-1.2 2.7-3.3 5-5.9 6.5-3 1.7-6.4 2.5-9.9 2.5-3.4.1-6.8-.7-9.8-2.4zm3.5-26.5c-1.7 1.4-2.8 3.4-3.1 5.6h17.2c-.1-2.1-1-4.1-2.6-5.5-1.6-1.4-3.7-2.2-5.8-2.1-2.1-.1-4.1.6-5.7 2zm27.4-8.5h8.3v4.3c1.3-1.6 3.1-2.9 5-3.8 2.2-.9 4.5-1.4 6.8-1.3 3.3-.1 6.6.8 9.4 2.5 2.8 1.7 5.1 4 6.6 6.9 1.6 3 2.4 6.4 2.4 9.8 0 3.4-.8 6.8-2.4 9.8-1.6 2.8-3.8 5.2-6.6 6.9-2.9 1.7-6.2 2.6-9.5 2.5-2.1 0-4.3-.4-6.3-1.1-1.9-.7-3.5-1.8-4.9-3.2v17h-8.8v-50.3zm24.4 28c1.6-1 2.8-2.3 3.7-3.9.9-1.8 1.4-3.7 1.4-5.7s-.4-3.9-1.4-5.7c-.9-1.6-2.1-3-3.7-3.9-1.2-.7-2.5-1.2-3.9-1.4-1.4-.2-2.8-.1-4.1.2-1.3.4-2.6 1-3.7 1.9-1.1.9-2 2-2.6 3.2-.9 1.8-1.3 3.7-1.3 5.7s.5 3.9 1.3 5.7c.8 1.6 2.1 3 3.7 3.9 1.6.9 3.4 1.4 5.2 1.4 1.9.1 3.7-.4 5.4-1.4zm18.4-28h8.3v4.3c1.3-1.6 3.1-2.9 5-3.8 2.2-.9 4.5-1.4 6.8-1.3 3.3-.1 6.6.8 9.4 2.5 2.8 1.7 5.1 4 6.6 6.9 1.6 3 2.4 6.4 2.4 9.8s-.8 6.8-2.4 9.8c-1.6 2.8-3.8 5.2-6.6 6.9-2.9 1.7-6.2 2.6-9.5 2.5-2.1 0-4.3-.4-6.3-1.1-1.9-.7-3.5-1.8-4.9-3.2v17h-8.9l.1-50.3zm24.4 28c1.6-1 2.8-2.3 3.7-3.9.9-1.8 1.4-3.7 1.4-5.7s-.4-3.9-1.4-5.7c-.9-1.6-2.1-3-3.7-3.9-1.2-.7-2.5-1.2-3.9-1.4s-2.8-.1-4.1.2c-1.3.4-2.6 1-3.7 1.9-1.1.9-2 2-2.6 3.2-.9 1.8-1.3 3.7-1.3 5.7s.5 3.9 1.3 5.7c.8 1.6 2.1 3 3.7 3.9 1.6.9 3.4 1.4 5.2 1.4 1.9.1 3.8-.4 5.4-1.4zm26.3 7c-2.8-1.7-5.1-4.1-6.6-7-1.6-3-2.4-6.3-2.4-9.7-.1-3.4.8-6.8 2.4-9.8 1.5-2.8 3.8-5.1 6.5-6.8 2.8-1.7 6-2.5 9.3-2.5 3.8 0 7.1.8 9.7 2.5 2.6 1.6 4.7 3.8 6.1 6.5 1.4 2.8 2.1 5.9 2.1 9 0 .7 0 1.3-.1 2-.1.6-.2 1.2-.4 1.7h-26.5c.2 2.1 1 4.1 2.4 5.6 1.4 1.6 3.2 2.7 5.2 3.1 2 .5 4.2.3 6.1-.6 1.9-.8 3.5-2.2 4.6-4.1l7.2 3.5c-1.2 2.7-3.3 5-5.9 6.5-3 1.7-6.4 2.5-9.9 2.5-3.4.2-6.8-.7-9.8-2.4zm3.5-26.5c-1.7 1.5-2.8 3.4-3.1 5.6h17.2c-.1-2.1-1-4.1-2.6-5.5-1.6-1.4-3.7-2.2-5.8-2.1-2.1-.1-4.1.6-5.7 2zm27.3-8.5h8.3v5.2c.7-1.9 2.2-3.5 4-4.4 1.9-.8 3.9-1.3 5.9-1.2h2.2v7.8h-3.2c-1.1 0-2.2.1-3.3.5s-2 1-2.8 1.8c-1.6 1.6-2.3 3.7-2.3 6.5v20.5h-8.8v-36.7zm26.5 34.7c-2.8-1.8-4.9-4.4-6-7.5l6.6-3.2c.9 1.9 2.3 3.6 4 4.9 1.6 1.2 3.6 1.8 5.6 1.8 1.3.1 2.7-.3 3.8-1 .5-.3.8-.7 1.1-1.2.3-.5.4-1.1.4-1.6s-.1-1-.3-1.4c-.2-.4-.5-.8-.9-1.1-.9-.6-1.9-1.1-3-1.4l-6-1.7c-3.1-.9-5.5-2.3-7.1-4.1-1.6-1.8-2.4-4.1-2.4-6.6-.1-2.1.5-4.2 1.7-5.9 1.2-1.7 2.9-3.1 4.8-3.9 2.6-1.1 5.4-1.6 8.3-1.4 2.8.2 5.6 1 8 2.5 2.6 1.6 4.6 4.1 5.7 7l-6.8 3.2c-.6-1.6-1.7-3-3.1-4-1.5-1-3.2-1.5-5-1.5-1.2-.1-2.5.3-3.5 1-.4.3-.7.7-1 1.2-.2.5-.3 1-.3 1.5s.1.9.3 1.4c.2.4.5.8.9 1.1.9.6 2 1.1 3.1 1.4l5.9 1.8c3.1.9 5.4 2.2 7 4.1 1.6 1.8 2.5 4.2 2.4 6.6 0 2.1-.6 4.1-1.8 5.8-1.2 1.7-2.9 3.1-4.9 3.9-2.3 1-4.8 1.5-7.3 1.4-3.6-.2-7.2-1.2-10.2-3.1zm35.8-1c-2.3-2.3-3.4-5.5-3.4-9.6v-16.7H400v-7.4h.7c1.8 0 3.2-.5 4.2-1.4 1-.9 1.5-2.3 1.5-4.1V92h8.8v11h8.4v7.4h-8.4v16.2c0 1.8.5 3.3 1.5 4.3s2.6 1.5 4.7 1.5c.8 0 1.6-.1 2.4-.2v7.5c-.6.1-1.4.2-2.2.3-.7.1-1.5.1-2.2.1-4.2-.1-7.4-1.2-9.7-3.5zm25 1.3c-3-1.7-5.4-4.1-7.1-7-1.7-2.9-2.6-6.3-2.6-9.6 0-3.4.9-6.7 2.6-9.7 1.7-2.9 4.2-5.4 7.1-7 3-1.6 6.4-2.5 9.8-2.5 3.4 0 6.8.9 9.8 2.5 2.9 1.6 5.3 4 7 6.8 1.7 3 2.6 6.4 2.6 9.9s-.9 6.9-2.6 9.9c-1.7 2.8-4.1 5.2-7 6.8-3 1.6-6.4 2.5-9.8 2.5s-6.8-.9-9.8-2.6zm15-7c1.5-1 2.8-2.3 3.6-3.9.9-1.8 1.3-3.7 1.3-5.7s-.4-3.9-1.3-5.7c-.8-1.6-2.1-3-3.6-3.9-1.6-1-3.4-1.5-5.2-1.4-1.9 0-3.7.5-5.3 1.4-1.5 1-2.8 2.3-3.6 3.9-.9 1.8-1.3 3.7-1.3 5.7s.4 3.9 1.3 5.7c.8 1.6 2.1 3 3.6 3.9 1.6 1 3.4 1.4 5.3 1.4 1.8.1 3.6-.4 5.2-1.4zm18.4-28h8.3v4.5c1-1.7 2.4-3.1 4.2-4 1.9-.9 4-1.4 6.2-1.3 2.5 0 5 .6 7.2 1.8 2.1 1.1 3.8 2.8 4.9 4.9 1.2 2.2 1.8 4.7 1.8 7.3v23.6h-8.8v-21.5c0-2.4-.7-4.4-2.1-5.8-.7-.7-1.5-1.3-2.5-1.6-.9-.4-1.9-.5-2.9-.5s-2 .1-2.9.5c-.9.4-1.8.9-2.5 1.7-1.4 1.4-2.1 3.4-2.1 5.7v21.5H468l.1-36.8zm45.3 35c-2.8-1.7-5.1-4.1-6.6-7-1.6-3-2.4-6.3-2.4-9.7-.1-3.4.8-6.8 2.4-9.8 1.5-2.8 3.8-5.1 6.5-6.8 2.8-1.7 6-2.5 9.3-2.5 3.8 0 7.1.8 9.7 2.5 2.6 1.6 4.7 3.8 6.1 6.5 1.4 2.8 2.1 5.9 2.1 9 0 .7 0 1.3-.1 2-.1.6-.2 1.2-.4 1.7h-26.5c.2 2.1 1 4.1 2.4 5.6 1.4 1.6 3.2 2.7 5.2 3.1 2 .5 4.2.3 6.1-.6s3.5-2.2 4.6-4.1l7.2 3.5c-1.2 2.7-3.3 5-5.9 6.5-3 1.7-6.4 2.5-9.9 2.5-3.4.1-6.8-.7-9.8-2.4zm3.5-26.5c-1.7 1.5-2.8 3.4-3.1 5.6H531c-.1-2.1-1-4.1-2.6-5.5-1.6-1.4-3.7-2.2-5.8-2.1-2-.1-4.1.6-5.7 2z" style="fill:#373737"/><path d="M103.4 92.7c-19-10.9-58.6-19.5-79.6-20.1-21-.6-23.3 6.9-22 23.9 1.3 17 6.2 43.6 17 60.5 10.8 17 27.5 24.3 45.3 18.2 17.7-6.1 36.5-25.6 46.6-42 10.1-16.3 11.7-29.6-7.3-40.5z" style="fill:#4068b1"/><path d="M66.2 139.4H52.8v22.2H39.3v-49.4h13.6v13.6h13.3c5.6-.1 10.1-4.7 10.1-10.3 0-5.6-4.5-10.2-10.1-10.3H22.3l5-13.6h38.9c13.2 0 23.9 10.7 23.9 23.9 0 13.3-10.7 23.9-23.9 23.9z" style="fill:#fff"/></svg>
