<svg xmlns="http://www.w3.org/2000/svg" width="87" height="57"><path fill="#228C43" d="M-1-.5h88v58.7H-1z"/><path fill="#EE7E22" d="M76.5 20.5H87v37.7H76.5z"/><path fill="#010101" d="M66 20.5h10.5v37.7H66z"/><path fill="#DD2726" d="M55.6 20.5h10.5v37.7H55.6z"/><path d="M79.3 6.6s3.6-1.4 4-1.7c.2.2-1.4 2-4.6 2.6 2.8-.6 5.2-2.5 5.7-2.5.1 0 .1 1.9-6.4 3.5 4.5-1.1 7.1-3.1 7-2.8 0 0-.4 1.6-4.4 2.7 1.1-.2 4.1-1.9 4-1.6.1.1-2.9 3.6-8.2 2.5 4.3 1 7.1-1.4 7.5-1.4.1 0-.8 2.2-6.2 2.3 2.6-.2 1.8 0 1.8 0s-1.5 1.1-3.4.3c1.4.4 1.6.4 1.6.5-.1.1-1.3.4-2.4-.2.9.3 1.7.4 1.8.5 0 0-.6.3-1.1.1-.5-.2-5.4-2.9-5.4-2.9l8.4-2 .3.1zm-9.7 7.3c-.7 0-.7.6-.7.6s-.1 0 0 .3c.1-.2.2-.3.2-.3.1 0 .4.1.9-.3-.5.5-.2.6-.2.6s-.1.4.3.4c-.1-.1 0-.3 0-.3s.5 0 .5-.6c0 .5.3.6.3.6s0 .3.3.3c-.2.1-.2-.1-.2-.1s.4-.3.1-.8c.2-.1.4-.4.4-.4s-.3-.1-.4-.2c-.1-.1 0-.8 0-.8l-.2-.9-.5 1.4c-.1-.3 0 .5-.8.5zm3.6-2s.5.6 1 .5c.2-.1-.4-.5-.4-.5.2.2 1.1.9 1.6.6.2-.3-.4-.2-1.1-1 .5.3 1.7.9 2.2.7.2-.2-1.2-1-1.7-1.5l-1.2-.7-1.7 1.3 1.3.6zm-1.9-4.4s.6-.3 2.9-.2c.3 0 1.6-.4 2-.6.7-.1 2.9-.6 3.4-1 .4 0-.1.7-.6.9-.6.2-2.6.9-3.3.8.9 0 .4.7-1 .3.7.3.4.4.4.4s-1.2.2-1.5-.1c.8.3.5.4.5.4s-.8.1-1.2-.1c.6.2.3.3.3.3s-.5.1-.9-.1c-.4-.1-1-1-1-1zm.9 4.7.1 1.4s0 .1-.1.1c0 0-1.1-.2-1 .6 0 .3 0 .4.2.6-.1-.2 0-.3 0-.3s.3.2.6-.3c-.2.4-.1.6 0 .6 0 .1-.1.4.3.4-.2-.1-.1-.3-.1-.3s.4-.1.3-.8c.2-.1.2 0 .2 0s0 .4.4.3c.2.1 0 .3 0 .3s.3 0 .3-.2c.1-.2.2-.6-.3-.7-.1-.1.2-.2.2-.2s.3.1.4.2c.1.1.1-.3-.3-.4-.4 0-.5-.1-.5-.1s-.1-1-.1-1.3l-.6.1zm1.5 1.2c0-.1-.7-1-.5-1.1.2 0 .5.4.7.3-.1-.2-.3-.1-.5-.5-.2-.5-.3-1.2-1.2-1.9.6.8 1.8 1.3 1.9 1 .1-.2-1.1-1.1-1.1-1.3.2.4 1.4 1.4 2.3 1.3.1-.2-.7-.6-.9-.9-.6-.3-2.1-1.5-2.1-1.8-.5-.7-.9-.9-1-1-.1-.1-.1-.1-.1-.2-.3-.7.1-1 .4-1 .2 0 .3 0 .4-.1l-.6-.2c.2.2.9 0 .7.5.3-.1.8-.7-.6-.9-.5-.5-2.5-.8-3 1.4 0 0 .1.1.2.1-.6-.3-2.3-.5-2.9-.6-1.6-.4-3.4-1.5-3.5-1.4-.2.1 1 1.1.9 1.2-1.1-.6-2-1-2.9-1.3-.6-.2-1.3-.7-1.3-.6-.2.4 1 1.6 1.2 1.7.2.1 2.1.9 2 .9-2.7-1-3.2-1.2-3.3-1.4-.2 0-.8-.8-1-.7-.1.1.1 1.2 1.4 1.8.2.1 2.8 1 2.8 1.1 0 0-3-1.1-3.1-1.2-.6-.2-1.3-.9-1.4-.8-.1.1.3.9.9 1.1.3.1 1.5.6 2.5 1 .1 0-1.9-.7-2.8-1-.4-.2-.6-.5-.7-.4-.1.1.2 1.2 3.2 1.9.1 0 1.1-.2 1-.2 0 0-1 .2-1.1.2-.1 0-.6.1-.6.1 0 .1.2.5 1.7.4.2 0 1.3-.4 1.2-.3 0 0-1.5.5-1.6.5-.1 0-.6.1-.6.1 0 .1.4.4 1.2.4L64 9s-1.4.4-1.4.5c0 0-.5 0-.5.1s.7.7 2.9 0c-.2.3-1.3.5-1.3.5s.2.2.6.3h.7c.4-.1.9-.2 1.4-.7l-1.3.9c.3.3 1.4 0 1.4-.1.1 0 2-1 2-1.2L66 10.8c.2.2 1 0 1.1 0l1.1-.6s-1.3.7-1.1.8c-.1.5 2-.3 2.2-.4.1 0-1 .4-1 .7.3.5 1.5.4 1.6.2.1-.1-.1.4 0 .4 0 0 .2-.2.3-.4 0 .1-.1.4-.2.7l-.2.9c0 .1.7-.3.6-1.3.1.5-.2 1.5-.1 1.6.1.1.6-.5.6-.9.1.2.4.6.6.7 0-.3 0-.3-.1-.6.1-.4.1-.9.1-1.6.6 1 .8 1.5.7 2.3.2.1.5-.6.4-.9.1.9 1.1 1 1.1 1zm-9.9-6.6s-.4.3-.9.3c.1.4 1.1 0 1.1 0s-.5.5-.9.6c.2.2 1.1.1 1.3 0 .2-.1.4-.4.4-.4s-.9 1-1.1 1c0 .1 1 .1 1.2-.1.2-.2.7-.4.7-.4l-1.4.9c.5.1 1.5-.1 2.2-.5-1 .6-1.1.7-1.6.9.4.1.7.4 2.2-.2.9-.4 1.3-1 1.3-1-.5.7-1.4 1.2-2.3 1.7-.1.1 1 .5 2.3-.8m2.7.7s.1.4.4.7c.4.3.4.6.4.6m-1-3.8s.1.3.5.6c.4.2.9.9 1 1 0 .1.3 1.2.2 1.3m-4-2.4c0 .1-.5.8.2 1.6-.7.8-.7.9-.7.9s.4.2 1.1-.3c1.1 1.3.8 1.9.8 1.9m-.1-1s-.1-.1.1-.7l.4.3c.1.1.9.2 1 .7m-.5-5.1s-.2-.4-.8 0c.4 0 .7.2.8 0zM77 7.3s1.9.4 2.6.2c-.8 1-2.4.3-2.4.3.8.3.8.3 1 .5.1.2-1.5.1-2-.2 1.4.4 1.4.4 1.5.5.1.2-2.3-.1-2.5-.3.6.5 1 .5 1.3.7-.4.2-1.2.3-2.7-.6 1.9 1.6 3.7 1.5 3.9 1.8-.7.9-3.3-.5-4.4-1.3-1.2-.7 2.6 1.8 3 1.7-.2.2-1.4 0-1.5-.1M77.5 9h-1M63.2 6.5s1.4.7 2.1.7l-.4.2c.2.1.6.3 1.2.1-.2.1-.4.3-.4.3s.5.2 1.2-.1l-.3.3h.4" fill="#EE7E22" stroke="#010101" stroke-width=".094" stroke-linecap="round" stroke-linejoin="round"/></svg>
